<?xml version="1.0" encoding="UTF-8" standalone="no"?>
<!-- Created with Inkscape (http://www.inkscape.org/) -->

<svg
   width="19.560268mm"
   height="9.7162113mm"
   viewBox="0 0 19.560268 9.7162113"
   version="1.1"
   id="svg5163"
   inkscape:version="1.2.2 (732a01da63, 2022-12-09)"
   sodipodi:docname="Publication_btn.svg"
   xmlns:inkscape="http://www.inkscape.org/namespaces/inkscape"
   xmlns:sodipodi="http://sodipodi.sourceforge.net/DTD/sodipodi-0.dtd"
   xmlns="http://www.w3.org/2000/svg"
   xmlns:svg="http://www.w3.org/2000/svg"
   xmlns:rdf="http://www.w3.org/1999/02/22-rdf-syntax-ns#"
   xmlns:cc="http://creativecommons.org/ns#"
   xmlns:dc="http://purl.org/dc/elements/1.1/">
  <defs
     id="defs5157" />
  <sodipodi:namedview
     id="base"
     pagecolor="#ffffff"
     bordercolor="#666666"
     borderopacity="1.0"
     inkscape:pageopacity="0.0"
     inkscape:pageshadow="2"
     inkscape:zoom="7.9195959"
     inkscape:cx="49.750013"
     inkscape:cy="-10.101525"
     inkscape:document-units="mm"
     inkscape:current-layer="layer1"
     showgrid="false"
     fit-margin-top="0"
     fit-margin-left="0"
     fit-margin-right="0"
     fit-margin-bottom="0"
     showborder="false"
     inkscape:window-width="3440"
     inkscape:window-height="1377"
     inkscape:window-x="-8"
     inkscape:window-y="-8"
     inkscape:window-maximized="1"
     inkscape:showpageshadow="2"
     inkscape:pagecheckerboard="0"
     inkscape:deskcolor="#d1d1d1" />
  <metadata
     id="metadata5160">
    <rdf:RDF>
      <cc:Work
         rdf:about="">
        <dc:format>image/svg+xml</dc:format>
        <dc:type
           rdf:resource="http://purl.org/dc/dcmitype/StillImage" />
        <dc:title />
      </cc:Work>
    </rdf:RDF>
  </metadata>
  <g
     inkscape:label="Layer 1"
     inkscape:groupmode="layer"
     id="layer1"
     transform="translate(-66.571056,-134.14785)">
    <rect
       y="134.14784"
       x="66.571053"
       height="9.7162113"
       width="19.560268"
       id="rect6146"
       style="fill:#0095ff;fill-opacity:1;fill-rule:nonzero;stroke:none;stroke-width:4.73529;stroke-linejoin:miter;stroke-miterlimit:4;stroke-dasharray:none;stroke-dashoffset:0;stroke-opacity:1;paint-order:normal" />
    <path
       d="m 79.019793,137.60655 a 0.4529301,0.4529301 0 0 0 -0.142317,-0.18669 l -1.710529,-1.6667 a 0.19102069,0.19102069 0 0 0 -0.149353,-0.0714 h -2.987066 a 0.34740875,0.34740875 0 0 0 -0.34795,0.34795 v 5.95249 a 0.34740875,0.34740875 0 0 0 0.34795,0.34795 h 4.641858 a 0.34740875,0.34740875 0 0 0 0.346325,-0.34795 v -2.87126 0 -1.50436 z m -1.809014,-1.24461 1.162358,1.08876 h -1.162358 z m -0.836054,5.58072 h -2.303612 v -5.87402 h 2.750049 v 1.57525 a 0.19534978,0.19534978 0 0 0 0.195349,0.19535 h 1.614747 v 1.27167 0 2.83175 z m -1.584443,-3.39291 a 0.13961286,0.13961286 0 0 1 0.101192,-0.0476 h 2.283049 a 0.13798945,0.13798945 0 0 1 0.103357,0.0471 0.16234053,0.16234053 0 0 1 0.04113,0.10822 0.16666962,0.16666962 0 0 1 -0.04167,0.10823 0.13907172,0.13907172 0 0 1 -0.102816,0.0476 h -2.281426 a 0.13853059,0.13853059 0 0 1 -0.103357,-0.0471 0.16775188,0.16775188 0 0 1 0,-0.22078 z m 0,2.20621 a 0.13690718,0.13690718 0 0 1 0.102815,-0.0476 h 2.915636 a 0.13798945,0.13798945 0 0 1 0.103357,0.0476 0.16775188,0.16775188 0 0 1 0,0.22078 0.14015399,0.14015399 0 0 1 -0.103898,0.0465 h -2.915095 a 0.14015399,0.14015399 0 0 1 -0.103357,-0.0465 0.16775188,0.16775188 0 0 1 0,-0.22078 z m 3.018451,-1.14992 a 0.14015399,0.14015399 0 0 1 0.103357,0.0476 0.16775188,0.16775188 0 0 1 0,0.22079 0.13907172,0.13907172 0 0 1 -0.103898,0.0471 h -2.915095 a 0.13853059,0.13853059 0 0 1 -0.103357,-0.0471 0.16775188,0.16775188 0 0 1 0,-0.22079 0.13907172,0.13907172 0 0 1 0.102816,-0.0476 z m -3.018451,-2.15858 a 0.13907172,0.13907172 0 0 1 0.102815,-0.0476 h 1.054672 a 0.13853059,0.13853059 0 0 1 0.103357,0.0471 0.16234053,0.16234053 0 0 1 0.04113,0.10823 0.16612848,0.16612848 0 0 1 -0.04059,0.10823 v 0 a 0.13961286,0.13961286 0 0 1 -0.102815,0.0476 h -1.055755 a 0.13853059,0.13853059 0 0 1 -0.103357,-0.0471 0.16775188,0.16775188 0 0 1 0,-0.22078 z"
       id="path299"
       style="stroke-width:0.0541134" />
  </g>
</svg>
