<?xml version="1.0" encoding="UTF-8" standalone="no"?>
<!-- Created with Inkscape (http://www.inkscape.org/) -->

<svg
   width="19.560268mm"
   height="9.7162113mm"
   viewBox="0 0 19.560268 9.7162113"
   version="1.1"
   id="svg5163"
   inkscape:version="1.2.2 (732a01da63, 2022-12-09)"
   sodipodi:docname="Tips_btn.svg"
   inkscape:export-filename="C:\Users\deepa\OneDrive\PhD\Homepage\New folder\IMGS\Tips_btn.png"
   inkscape:export-xdpi="420.88425"
   inkscape:export-ydpi="420.88425"
   xmlns:inkscape="http://www.inkscape.org/namespaces/inkscape"
   xmlns:sodipodi="http://sodipodi.sourceforge.net/DTD/sodipodi-0.dtd"
   xmlns="http://www.w3.org/2000/svg"
   xmlns:svg="http://www.w3.org/2000/svg"
   xmlns:rdf="http://www.w3.org/1999/02/22-rdf-syntax-ns#"
   xmlns:cc="http://creativecommons.org/ns#"
   xmlns:dc="http://purl.org/dc/elements/1.1/">
  <defs
     id="defs5157" />
  <sodipodi:namedview
     id="base"
     pagecolor="#ffffff"
     bordercolor="#666666"
     borderopacity="1.0"
     inkscape:pageopacity="0.0"
     inkscape:pageshadow="2"
     inkscape:zoom="8"
     inkscape:cx="-10.875"
     inkscape:cy="0.875"
     inkscape:document-units="mm"
     inkscape:current-layer="layer1"
     showgrid="false"
     fit-margin-top="0"
     fit-margin-left="0"
     fit-margin-right="0"
     fit-margin-bottom="0"
     showborder="false"
     inkscape:window-width="3440"
     inkscape:window-height="1377"
     inkscape:window-x="-8"
     inkscape:window-y="-8"
     inkscape:window-maximized="1"
     inkscape:pagecheckerboard="0"
     inkscape:snap-object-midpoints="true"
     inkscape:snap-center="true"
     inkscape:showpageshadow="2"
     inkscape:deskcolor="#d1d1d1" />
  <metadata
     id="metadata5160">
    <rdf:RDF>
      <cc:Work
         rdf:about="">
        <dc:format>image/svg+xml</dc:format>
        <dc:type
           rdf:resource="http://purl.org/dc/dcmitype/StillImage" />
      </cc:Work>
    </rdf:RDF>
  </metadata>
  <g
     inkscape:label="Layer 1"
     inkscape:groupmode="layer"
     id="layer1"
     transform="translate(-86.341832,-143.74636)">
    <rect
       y="143.74637"
       x="86.341835"
       height="9.7162113"
       width="19.560268"
       id="rect6146"
       style="fill:#ffff00;fill-opacity:1;fill-rule:nonzero;stroke:none;stroke-width:4.73529;stroke-linejoin:miter;stroke-miterlimit:4;stroke-dasharray:none;stroke-dashoffset:0;stroke-opacity:1;paint-order:normal" />
    <path
       d="m 92.727636,148.50791 a 0.17536988,0.17536988 0 0 1 -0.12572,-0.0471 0.17851271,0.17851271 0 0 1 -0.0553,-0.12571 0.17599844,0.17599844 0 0 1 0.17097,-0.18166 l 0.54371,-0.0189 a 0.17788414,0.17788414 0 0 1 0.12571,0.0478 0.17662701,0.17662701 0 0 1 -0.11502,0.30485 l -0.54434,0.0182 z m 4.098883,-1.2257 a 0.38468231,0.38468231 0 0 1 0.13451,0.022 0.51982396,0.51982396 0 0 1 0.22691,0.15714 0.50285268,0.50285268 0 0 1 0.1188,0.27091 0.49279564,0.49279564 0 0 1 -0.008,0.15086 0.58393768,0.58393768 0 0 1 0.11503,0.13891 0.45885308,0.45885308 0 0 1 0.0628,0.2464 0.4399961,0.4399961 0 0 1 -0.0899,0.25142 0.60719463,0.60719463 0 0 1 -0.15086,0.14143 0.55753791,0.55753791 0 0 1 -0.0962,0.34571 0.44942459,0.44942459 0 0 1 -0.28034,0.19737 0.4399961,0.4399961 0 0 1 -0.51542,0.308 0.35828255,0.35828255 0 0 1 -0.22503,-0.18857 0.38531087,0.38531087 0 0 1 -0.25708,0.19486 0.40039645,0.40039645 0 0 1 -0.32434,-0.0811 0.3922251,0.3922251 0 0 1 -0.14646,-0.2332 0.40353929,0.40353929 0 0 1 -0.11377,-0.0214 0.52359536,0.52359536 0 0 1 -0.22251,-0.15275 0.51102405,0.51102405 0 0 1 -0.12069,-0.25959 0.4751958,0.4751958 0 0 1 0.006,-0.16532 0.57513777,0.57513777 0 0 1 -0.10497,-0.12571 0.47393866,0.47393866 0 0 1 -0.0717,-0.25143 0.45005315,0.45005315 0 0 1 0.0911,-0.26337 0.62039452,0.62039452 0 0 1 0.14269,-0.13765 c 0,-0.017 0,-0.0346 0,-0.0515 a 0.55125226,0.55125226 0 0 1 0.12571,-0.33126 0.43371045,0.43371045 0 0 1 0.26903,-0.16028 v 0 a 0.3186829,0.3186829 0 0 1 0.0138,-0.0478 0.41485348,0.41485348 0 0 1 0.1804,-0.20995 0.39096796,0.39096796 0 0 1 0.27594,-0.0484 0.37713952,0.37713952 0 0 1 0.24703,0.17977 0.38091092,0.38091092 0 0 1 0.24765,-0.17977 0.38782513,0.38782513 0 0 1 0.25143,0.0365 0.42679622,0.42679622 0 0 1 0.18103,0.17349 0.37713952,0.37713952 0 0 1 0.0352,0.093 z m -0.61788,0.0559 v 1.72919 a 0.08674209,0.08674209 0 0 1 0.0157,0.0365 c 0.0245,0.15086 0.0899,0.22377 0.16406,0.24389 a 0.25142634,0.25142634 0 0 0 0.20805,-0.0478 0.22942654,0.22942654 0 0 0 0.1056,-0.176 c 0,-0.0767 -0.0553,-0.16406 -0.20617,-0.24074 a 0.08359926,0.08359926 0 1 1 0.0761,-0.14834 c 0.1672,0.0848 0.25142,0.18857 0.28411,0.29605 a 0.29668308,0.29668308 0 0 0 0.14897,-0.11754 0.39536792,0.39536792 0 0 0 0.0666,-0.27469 0.08359926,0.08359926 0 0 1 0.0396,-0.0899 0.47833861,0.47833861 0 0 0 0.14645,-0.12571 0.27154046,0.27154046 0 0 0 0.0572,-0.15714 0.29731167,0.29731167 0 0 0 -0.0427,-0.15778 0.42365338,0.42365338 0 0 0 -0.11251,-0.12571 0.08485639,0.08485639 0 0 1 -0.0352,-0.0981 0.30925441,0.30925441 0 0 0 0.0157,-0.13702 0.34193983,0.34193983 0 0 0 -0.0798,-0.17726 0.35388257,0.35388257 0 0 0 -0.15274,-0.10685 0.22062662,0.22062662 0 0 0 -0.0861,-0.0126 0.39285366,0.39285366 0 0 1 -0.0811,0.14771 0.0829707,0.0829707 0 1 1 -0.12571,-0.10685 0.18856976,0.18856976 0 0 0 0.0308,-0.22252 0.25142634,0.25142634 0 0 0 -0.10874,-0.10371 0.22188375,0.22188375 0 0 0 -0.14394,-0.022 c -0.071,0.0144 -0.13955,0.0735 -0.18229,0.19548 z m 0.42616,0.56571 a 0.08359926,0.08359926 0 0 1 0.0981,-0.13514 c 0.0176,0.0126 0.0333,0.0258 0.0484,0.039 a 0.55188082,0.55188082 0 0 1 0.18291,0.3696 0.58708052,0.58708052 0 0 1 -0.11188,0.39348 c -0.0119,0.0163 -0.0258,0.0327 -0.0415,0.0503 a 0.08414613,0.08414613 0 0 1 -0.12571,-0.11188 0.46325303,0.46325303 0 0 0 0.0295,-0.0365 0.42491052,0.42491052 0 0 0 0.0811,-0.28222 0.38593943,0.38593943 0 0 0 -0.12572,-0.25834 0.35828255,0.35828255 0 0 0 -0.0346,-0.0283 z m -0.59399,-0.47834 v 0 0 0 l -0.004,-0.006 v 0 0 0 0 0 0 0 0 0 0 0 0 0 c -0.0402,-0.1628 -0.1188,-0.2376 -0.19988,-0.25143 a 0.22816941,0.22816941 0 0 0 -0.1584,0.0295 0.24639783,0.24639783 0 0 0 -0.11566,0.0974 0.2061696,0.2061696 0 0 0 0.0742,0.22754 0.08361754,0.08361754 0 0 1 -0.11377,0.12257 0.42428196,0.42428196 0 0 1 -0.12571,-0.18857 0.27405471,0.27405471 0 0 0 -0.14646,0.0981 0.38405373,0.38405373 0 0 0 -0.0855,0.23005 0.45571024,0.45571024 0 0 0 0.004,0.0761 0.08422783,0.08422783 0 0 1 -0.039,0.0823 0.50285268,0.50285268 0 0 0 -0.14268,0.12571 0.28411178,0.28411178 0 0 0 -0.0585,0.16595 0.30234018,0.30234018 0 0 0 0.0471,0.16091 0.40416785,0.40416785 0 0 0 0.10497,0.11251 0.08422783,0.08422783 0 0 1 0.0314,0.0962 0.31931145,0.31931145 0 0 0 -0.0145,0.14583 0.34696836,0.34696836 0 0 0 0.0817,0.17474 0.3607968,0.3607968 0 0 0 0.1496,0.10372 0.24702639,0.24702639 0 0 0 0.0685,0.0126 c 0.0327,-0.10811 0.12571,-0.21685 0.29417,-0.30422 a 0.08359926,0.08359926 0 1 1 0.0761,0.14834 c -0.1584,0.0811 -0.21812,0.17411 -0.21812,0.25583 a 0.21496953,0.21496953 0 0 0 0.0886,0.16405 0.23696933,0.23696933 0 0 0 0.18857,0.0497 c 0.0811,-0.017 0.15966,-0.0918 0.19988,-0.2552 a 0.08485639,0.08485639 0 0 1 0.0126,-0.0277 z m -0.62102,0.4004 a 0.08424014,0.08424014 0 1 1 0.11691,0.12131 0.38782513,0.38782513 0 0 0 -0.11629,0.26211 0.42176768,0.42176768 0 0 0 0.0956,0.28412 0.08383654,0.08383654 0 0 1 -0.13075,0.10497 0.59462331,0.59462331 0 0 1 -0.132,-0.39977 0.55502366,0.55502366 0 0 1 0.16658,-0.37714 z m -0.0717,3.33831 a 0.14205589,0.14205589 0 0 1 -0.0302,-0.2816 c -0.0811,-0.46074 -0.30297,-0.71405 -0.53743,-0.98244 -0.18228,-0.20869 -0.37148,-0.42554 -0.52108,-0.74485 a 2.2483801,2.2483801 0 0 1 -0.22502,-0.9768 2.2986654,2.2986654 0 0 1 0.27531,-1.04467 l 0.004,-0.006 v 0 a 1.9831253,1.9831253 0 0 1 0.96673,-0.84542 2.1371239,2.1371239 0 0 1 1.00571,-0.14394 2.3068367,2.3068367 0 0 1 0.96044,0.30862 1.9831253,1.9831253 0 0 1 0.83914,0.9504 2.1100956,2.1100956 0 0 1 0.1584,0.73856 2.1465524,2.1465524 0 0 1 -0.1628,0.86742 c -0.16657,0.41171 -0.38657,0.66754 -0.59211,0.90702 -0.18857,0.22 -0.36582,0.42554 -0.46388,0.73983 a 0.14205589,0.14205589 0 0 1 -0.0132,0.27845 l -0.0478,0.007 c -0.009,0.0685 -0.0144,0.14143 -0.017,0.22 h 0.0157 a 0.14214391,0.14214391 0 1 1 0.039,0.2816 l -0.0484,0.007 v 0.0283 0 a 1.1257615,1.1257615 0 0 1 0,0.15903 h 0.008 a 0.14268445,0.14268445 0 0 1 0.0346,0.28285 l -0.1056,0.0126 a 0.84919248,0.84919248 0 0 1 -0.36645,0.43433 0.80016435,0.80016435 0 0 1 -0.35074,0.10686 0.72850784,0.72850784 0 0 1 -0.35891,-0.0748 0.76119325,0.76119325 0 0 1 -0.33063,-0.32119 0.14142732,0.14142732 0 0 1 -0.0767,-0.10938 0.13828449,0.13828449 0 0 1 0.004,-0.0559 1.2345034,1.2345034 0 0 1 -0.0547,-0.23885 h -0.004 a 0.14214391,0.14214391 0 0 1 -0.039,-0.2816 l 0.0339,-0.004 c 0,-0.0773 0,-0.1496 0,-0.21811 z m 0.23445,-0.31931 1.15594,-0.16405 c 0.0993,-0.41926 0.31428,-0.67069 0.54936,-0.94285 0.19234,-0.22377 0.39789,-0.46263 0.54749,-0.83348 a 1.8819262,1.8819262 0 0 0 0.14456,-0.76182 1.8354123,1.8354123 0 0 0 -0.14017,-0.64617 1.7134706,1.7134706 0 0 0 -0.72788,-0.82154 2.0321534,2.0321534 0 0 0 -0.84919,-0.27342 1.8787834,1.8787834 0 0 0 -0.88313,0.12571 1.7241562,1.7241562 0 0 0 -0.83725,0.73291 2.0334106,2.0334106 0 0 0 -0.24326,0.92022 1.9843824,1.9843824 0 0 0 0.19989,0.86302 2.8228892,2.8228892 0 0 0 0.48085,0.68262 c 0.26463,0.30297 0.51479,0.5896 0.60279,1.11885 z m 1.11194,0.12948 -1.08239,0.15337 c 0,0.0685 0.004,0.1408 0,0.21686 l 1.06856,-0.15148 c 0,-0.0773 0.004,-0.15023 0.0107,-0.21875 z m -1.06857,0.65623 a 1.0189053,1.0189053 0 0 0 0.0333,0.1584 l 1.03399,-0.12572 a 0.85924953,0.85924953 0 0 0 0.004,-0.1716 v 0 -0.012 l -1.06856,0.15212 z m 0.1804,0.42679 a 0.4751958,0.4751958 0 0 0 0.13137,0.0974 0.46513873,0.46513873 0 0 0 0.23006,0.0453 0.53616668,0.53616668 0 0 0 0.2332,-0.0717 0.57010924,0.57010924 0 0 0 0.17977,-0.16594 z m 3.696599,-4.17305 a 0.17599844,0.17599844 0 0 1 0.1936,0.15715 0.17662701,0.17662701 0 0 1 -0.15777,0.1936 l -0.541199,0.0572 a 0.17474131,0.17474131 0 0 1 -0.12948,-0.039 0.17662701,0.17662701 0 0 1 0.0936,-0.31428 l 0.541199,-0.0566 z m -1.018279,-2.19997 a 0.17914127,0.17914127 0 0 1 0.11252,-0.0748 0.17599844,0.17599844 0 0 1 0.20742,0.13766 0.17474131,0.17474131 0 0 1 -0.0264,0.132 l -0.30234,0.45257 a 0.17599844,0.17599844 0 0 1 -0.11251,0.0754 0.17851271,0.17851271 0 0 1 -0.132,-0.027 0.17474131,0.17474131 0 0 1 -0.0754,-0.11252 0.17285561,0.17285561 0 0 1 0.027,-0.13199 l 0.30171,-0.45257 z m -2.33701,-0.77063 a 0.17914127,0.17914127 0 0 1 0.0541,-0.12571 0.17662701,0.17662701 0 0 1 0.29794,0.132 l -0.0132,0.54371 a 0.17662701,0.17662701 0 1 1 -0.35262,-0.008 l 0.0138,-0.54434 z m -2.721693,0.87371 v 0 a 0.17662701,0.17662701 0 0 1 -0.006,-0.2464 v 0 a 0.17474131,0.17474131 0 0 1 0.11943,-0.0534 0.17851271,0.17851271 0 0 1 0.12571,0.0472 c 0.131373,0.12571 0.265883,0.24828 0.397883,0.37148 a 0.17788414,0.17788414 0 0 1 0.0566,0.12571 0.1803984,0.1803984 0 0 1 -0.0471,0.12571 v 0 a 0.17662701,0.17662701 0 0 1 -0.2464,0.006 c -0.125713,-0.12131 -0.267143,-0.25708 -0.399143,-0.37211 z"
       id="path295"
       style="stroke-width:0.0628565" />
  </g>
</svg>
