<?xml version="1.0" encoding="UTF-8" standalone="no"?>
<!-- Created with Inkscape (http://www.inkscape.org/) -->

<svg
   version="1.1"
   id="svg1"
   width="1121.3333"
   height="884"
   viewBox="0 0 1121.3333 884"
   sodipodi:docname="fem_ana.svg"
   inkscape:version="1.4.2 (ebf0e940d0, 2025-05-08)"
   xmlns:inkscape="http://www.inkscape.org/namespaces/inkscape"
   xmlns:sodipodi="http://sodipodi.sourceforge.net/DTD/sodipodi-0.dtd"
   xmlns="http://www.w3.org/2000/svg"
   xmlns:svg="http://www.w3.org/2000/svg">
  <defs
     id="defs1" />
  <sodipodi:namedview
     id="namedview1"
     pagecolor="#ffffff"
     bordercolor="#000000"
     borderopacity="0.25"
     inkscape:showpageshadow="2"
     inkscape:pageopacity="0.0"
     inkscape:pagecheckerboard="0"
     inkscape:deskcolor="#d1d1d1"
     inkscape:zoom="1.2884615"
     inkscape:cx="560.74627"
     inkscape:cy="442"
     inkscape:window-width="3440"
     inkscape:window-height="1342"
     inkscape:window-x="0"
     inkscape:window-y="0"
     inkscape:window-maximized="1"
     inkscape:current-layer="g1">
    <inkscape:page
       x="0"
       y="0"
       inkscape:label="1"
       id="page1"
       width="1121.3333"
       height="884"
       margin="0"
       bleed="0" />
  </sodipodi:namedview>
  <g
     id="g1"
     inkscape:groupmode="layer"
     inkscape:label="1">
    <rect
       style="fill:#ffffff"
       id="rect120"
       width="1121.3333"
       height="884"
       x="0"
       y="0" />
    <path
       id="path1"
       d="M 697.621,685.23 H 8137.62"
       style="fill:none;stroke:#262626;stroke-width:5.0025;stroke-linecap:square;stroke-linejoin:round;stroke-miterlimit:10;stroke-dasharray:none;stroke-opacity:1"
       transform="matrix(0.13333333,0,0,-0.13333333,0,884)" />
    <path
       id="path2"
       d="M 697.621,6550.23 H 8137.62"
       style="fill:none;stroke:#262626;stroke-width:5.0025;stroke-linecap:square;stroke-linejoin:round;stroke-miterlimit:10;stroke-dasharray:none;stroke-opacity:1"
       transform="matrix(0.13333333,0,0,-0.13333333,0,884)" />
    <path
       id="path3"
       d="m 697.621,685.23 v 74.422"
       style="fill:none;stroke:#262626;stroke-width:5.0025;stroke-linecap:square;stroke-linejoin:round;stroke-miterlimit:10;stroke-dasharray:none;stroke-opacity:1"
       transform="matrix(0.13333333,0,0,-0.13333333,0,884)" />
    <path
       id="path4"
       d="m 1441.6,685.23 v 74.422"
       style="fill:none;stroke:#262626;stroke-width:5.0025;stroke-linecap:square;stroke-linejoin:round;stroke-miterlimit:10;stroke-dasharray:none;stroke-opacity:1"
       transform="matrix(0.13333333,0,0,-0.13333333,0,884)" />
    <path
       id="path5"
       d="m 2185.63,685.23 v 74.422"
       style="fill:none;stroke:#262626;stroke-width:5.0025;stroke-linecap:square;stroke-linejoin:round;stroke-miterlimit:10;stroke-dasharray:none;stroke-opacity:1"
       transform="matrix(0.13333333,0,0,-0.13333333,0,884)" />
    <path
       id="path6"
       d="m 2929.61,685.23 v 74.422"
       style="fill:none;stroke:#262626;stroke-width:5.0025;stroke-linecap:square;stroke-linejoin:round;stroke-miterlimit:10;stroke-dasharray:none;stroke-opacity:1"
       transform="matrix(0.13333333,0,0,-0.13333333,0,884)" />
    <path
       id="path7"
       d="m 3673.63,685.23 v 74.422"
       style="fill:none;stroke:#262626;stroke-width:5.0025;stroke-linecap:square;stroke-linejoin:round;stroke-miterlimit:10;stroke-dasharray:none;stroke-opacity:1"
       transform="matrix(0.13333333,0,0,-0.13333333,0,884)" />
    <path
       id="path8"
       d="m 4417.62,685.23 v 74.422"
       style="fill:none;stroke:#262626;stroke-width:5.0025;stroke-linecap:square;stroke-linejoin:round;stroke-miterlimit:10;stroke-dasharray:none;stroke-opacity:1"
       transform="matrix(0.13333333,0,0,-0.13333333,0,884)" />
    <path
       id="path9"
       d="m 5161.6,685.23 v 74.422"
       style="fill:none;stroke:#262626;stroke-width:5.0025;stroke-linecap:square;stroke-linejoin:round;stroke-miterlimit:10;stroke-dasharray:none;stroke-opacity:1"
       transform="matrix(0.13333333,0,0,-0.13333333,0,884)" />
    <path
       id="path10"
       d="m 5905.63,685.23 v 74.422"
       style="fill:none;stroke:#262626;stroke-width:5.0025;stroke-linecap:square;stroke-linejoin:round;stroke-miterlimit:10;stroke-dasharray:none;stroke-opacity:1"
       transform="matrix(0.13333333,0,0,-0.13333333,0,884)" />
    <path
       id="path11"
       d="m 6649.61,685.23 v 74.422"
       style="fill:none;stroke:#262626;stroke-width:5.0025;stroke-linecap:square;stroke-linejoin:round;stroke-miterlimit:10;stroke-dasharray:none;stroke-opacity:1"
       transform="matrix(0.13333333,0,0,-0.13333333,0,884)" />
    <path
       id="path12"
       d="m 7393.63,685.23 v 74.422"
       style="fill:none;stroke:#262626;stroke-width:5.0025;stroke-linecap:square;stroke-linejoin:round;stroke-miterlimit:10;stroke-dasharray:none;stroke-opacity:1"
       transform="matrix(0.13333333,0,0,-0.13333333,0,884)" />
    <path
       id="path13"
       d="m 8137.62,685.23 v 74.422"
       style="fill:none;stroke:#262626;stroke-width:5.0025;stroke-linecap:square;stroke-linejoin:round;stroke-miterlimit:10;stroke-dasharray:none;stroke-opacity:1"
       transform="matrix(0.13333333,0,0,-0.13333333,0,884)" />
    <path
       id="path14"
       d="m 1441.6,6550.23 v -74.41"
       style="fill:none;stroke:#262626;stroke-width:5.0025;stroke-linecap:square;stroke-linejoin:round;stroke-miterlimit:10;stroke-dasharray:none;stroke-opacity:1"
       transform="matrix(0.13333333,0,0,-0.13333333,0,884)" />
    <path
       id="path15"
       d="m 2185.63,6550.23 v -74.41"
       style="fill:none;stroke:#262626;stroke-width:5.0025;stroke-linecap:square;stroke-linejoin:round;stroke-miterlimit:10;stroke-dasharray:none;stroke-opacity:1"
       transform="matrix(0.13333333,0,0,-0.13333333,0,884)" />
    <path
       id="path16"
       d="m 2929.61,6550.23 v -74.41"
       style="fill:none;stroke:#262626;stroke-width:5.0025;stroke-linecap:square;stroke-linejoin:round;stroke-miterlimit:10;stroke-dasharray:none;stroke-opacity:1"
       transform="matrix(0.13333333,0,0,-0.13333333,0,884)" />
    <path
       id="path17"
       d="m 3673.63,6550.23 v -74.41"
       style="fill:none;stroke:#262626;stroke-width:5.0025;stroke-linecap:square;stroke-linejoin:round;stroke-miterlimit:10;stroke-dasharray:none;stroke-opacity:1"
       transform="matrix(0.13333333,0,0,-0.13333333,0,884)" />
    <path
       id="path18"
       d="m 4417.62,6550.23 v -74.41"
       style="fill:none;stroke:#262626;stroke-width:5.0025;stroke-linecap:square;stroke-linejoin:round;stroke-miterlimit:10;stroke-dasharray:none;stroke-opacity:1"
       transform="matrix(0.13333333,0,0,-0.13333333,0,884)" />
    <path
       id="path19"
       d="m 5161.6,6550.23 v -74.41"
       style="fill:none;stroke:#262626;stroke-width:5.0025;stroke-linecap:square;stroke-linejoin:round;stroke-miterlimit:10;stroke-dasharray:none;stroke-opacity:1"
       transform="matrix(0.13333333,0,0,-0.13333333,0,884)" />
    <path
       id="path20"
       d="m 5905.63,6550.23 v -74.41"
       style="fill:none;stroke:#262626;stroke-width:5.0025;stroke-linecap:square;stroke-linejoin:round;stroke-miterlimit:10;stroke-dasharray:none;stroke-opacity:1"
       transform="matrix(0.13333333,0,0,-0.13333333,0,884)" />
    <path
       id="path21"
       d="m 6649.61,6550.23 v -74.41"
       style="fill:none;stroke:#262626;stroke-width:5.0025;stroke-linecap:square;stroke-linejoin:round;stroke-miterlimit:10;stroke-dasharray:none;stroke-opacity:1"
       transform="matrix(0.13333333,0,0,-0.13333333,0,884)" />
    <path
       id="path22"
       d="m 7393.63,6550.23 v -74.41"
       style="fill:none;stroke:#262626;stroke-width:5.0025;stroke-linecap:square;stroke-linejoin:round;stroke-miterlimit:10;stroke-dasharray:none;stroke-opacity:1"
       transform="matrix(0.13333333,0,0,-0.13333333,0,884)" />
    <path
       id="path23"
       d="m 8137.62,6550.23 v -74.41"
       style="fill:none;stroke:#262626;stroke-width:5.0025;stroke-linecap:square;stroke-linejoin:round;stroke-miterlimit:10;stroke-dasharray:none;stroke-opacity:1"
       transform="matrix(0.13333333,0,0,-0.13333333,0,884)" />
    <path
       id="path24"
       d="m 474.41,614.141 c -14.762,0 -28.359,-6.801 -36.558,-17.809 -10.551,-14.301 -15.704,-35.863 -15.704,-66.102 0,-54.839 18.051,-83.898 52.262,-83.898 33.75,0 52.27,29.059 52.27,82.5 0,31.637 -4.918,52.727 -15.7,67.5 -8.21,11.25 -21.57,17.809 -36.57,17.809 z m 0,-17.582 c 21.328,0 31.879,-21.789 31.879,-65.86 0,-46.398 -10.309,-67.969 -32.34,-67.969 -20.859,0 -31.41,22.5 -31.41,67.27 0,44.77 10.551,66.559 31.871,66.559 z"
       style="fill:#262626;fill-opacity:1;fill-rule:nonzero;stroke:none"
       transform="matrix(0.13333333,0,0,-0.13333333,0,884)" />
    <path
       id="path25"
       d="m 557.34,451.48 h 23.1992 v 23.4414 H 557.34 Z"
       style="fill:#262626;fill-opacity:1;fill-rule:nonzero;stroke:none"
       transform="matrix(0.13333333,0,0,-0.13333333,0,884)" />
    <path
       id="path26"
       d="m 649.922,526.48 h 10.777 c 21.571,0 33.051,-10.308 33.051,-29.761 0,-20.387 -12.191,-32.809 -32.809,-32.809 -21.8,0 -32.351,11.012 -33.75,34.922 H 607.5 c 0.941,-13.133 3.051,-21.801 6.801,-28.832 8.429,-15.699 23.898,-23.668 45.699,-23.668 33.051,0 54.141,19.688 54.141,50.617 0,20.633 -7.969,31.883 -26.95,38.672 14.758,6.098 22.258,17.348 22.258,33.75 0,27.899 -18.277,44.77 -48.75,44.77 -32.109,0 -49.219,-18.051 -49.918,-52.5 h 19.918 c 0.242,10.078 0.942,15.699 3.52,20.629 4.453,9.14 14.301,14.531 26.722,14.531 17.579,0 28.118,-10.551 28.118,-28.129 0,-11.481 -3.981,-18.512 -12.887,-22.262 -5.391,-2.109 -12.422,-3.051 -26.25,-3.289 z"
       style="fill:#262626;fill-opacity:1;fill-rule:nonzero;stroke:none"
       transform="matrix(0.13333333,0,0,-0.13333333,0,884)" />
    <path
       id="path27"
       d="m 839.219,471.172 h -83.91 c 1.882,13.359 9.14,22.027 28.832,33.75 l 22.5,12.66 c 22.269,12.418 33.75,29.059 33.75,49.219 0,13.359 -5.391,26.008 -15,34.679 -9.371,8.68 -21.09,12.661 -36.09,12.661 -20.391,0 -35.391,-7.27 -44.301,-21.09 -5.621,-8.68 -7.969,-18.75 -8.441,-35.16 h 19.691 c 0.699,11.019 2.109,17.578 4.922,22.968 5.156,9.84 15.469,15.942 27.418,15.942 18.051,0 31.41,-13.129 31.41,-30.469 0,-13.133 -7.5,-24.383 -21.559,-32.582 L 777.809,521.801 C 744.531,502.582 734.691,487.34 733.051,451.719 h 106.168 z"
       style="fill:#262626;fill-opacity:1;fill-rule:nonzero;stroke:none"
       transform="matrix(0.13333333,0,0,-0.13333333,0,884)" />
    <path
       id="path28"
       d="M 957.539,611.09 H 875.27 l -11.95,-86.949 h 18.051 c 9.367,11.019 16.867,14.769 29.527,14.769 21.332,0 34.692,-14.539 34.692,-38.211 0,-22.969 -13.36,-36.789 -34.93,-36.789 -17.34,0 -27.89,8.672 -32.57,26.711 h -19.692 c 2.582,-13.121 4.922,-19.449 9.614,-25.07 8.898,-12.192 25.078,-19.219 43.117,-19.219 32.109,0 54.609,23.438 54.609,57.188 0,31.402 -20.859,52.96 -51.328,52.96 -11.25,0 -20.39,-2.808 -29.531,-9.609 l 6.332,44.539 h 66.328 z"
       style="fill:#262626;fill-opacity:1;fill-rule:nonzero;stroke:none"
       transform="matrix(0.13333333,0,0,-0.13333333,0,884)" />
    <path
       id="path29"
       d="m 1284.53,614.141 c -14.76,0 -28.36,-6.801 -36.56,-17.809 -10.55,-14.301 -15.7,-35.863 -15.7,-66.102 0,-54.839 18.04,-83.898 52.26,-83.898 33.75,0 52.27,29.059 52.27,82.5 0,31.637 -4.92,52.727 -15.71,67.5 -8.2,11.25 -21.56,17.809 -36.56,17.809 z m 0,-17.582 c 21.33,0 31.88,-21.789 31.88,-65.86 0,-46.398 -10.32,-67.969 -32.35,-67.969 -20.86,0 -31.4,22.5 -31.4,67.27 0,44.77 10.54,66.559 31.87,66.559 z"
       style="fill:#262626;fill-opacity:1;fill-rule:nonzero;stroke:none"
       transform="matrix(0.13333333,0,0,-0.13333333,0,884)" />
    <path
       id="path30"
       d="m 1367.46,451.48 h 23.1992 v 23.4414 H 1367.46 Z"
       style="fill:#262626;fill-opacity:1;fill-rule:nonzero;stroke:none"
       transform="matrix(0.13333333,0,0,-0.13333333,0,884)" />
    <path
       id="path31"
       d="m 1459.96,526.48 h 10.78 c 21.56,0 33.05,-10.308 33.05,-29.761 0,-20.387 -12.19,-32.809 -32.81,-32.809 -21.8,0 -32.35,11.012 -33.75,34.922 h -19.69 c 0.94,-13.133 3.05,-21.801 6.8,-28.832 8.43,-15.699 23.9,-23.668 45.7,-23.668 33.05,0 54.14,19.688 54.14,50.617 0,20.633 -7.97,31.883 -26.95,38.672 14.76,6.098 22.26,17.348 22.26,33.75 0,27.899 -18.28,44.77 -48.75,44.77 -32.11,0 -49.22,-18.051 -49.92,-52.5 h 19.92 c 0.24,10.078 0.94,15.699 3.52,20.629 4.45,9.14 14.29,14.531 26.72,14.531 17.57,0 28.12,-10.551 28.12,-28.129 0,-11.481 -3.98,-18.512 -12.89,-22.262 -5.39,-2.109 -12.42,-3.051 -26.25,-3.289 z"
       style="fill:#262626;fill-opacity:1;fill-rule:nonzero;stroke:none"
       transform="matrix(0.13333333,0,0,-0.13333333,0,884)" />
    <path
       id="path32"
       d="m 1585.08,526.48 h 10.78 c 21.56,0 33.05,-10.308 33.05,-29.761 0,-20.387 -12.19,-32.809 -32.82,-32.809 -21.79,0 -32.34,11.012 -33.75,34.922 h -19.68 c 0.93,-13.133 3.04,-21.801 6.79,-28.832 8.44,-15.699 23.91,-23.668 45.71,-23.668 33.04,0 54.14,19.688 54.14,50.617 0,20.633 -7.97,31.883 -26.96,38.672 14.77,6.098 22.27,17.348 22.27,33.75 0,27.899 -18.28,44.77 -48.75,44.77 -32.11,0 -49.22,-18.051 -49.92,-52.5 h 19.92 c 0.23,10.078 0.94,15.699 3.52,20.629 4.45,9.14 14.29,14.531 26.71,14.531 17.58,0 28.13,-10.551 28.13,-28.129 0,-11.481 -3.99,-18.512 -12.89,-22.262 -5.39,-2.109 -12.42,-3.051 -26.25,-3.289 z"
       style="fill:#262626;fill-opacity:1;fill-rule:nonzero;stroke:none"
       transform="matrix(0.13333333,0,0,-0.13333333,0,884)" />
    <path
       id="path33"
       d="m 1962.46,614.141 c -14.76,0 -28.36,-6.801 -36.56,-17.809 -10.55,-14.301 -15.7,-35.863 -15.7,-66.102 0,-54.839 18.04,-83.898 52.26,-83.898 33.75,0 52.27,29.059 52.27,82.5 0,31.637 -4.93,52.727 -15.71,67.5 -8.2,11.25 -21.56,17.809 -36.56,17.809 z m 0,-17.582 c 21.33,0 31.88,-21.789 31.88,-65.86 0,-46.398 -10.32,-67.969 -32.35,-67.969 -20.86,0 -31.4,22.5 -31.4,67.27 0,44.77 10.54,66.559 31.87,66.559 z"
       style="fill:#262626;fill-opacity:1;fill-rule:nonzero;stroke:none"
       transform="matrix(0.13333333,0,0,-0.13333333,0,884)" />
    <path
       id="path34"
       d="m 2045.35,451.48 h 23.1992 v 23.4414 H 2045.35 Z"
       style="fill:#262626;fill-opacity:1;fill-rule:nonzero;stroke:none"
       transform="matrix(0.13333333,0,0,-0.13333333,0,884)" />
    <path
       id="path35"
       d="m 2137.89,526.48 h 10.78 c 21.56,0 33.05,-10.308 33.05,-29.761 0,-20.387 -12.19,-32.809 -32.81,-32.809 -21.8,0 -32.35,11.012 -33.75,34.922 h -19.69 c 0.94,-13.133 3.05,-21.801 6.8,-28.832 8.43,-15.699 23.9,-23.668 45.7,-23.668 33.05,0 54.14,19.688 54.14,50.617 0,20.633 -7.97,31.883 -26.95,38.672 14.76,6.098 22.26,17.348 22.26,33.75 0,27.899 -18.28,44.77 -48.75,44.77 -32.11,0 -49.22,-18.051 -49.92,-52.5 h 19.92 c 0.24,10.078 0.94,15.699 3.52,20.629 4.45,9.14 14.29,14.531 26.72,14.531 17.57,0 28.12,-10.551 28.12,-28.129 0,-11.481 -3.98,-18.512 -12.89,-22.262 -5.39,-2.109 -12.42,-3.051 -26.25,-3.289 z"
       style="fill:#262626;fill-opacity:1;fill-rule:nonzero;stroke:none"
       transform="matrix(0.13333333,0,0,-0.13333333,0,884)" />
    <path
       id="path36"
       d="m 2262.97,526.48 h 10.78 c 21.56,0 33.05,-10.308 33.05,-29.761 0,-20.387 -12.19,-32.809 -32.82,-32.809 -21.79,0 -32.34,11.012 -33.75,34.922 h -19.68 c 0.93,-13.133 3.04,-21.801 6.79,-28.832 8.44,-15.699 23.91,-23.668 45.71,-23.668 33.04,0 54.14,19.688 54.14,50.617 0,20.633 -7.97,31.883 -26.96,38.672 14.77,6.098 22.27,17.348 22.27,33.75 0,27.899 -18.28,44.77 -48.75,44.77 -32.11,0 -49.22,-18.051 -49.92,-52.5 h 19.92 c 0.23,10.078 0.94,15.699 3.52,20.629 4.45,9.14 14.29,14.531 26.71,14.531 17.58,0 28.13,-10.551 28.13,-28.129 0,-11.481 -3.98,-18.512 -12.89,-22.262 -5.39,-2.109 -12.42,-3.051 -26.25,-3.289 z"
       style="fill:#262626;fill-opacity:1;fill-rule:nonzero;stroke:none"
       transform="matrix(0.13333333,0,0,-0.13333333,0,884)" />
    <path
       id="path37"
       d="m 2445.51,611.09 h -82.27 l -11.95,-86.949 h 18.05 c 9.37,11.019 16.87,14.769 29.53,14.769 21.33,0 34.68,-14.539 34.68,-38.211 0,-22.969 -13.35,-36.789 -34.92,-36.789 -17.34,0 -27.89,8.672 -32.58,26.711 h -19.68 c 2.58,-13.121 4.92,-19.449 9.61,-25.07 8.9,-12.192 25.07,-19.219 43.12,-19.219 32.11,0 54.61,23.438 54.61,57.188 0,31.402 -20.86,52.96 -51.33,52.96 -11.25,0 -20.39,-2.808 -29.53,-9.609 l 6.33,44.539 h 66.33 z"
       style="fill:#262626;fill-opacity:1;fill-rule:nonzero;stroke:none"
       transform="matrix(0.13333333,0,0,-0.13333333,0,884)" />
    <path
       id="path38"
       d="m 2771.99,614.141 c -14.76,0 -28.36,-6.801 -36.56,-17.809 -10.55,-14.301 -15.7,-35.863 -15.7,-66.102 0,-54.839 18.04,-83.898 52.26,-83.898 33.75,0 52.27,29.059 52.27,82.5 0,31.637 -4.92,52.727 -15.71,67.5 -8.2,11.25 -21.56,17.809 -36.56,17.809 z m 0,-17.582 c 21.33,0 31.88,-21.789 31.88,-65.86 0,-46.398 -10.32,-67.969 -32.35,-67.969 -20.86,0 -31.4,22.5 -31.4,67.27 0,44.77 10.54,66.559 31.87,66.559 z"
       style="fill:#262626;fill-opacity:1;fill-rule:nonzero;stroke:none"
       transform="matrix(0.13333333,0,0,-0.13333333,0,884)" />
    <path
       id="path39"
       d="m 2854.92,451.48 h 23.1992 v 23.4414 H 2854.92 Z"
       style="fill:#262626;fill-opacity:1;fill-rule:nonzero;stroke:none"
       transform="matrix(0.13333333,0,0,-0.13333333,0,884)" />
    <path
       id="path40"
       d="m 2947.5,526.48 h 10.78 c 21.56,0 33.05,-10.308 33.05,-29.761 0,-20.387 -12.19,-32.809 -32.81,-32.809 -21.8,0 -32.35,11.012 -33.75,34.922 h -19.69 c 0.94,-13.133 3.05,-21.801 6.8,-28.832 8.43,-15.699 23.9,-23.668 45.7,-23.668 33.05,0 54.14,19.688 54.14,50.617 0,20.633 -7.97,31.883 -26.95,38.672 14.76,6.098 22.26,17.348 22.26,33.75 0,27.899 -18.28,44.77 -48.75,44.77 -32.11,0 -49.22,-18.051 -49.92,-52.5 h 19.92 c 0.24,10.078 0.94,15.699 3.52,20.629 4.45,9.14 14.29,14.531 26.72,14.531 17.57,0 28.12,-10.551 28.12,-28.129 0,-11.481 -3.98,-18.512 -12.89,-22.262 -5.39,-2.109 -12.42,-3.051 -26.25,-3.289 z"
       style="fill:#262626;fill-opacity:1;fill-rule:nonzero;stroke:none"
       transform="matrix(0.13333333,0,0,-0.13333333,0,884)" />
    <path
       id="path41"
       d="M 3096.48,490.859 V 451.48 h 19.69 v 39.379 h 23.67 v 17.813 h -23.67 v 105.469 h -14.53 l -72.42,-102.422 v -20.86 z m 0,17.813 h -49.92 l 49.92,71.719 z"
       style="fill:#262626;fill-opacity:1;fill-rule:nonzero;stroke:none"
       transform="matrix(0.13333333,0,0,-0.13333333,0,884)" />
    <path
       id="path42"
       d="m 3450.47,614.141 c -14.77,0 -28.36,-6.801 -36.56,-17.809 -10.55,-14.301 -15.71,-35.863 -15.71,-66.102 0,-54.839 18.05,-83.898 52.27,-83.898 33.75,0 52.26,29.059 52.26,82.5 0,31.637 -4.92,52.727 -15.7,67.5 -8.2,11.25 -21.56,17.809 -36.56,17.809 z m 0,-17.582 c 21.33,0 31.87,-21.789 31.87,-65.86 0,-46.398 -10.31,-67.969 -32.34,-67.969 -20.86,0 -31.41,22.5 -31.41,67.27 0,44.77 10.55,66.559 31.88,66.559 z"
       style="fill:#262626;fill-opacity:1;fill-rule:nonzero;stroke:none"
       transform="matrix(0.13333333,0,0,-0.13333333,0,884)" />
    <path
       id="path43"
       d="m 3533.36,451.48 h 23.1992 v 23.4414 H 3533.36 Z"
       style="fill:#262626;fill-opacity:1;fill-rule:nonzero;stroke:none"
       transform="matrix(0.13333333,0,0,-0.13333333,0,884)" />
    <path
       id="path44"
       d="m 3625.9,526.48 h 10.78 c 21.56,0 33.05,-10.308 33.05,-29.761 0,-20.387 -12.19,-32.809 -32.82,-32.809 -21.79,0 -32.34,11.012 -33.75,34.922 h -19.68 c 0.93,-13.133 3.04,-21.801 6.79,-28.832 8.44,-15.699 23.91,-23.668 45.71,-23.668 33.04,0 54.14,19.688 54.14,50.617 0,20.633 -7.97,31.883 -26.96,38.672 14.77,6.098 22.27,17.348 22.27,33.75 0,27.899 -18.28,44.77 -48.75,44.77 -32.11,0 -49.22,-18.051 -49.92,-52.5 h 19.92 c 0.23,10.078 0.94,15.699 3.52,20.629 4.45,9.14 14.29,14.531 26.71,14.531 17.58,0 28.13,-10.551 28.13,-28.129 0,-11.481 -3.99,-18.512 -12.89,-22.262 -5.39,-2.109 -12.42,-3.051 -26.25,-3.289 z"
       style="fill:#262626;fill-opacity:1;fill-rule:nonzero;stroke:none"
       transform="matrix(0.13333333,0,0,-0.13333333,0,884)" />
    <path
       id="path45"
       d="M 3774.88,490.859 V 451.48 h 19.69 v 39.379 h 23.67 v 17.813 h -23.67 v 105.469 h -14.53 l -72.42,-102.422 v -20.86 z m 0,17.813 h -49.92 l 49.92,71.719 z"
       style="fill:#262626;fill-opacity:1;fill-rule:nonzero;stroke:none"
       transform="matrix(0.13333333,0,0,-0.13333333,0,884)" />
    <path
       id="path46"
       d="m 3933.52,611.09 h -82.27 l -11.95,-86.949 h 18.04 c 9.38,11.019 16.88,14.769 29.54,14.769 21.32,0 34.68,-14.539 34.68,-38.211 0,-22.969 -13.36,-36.789 -34.92,-36.789 -17.34,0 -27.89,8.672 -32.58,26.711 h -19.68 c 2.57,-13.121 4.92,-19.449 9.6,-25.07 8.91,-12.192 25.08,-19.219 43.13,-19.219 32.11,0 54.61,23.438 54.61,57.188 0,31.402 -20.86,52.96 -51.33,52.96 -11.25,0 -20.39,-2.808 -29.53,-9.609 l 6.33,44.539 h 66.33 z"
       style="fill:#262626;fill-opacity:1;fill-rule:nonzero;stroke:none"
       transform="matrix(0.13333333,0,0,-0.13333333,0,884)" />
    <path
       id="path47"
       d="m 4260.27,614.141 c -14.76,0 -28.36,-6.801 -36.56,-17.809 -10.55,-14.301 -15.7,-35.863 -15.7,-66.102 0,-54.839 18.04,-83.898 52.26,-83.898 33.75,0 52.27,29.059 52.27,82.5 0,31.637 -4.92,52.727 -15.7,67.5 -8.21,11.25 -21.57,17.809 -36.57,17.809 z m 0,-17.582 c 21.33,0 31.88,-21.789 31.88,-65.86 0,-46.398 -10.31,-67.969 -32.35,-67.969 -20.85,0 -31.4,22.5 -31.4,67.27 0,44.77 10.55,66.559 31.87,66.559 z"
       style="fill:#262626;fill-opacity:1;fill-rule:nonzero;stroke:none"
       transform="matrix(0.13333333,0,0,-0.13333333,0,884)" />
    <path
       id="path48"
       d="m 4343.2,451.48 h 23.1992 v 23.4414 H 4343.2 Z"
       style="fill:#262626;fill-opacity:1;fill-rule:nonzero;stroke:none"
       transform="matrix(0.13333333,0,0,-0.13333333,0,884)" />
    <path
       id="path49"
       d="m 4435.78,526.48 h 10.78 c 21.57,0 33.05,-10.308 33.05,-29.761 0,-20.387 -12.19,-32.809 -32.81,-32.809 -21.8,0 -32.35,11.012 -33.75,34.922 h -19.69 c 0.94,-13.133 3.05,-21.801 6.8,-28.832 8.43,-15.699 23.9,-23.668 45.7,-23.668 33.05,0 54.14,19.688 54.14,50.617 0,20.633 -7.97,31.883 -26.95,38.672 14.76,6.098 22.26,17.348 22.26,33.75 0,27.899 -18.28,44.77 -48.75,44.77 -32.11,0 -49.22,-18.051 -49.92,-52.5 h 19.92 c 0.24,10.078 0.94,15.699 3.52,20.629 4.45,9.14 14.3,14.531 26.72,14.531 17.58,0 28.12,-10.551 28.12,-28.129 0,-11.481 -3.98,-18.512 -12.89,-22.262 -5.39,-2.109 -12.42,-3.051 -26.25,-3.289 z"
       style="fill:#262626;fill-opacity:1;fill-rule:nonzero;stroke:none"
       transform="matrix(0.13333333,0,0,-0.13333333,0,884)" />
    <path
       id="path50"
       d="m 4618.28,611.09 h -82.26 l -11.96,-86.949 h 18.05 c 9.37,11.019 16.87,14.769 29.53,14.769 21.33,0 34.69,-14.539 34.69,-38.211 0,-22.969 -13.36,-36.789 -34.92,-36.789 -17.35,0 -27.89,8.672 -32.58,26.711 h -19.69 c 2.58,-13.121 4.92,-19.449 9.61,-25.07 8.91,-12.192 25.08,-19.219 43.13,-19.219 32.1,0 54.6,23.438 54.6,57.188 0,31.402 -20.85,52.96 -51.32,52.96 -11.25,0 -20.39,-2.808 -29.53,-9.609 l 6.32,44.539 h 66.33 z"
       style="fill:#262626;fill-opacity:1;fill-rule:nonzero;stroke:none"
       transform="matrix(0.13333333,0,0,-0.13333333,0,884)" />
    <path
       id="path51"
       d="m 4938.4,614.141 c -14.77,0 -28.36,-6.801 -36.56,-17.809 -10.55,-14.301 -15.71,-35.863 -15.71,-66.102 0,-54.839 18.05,-83.898 52.27,-83.898 33.75,0 52.26,29.059 52.26,82.5 0,31.637 -4.92,52.727 -15.7,67.5 -8.2,11.25 -21.56,17.809 -36.56,17.809 z m 0,-17.582 c 21.33,0 31.87,-21.789 31.87,-65.86 0,-46.398 -10.31,-67.969 -32.34,-67.969 -20.86,0 -31.41,22.5 -31.41,67.27 0,44.77 10.55,66.559 31.88,66.559 z"
       style="fill:#262626;fill-opacity:1;fill-rule:nonzero;stroke:none"
       transform="matrix(0.13333333,0,0,-0.13333333,0,884)" />
    <path
       id="path52"
       d="m 5021.33,451.48 h 23.1992 v 23.4414 H 5021.33 Z"
       style="fill:#262626;fill-opacity:1;fill-rule:nonzero;stroke:none"
       transform="matrix(0.13333333,0,0,-0.13333333,0,884)" />
    <path
       id="path53"
       d="m 5113.91,526.48 h 10.78 c 21.56,0 33.04,-10.308 33.04,-29.761 0,-20.387 -12.18,-32.809 -32.81,-32.809 -21.79,0 -32.34,11.012 -33.75,34.922 h -19.69 c 0.94,-13.133 3.05,-21.801 6.8,-28.832 8.44,-15.699 23.91,-23.668 45.7,-23.668 33.05,0 54.15,19.688 54.15,50.617 0,20.633 -7.97,31.883 -26.96,38.672 14.77,6.098 22.27,17.348 22.27,33.75 0,27.899 -18.28,44.77 -48.75,44.77 -32.11,0 -49.22,-18.051 -49.92,-52.5 h 19.92 c 0.23,10.078 0.94,15.699 3.51,20.629 4.46,9.14 14.3,14.531 26.72,14.531 17.58,0 28.13,-10.551 28.13,-28.129 0,-11.481 -3.99,-18.512 -12.89,-22.262 -5.39,-2.109 -12.43,-3.051 -26.25,-3.289 z"
       style="fill:#262626;fill-opacity:1;fill-rule:nonzero;stroke:none"
       transform="matrix(0.13333333,0,0,-0.13333333,0,884)" />
    <path
       id="path54"
       d="m 5296.41,611.09 h -82.27 l -11.95,-86.949 h 18.04 c 9.38,11.019 16.88,14.769 29.54,14.769 21.32,0 34.68,-14.539 34.68,-38.211 0,-22.969 -13.36,-36.789 -34.92,-36.789 -17.34,0 -27.89,8.672 -32.58,26.711 h -19.68 c 2.57,-13.121 4.92,-19.449 9.61,-25.07 8.9,-12.192 25.07,-19.219 43.12,-19.219 32.11,0 54.61,23.438 54.61,57.188 0,31.402 -20.86,52.96 -51.33,52.96 -11.25,0 -20.39,-2.808 -29.53,-9.609 l 6.33,44.539 h 66.33 z"
       style="fill:#262626;fill-opacity:1;fill-rule:nonzero;stroke:none"
       transform="matrix(0.13333333,0,0,-0.13333333,0,884)" />
    <path
       id="path55"
       d="m 5421.52,611.09 h -82.26 l -11.96,-86.949 h 18.05 c 9.38,11.019 16.88,14.769 29.53,14.769 21.33,0 34.69,-14.539 34.69,-38.211 0,-22.969 -13.36,-36.789 -34.92,-36.789 -17.35,0 -27.89,8.672 -32.58,26.711 h -19.69 c 2.58,-13.121 4.92,-19.449 9.61,-25.07 8.91,-12.192 25.08,-19.219 43.13,-19.219 32.11,0 54.61,23.438 54.61,57.188 0,31.402 -20.86,52.96 -51.33,52.96 -11.25,0 -20.39,-2.808 -29.53,-9.609 l 6.33,44.539 h 66.32 z"
       style="fill:#262626;fill-opacity:1;fill-rule:nonzero;stroke:none"
       transform="matrix(0.13333333,0,0,-0.13333333,0,884)" />
    <path
       id="path56"
       d="m 5748.28,614.141 c -14.76,0 -28.36,-6.801 -36.56,-17.809 -10.55,-14.301 -15.7,-35.863 -15.7,-66.102 0,-54.839 18.04,-83.898 52.26,-83.898 33.75,0 52.27,29.059 52.27,82.5 0,31.637 -4.92,52.727 -15.71,67.5 -8.2,11.25 -21.56,17.809 -36.56,17.809 z m 0,-17.582 c 21.33,0 31.88,-21.789 31.88,-65.86 0,-46.398 -10.32,-67.969 -32.35,-67.969 -20.86,0 -31.4,22.5 -31.4,67.27 0,44.77 10.54,66.559 31.87,66.559 z"
       style="fill:#262626;fill-opacity:1;fill-rule:nonzero;stroke:none"
       transform="matrix(0.13333333,0,0,-0.13333333,0,884)" />
    <path
       id="path57"
       d="m 5831.21,451.48 h 23.1992 v 23.4414 H 5831.21 Z"
       style="fill:#262626;fill-opacity:1;fill-rule:nonzero;stroke:none"
       transform="matrix(0.13333333,0,0,-0.13333333,0,884)" />
    <path
       id="path58"
       d="m 5923.71,526.48 h 10.78 c 21.56,0 33.05,-10.308 33.05,-29.761 0,-20.387 -12.19,-32.809 -32.81,-32.809 -21.8,0 -32.35,11.012 -33.75,34.922 h -19.69 c 0.94,-13.133 3.05,-21.801 6.8,-28.832 8.43,-15.699 23.9,-23.668 45.7,-23.668 33.05,0 54.14,19.688 54.14,50.617 0,20.633 -7.97,31.883 -26.95,38.672 14.76,6.098 22.26,17.348 22.26,33.75 0,27.899 -18.28,44.77 -48.75,44.77 -32.11,0 -49.22,-18.051 -49.92,-52.5 h 19.92 c 0.24,10.078 0.94,15.699 3.52,20.629 4.45,9.14 14.29,14.531 26.72,14.531 17.57,0 28.12,-10.551 28.12,-28.129 0,-11.481 -3.98,-18.512 -12.89,-22.262 -5.39,-2.109 -12.42,-3.051 -26.25,-3.289 z"
       style="fill:#262626;fill-opacity:1;fill-rule:nonzero;stroke:none"
       transform="matrix(0.13333333,0,0,-0.13333333,0,884)" />
    <path
       id="path59"
       d="m 6111.21,571.949 c -3.75,26.492 -20.86,42.192 -45.23,42.192 -17.58,0 -33.28,-8.442 -42.66,-23.2 -10.08,-15.941 -14.53,-35.632 -14.53,-65.16 0,-27.422 3.98,-44.761 13.59,-59.301 8.44,-13.121 22.5,-20.148 40.08,-20.148 30.24,0 52.03,22.727 52.03,54.367 0,30 -20.15,51.102 -48.75,51.102 -15.7,0 -28.12,-5.86 -36.56,-17.821 0.23,40.321 12.66,62.579 35.39,62.579 14.06,0 23.67,-8.899 26.95,-24.61 z m -47.81,-37.73 c 18.98,0 30.94,-13.36 30.94,-34.918 0,-20.629 -13.6,-35.391 -31.64,-35.391 -18.52,0 -32.58,15.461 -32.58,36.09 0,20.391 13.59,34.219 33.28,34.219 z"
       style="fill:#262626;fill-opacity:1;fill-rule:nonzero;stroke:none"
       transform="matrix(0.13333333,0,0,-0.13333333,0,884)" />
    <path
       id="path60"
       d="m 6426.41,614.141 c -14.77,0 -28.36,-6.801 -36.57,-17.809 -10.54,-14.301 -15.7,-35.863 -15.7,-66.102 0,-54.839 18.05,-83.898 52.27,-83.898 33.75,0 52.26,29.059 52.26,82.5 0,31.637 -4.92,52.727 -15.7,67.5 -8.2,11.25 -21.56,17.809 -36.56,17.809 z m 0,-17.582 c 21.32,0 31.87,-21.789 31.87,-65.86 0,-46.398 -10.31,-67.969 -32.34,-67.969 -20.86,0 -31.41,22.5 -31.41,67.27 0,44.77 10.55,66.559 31.88,66.559 z"
       style="fill:#262626;fill-opacity:1;fill-rule:nonzero;stroke:none"
       transform="matrix(0.13333333,0,0,-0.13333333,0,884)" />
    <path
       id="path61"
       d="m 6509.34,451.48 h 23.1992 v 23.4414 H 6509.34 Z"
       style="fill:#262626;fill-opacity:1;fill-rule:nonzero;stroke:none"
       transform="matrix(0.13333333,0,0,-0.13333333,0,884)" />
    <path
       id="path62"
       d="m 6601.91,526.48 h 10.79 c 21.56,0 33.04,-10.308 33.04,-29.761 0,-20.387 -12.19,-32.809 -32.81,-32.809 -21.8,0 -32.34,11.012 -33.75,34.922 h -19.69 c 0.94,-13.133 3.05,-21.801 6.8,-28.832 8.44,-15.699 23.91,-23.668 45.7,-23.668 33.05,0 54.14,19.688 54.14,50.617 0,20.633 -7.97,31.883 -26.95,38.672 14.77,6.098 22.27,17.348 22.27,33.75 0,27.899 -18.29,44.77 -48.75,44.77 -32.11,0 -49.22,-18.051 -49.93,-52.5 h 19.93 c 0.23,10.078 0.93,15.699 3.51,20.629 4.45,9.14 14.3,14.531 26.72,14.531 17.58,0 28.12,-10.551 28.12,-28.129 0,-11.481 -3.98,-18.512 -12.89,-22.262 -5.39,-2.109 -12.42,-3.051 -26.25,-3.289 z"
       style="fill:#262626;fill-opacity:1;fill-rule:nonzero;stroke:none"
       transform="matrix(0.13333333,0,0,-0.13333333,0,884)" />
    <path
       id="path63"
       d="m 6789.34,571.949 c -3.75,26.492 -20.86,42.192 -45.24,42.192 -17.58,0 -33.28,-8.442 -42.65,-23.2 -10.08,-15.941 -14.54,-35.632 -14.54,-65.16 0,-27.422 3.99,-44.761 13.6,-59.301 8.44,-13.121 22.5,-20.148 40.08,-20.148 30.23,0 52.03,22.727 52.03,54.367 0,30 -20.16,51.102 -48.75,51.102 -15.71,0 -28.13,-5.86 -36.57,-17.821 0.24,40.321 12.66,62.579 35.4,62.579 14.06,0 23.67,-8.899 26.95,-24.61 z m -47.82,-37.73 c 18.99,0 30.94,-13.36 30.94,-34.918 0,-20.629 -13.59,-35.391 -31.64,-35.391 -18.52,0 -32.58,15.461 -32.58,36.09 0,20.391 13.6,34.219 33.28,34.219 z"
       style="fill:#262626;fill-opacity:1;fill-rule:nonzero;stroke:none"
       transform="matrix(0.13333333,0,0,-0.13333333,0,884)" />
    <path
       id="path64"
       d="m 6909.53,611.09 h -82.26 l -11.96,-86.949 h 18.05 c 9.37,11.019 16.87,14.769 29.53,14.769 21.33,0 34.69,-14.539 34.69,-38.211 0,-22.969 -13.36,-36.789 -34.92,-36.789 -17.35,0 -27.89,8.672 -32.58,26.711 h -19.69 c 2.58,-13.121 4.92,-19.449 9.61,-25.07 8.91,-12.192 25.08,-19.219 43.13,-19.219 32.1,0 54.6,23.438 54.6,57.188 0,31.402 -20.85,52.96 -51.32,52.96 -11.25,0 -20.39,-2.808 -29.53,-9.609 l 6.32,44.539 h 66.33 z"
       style="fill:#262626;fill-opacity:1;fill-rule:nonzero;stroke:none"
       transform="matrix(0.13333333,0,0,-0.13333333,0,884)" />
    <path
       id="path65"
       d="m 7236.02,614.141 c -14.77,0 -28.36,-6.801 -36.57,-17.809 -10.54,-14.301 -15.7,-35.863 -15.7,-66.102 0,-54.839 18.05,-83.898 52.27,-83.898 33.75,0 52.26,29.059 52.26,82.5 0,31.637 -4.92,52.727 -15.7,67.5 -8.2,11.25 -21.56,17.809 -36.56,17.809 z m 0,-17.582 c 21.32,0 31.87,-21.789 31.87,-65.86 0,-46.398 -10.31,-67.969 -32.34,-67.969 -20.86,0 -31.41,22.5 -31.41,67.27 0,44.77 10.55,66.559 31.88,66.559 z"
       style="fill:#262626;fill-opacity:1;fill-rule:nonzero;stroke:none"
       transform="matrix(0.13333333,0,0,-0.13333333,0,884)" />
    <path
       id="path66"
       d="m 7318.95,451.48 h 23.1992 v 23.4414 H 7318.95 Z"
       style="fill:#262626;fill-opacity:1;fill-rule:nonzero;stroke:none"
       transform="matrix(0.13333333,0,0,-0.13333333,0,884)" />
    <path
       id="path67"
       d="m 7411.45,526.48 h 10.78 c 21.56,0 33.04,-10.308 33.04,-29.761 0,-20.387 -12.18,-32.809 -32.81,-32.809 -21.8,0 -32.34,11.012 -33.75,34.922 h -19.69 c 0.94,-13.133 3.05,-21.801 6.8,-28.832 8.44,-15.699 23.91,-23.668 45.7,-23.668 33.05,0 54.14,19.688 54.14,50.617 0,20.633 -7.96,31.883 -26.95,38.672 14.77,6.098 22.27,17.348 22.27,33.75 0,27.899 -18.28,44.77 -48.75,44.77 -32.11,0 -49.22,-18.051 -49.93,-52.5 h 19.93 c 0.23,10.078 0.93,15.699 3.51,20.629 4.46,9.14 14.3,14.531 26.72,14.531 17.58,0 28.13,-10.551 28.13,-28.129 0,-11.481 -3.99,-18.512 -12.89,-22.262 -5.4,-2.109 -12.43,-3.051 -26.25,-3.289 z"
       style="fill:#262626;fill-opacity:1;fill-rule:nonzero;stroke:none"
       transform="matrix(0.13333333,0,0,-0.13333333,0,884)" />
    <path
       id="path68"
       d="m 7603.83,611.09 h -106.64 v -19.68 h 86.25 c -37.97,-54.14 -53.67,-87.43 -65.63,-139.93 h 21.33 c 8.67,51.102 28.83,94.93 64.69,142.969 z"
       style="fill:#262626;fill-opacity:1;fill-rule:nonzero;stroke:none"
       transform="matrix(0.13333333,0,0,-0.13333333,0,884)" />
    <path
       id="path69"
       d="m 7914.41,614.141 c -14.76,0 -28.36,-6.801 -36.56,-17.809 -10.55,-14.301 -15.7,-35.863 -15.7,-66.102 0,-54.839 18.05,-83.898 52.26,-83.898 33.75,0 52.27,29.059 52.27,82.5 0,31.637 -4.92,52.727 -15.7,67.5 -8.21,11.25 -21.57,17.809 -36.57,17.809 z m 0,-17.582 c 21.33,0 31.88,-21.789 31.88,-65.86 0,-46.398 -10.31,-67.969 -32.34,-67.969 -20.86,0 -31.41,22.5 -31.41,67.27 0,44.77 10.55,66.559 31.87,66.559 z"
       style="fill:#262626;fill-opacity:1;fill-rule:nonzero;stroke:none"
       transform="matrix(0.13333333,0,0,-0.13333333,0,884)" />
    <path
       id="path70"
       d="m 7997.34,451.48 h 23.1992 v 23.4414 H 7997.34 Z"
       style="fill:#262626;fill-opacity:1;fill-rule:nonzero;stroke:none"
       transform="matrix(0.13333333,0,0,-0.13333333,0,884)" />
    <path
       id="path71"
       d="m 8089.92,526.48 h 10.78 c 21.57,0 33.05,-10.308 33.05,-29.761 0,-20.387 -12.19,-32.809 -32.81,-32.809 -21.8,0 -32.35,11.012 -33.75,34.922 h -19.69 c 0.94,-13.133 3.05,-21.801 6.8,-28.832 8.43,-15.699 23.9,-23.668 45.7,-23.668 33.05,0 54.14,19.688 54.14,50.617 0,20.633 -7.97,31.883 -26.95,38.672 14.76,6.098 22.26,17.348 22.26,33.75 0,27.899 -18.28,44.77 -48.75,44.77 -32.11,0 -49.22,-18.051 -49.92,-52.5 h 19.92 c 0.24,10.078 0.94,15.699 3.52,20.629 4.45,9.14 14.3,14.531 26.72,14.531 17.58,0 28.12,-10.551 28.12,-28.129 0,-11.481 -3.98,-18.512 -12.89,-22.262 -5.39,-2.109 -12.42,-3.051 -26.25,-3.289 z"
       style="fill:#262626;fill-opacity:1;fill-rule:nonzero;stroke:none"
       transform="matrix(0.13333333,0,0,-0.13333333,0,884)" />
    <path
       id="path72"
       d="m 8282.27,611.09 h -106.64 v -19.68 h 86.25 c -37.97,-54.14 -53.68,-87.43 -65.63,-139.93 h 21.33 c 8.67,51.102 28.83,94.93 64.69,142.969 z"
       style="fill:#262626;fill-opacity:1;fill-rule:nonzero;stroke:none"
       transform="matrix(0.13333333,0,0,-0.13333333,0,884)" />
    <path
       id="path73"
       d="m 8397.54,611.09 h -82.27 l -11.95,-86.949 h 18.05 c 9.37,11.019 16.87,14.769 29.53,14.769 21.33,0 34.69,-14.539 34.69,-38.211 0,-22.969 -13.36,-36.789 -34.93,-36.789 -17.34,0 -27.89,8.672 -32.57,26.711 h -19.69 c 2.58,-13.121 4.92,-19.449 9.61,-25.07 8.9,-12.192 25.08,-19.219 43.12,-19.219 32.11,0 54.61,23.438 54.61,57.188 0,31.402 -20.86,52.96 -51.33,52.96 -11.25,0 -20.39,-2.808 -29.53,-9.609 l 6.33,44.539 h 66.33 z"
       style="fill:#262626;fill-opacity:1;fill-rule:nonzero;stroke:none"
       transform="matrix(0.13333333,0,0,-0.13333333,0,884)" />
    <path
       id="path74"
       d="m 4371.13,18.1211 c 0,4.9297 2.11,9.5 6.33,13.7187 l 139.22,136.7502 -48.87,137.82 c -3.98,10.309 -8.08,18.629 -12.3,24.84 -4.22,6.09 -10.43,9.262 -18.63,9.262 -3.75,0 -5.63,2.109 -5.63,6.328 0.47,1.871 1.37,3.39 2.7,4.57 1.28,1.172 2.93,1.75 5.03,1.75 34.69,0 55.55,-10.191 62.58,-30.578 L 4602.11,41.6797 c 4.45,-13.8281 8.91,-23.1992 13.36,-28.1289 1.64,-2.3399 2.46,-3.98049 2.46,-4.92189 0,-3.03907 -1.29,-4.57032 -3.87,-4.57032 h -26.72 c -8.2,2.35157 -14.76,9.49221 -19.68,21.45311 l -45,126.9103 -119.89,-140.6212 c -5.86,-5.85939 -11.13,-8.78908 -15.82,-8.78908 -4.22,0 -7.97,1.51953 -11.01,4.32812 -3.28,3.05076 -4.81,6.57036 -4.81,10.78126"
       style="fill:#262626;fill-opacity:1;fill-rule:nonzero;stroke:none"
       transform="matrix(0.13333333,0,0,-0.13333333,0,884)" />
    <path
       id="path75"
       d="m 697.621,685.23 v 5865"
       style="fill:none;stroke:#262626;stroke-width:5.0025;stroke-linecap:square;stroke-linejoin:round;stroke-miterlimit:10;stroke-dasharray:none;stroke-opacity:1"
       transform="matrix(0.13333333,0,0,-0.13333333,0,884)" />
    <path
       id="path76"
       d="m 8137.62,685.23 v 5865"
       style="fill:none;stroke:#262626;stroke-width:5.0025;stroke-linecap:square;stroke-linejoin:round;stroke-miterlimit:10;stroke-dasharray:none;stroke-opacity:1"
       transform="matrix(0.13333333,0,0,-0.13333333,0,884)" />
    <path
       id="path77"
       d="m 697.621,685.23 h 74.41"
       style="fill:none;stroke:#262626;stroke-width:5.0025;stroke-linecap:square;stroke-linejoin:round;stroke-miterlimit:10;stroke-dasharray:none;stroke-opacity:1"
       transform="matrix(0.13333333,0,0,-0.13333333,0,884)" />
    <path
       id="path78"
       d="m 697.621,1662.73 h 74.41"
       style="fill:none;stroke:#262626;stroke-width:5.0025;stroke-linecap:square;stroke-linejoin:round;stroke-miterlimit:10;stroke-dasharray:none;stroke-opacity:1"
       transform="matrix(0.13333333,0,0,-0.13333333,0,884)" />
    <path
       id="path79"
       d="m 697.621,2640.23 h 74.41"
       style="fill:none;stroke:#262626;stroke-width:5.0025;stroke-linecap:square;stroke-linejoin:round;stroke-miterlimit:10;stroke-dasharray:none;stroke-opacity:1"
       transform="matrix(0.13333333,0,0,-0.13333333,0,884)" />
    <path
       id="path80"
       d="m 697.621,3617.73 h 74.41"
       style="fill:none;stroke:#262626;stroke-width:5.0025;stroke-linecap:square;stroke-linejoin:round;stroke-miterlimit:10;stroke-dasharray:none;stroke-opacity:1"
       transform="matrix(0.13333333,0,0,-0.13333333,0,884)" />
    <path
       id="path81"
       d="m 697.621,4595.23 h 74.41"
       style="fill:none;stroke:#262626;stroke-width:5.0025;stroke-linecap:square;stroke-linejoin:round;stroke-miterlimit:10;stroke-dasharray:none;stroke-opacity:1"
       transform="matrix(0.13333333,0,0,-0.13333333,0,884)" />
    <path
       id="path82"
       d="m 697.621,5572.73 h 74.41"
       style="fill:none;stroke:#262626;stroke-width:5.0025;stroke-linecap:square;stroke-linejoin:round;stroke-miterlimit:10;stroke-dasharray:none;stroke-opacity:1"
       transform="matrix(0.13333333,0,0,-0.13333333,0,884)" />
    <path
       id="path83"
       d="m 697.621,6550.23 h 74.41"
       style="fill:none;stroke:#262626;stroke-width:5.0025;stroke-linecap:square;stroke-linejoin:round;stroke-miterlimit:10;stroke-dasharray:none;stroke-opacity:1"
       transform="matrix(0.13333333,0,0,-0.13333333,0,884)" />
    <path
       id="path84"
       d="M 8137.62,685.23 H 8063.2"
       style="fill:none;stroke:#262626;stroke-width:5.0025;stroke-linecap:square;stroke-linejoin:round;stroke-miterlimit:10;stroke-dasharray:none;stroke-opacity:1"
       transform="matrix(0.13333333,0,0,-0.13333333,0,884)" />
    <path
       id="path85"
       d="M 8137.62,1662.73 H 8063.2"
       style="fill:none;stroke:#262626;stroke-width:5.0025;stroke-linecap:square;stroke-linejoin:round;stroke-miterlimit:10;stroke-dasharray:none;stroke-opacity:1"
       transform="matrix(0.13333333,0,0,-0.13333333,0,884)" />
    <path
       id="path86"
       d="M 8137.62,2640.23 H 8063.2"
       style="fill:none;stroke:#262626;stroke-width:5.0025;stroke-linecap:square;stroke-linejoin:round;stroke-miterlimit:10;stroke-dasharray:none;stroke-opacity:1"
       transform="matrix(0.13333333,0,0,-0.13333333,0,884)" />
    <path
       id="path87"
       d="M 8137.62,3617.73 H 8063.2"
       style="fill:none;stroke:#262626;stroke-width:5.0025;stroke-linecap:square;stroke-linejoin:round;stroke-miterlimit:10;stroke-dasharray:none;stroke-opacity:1"
       transform="matrix(0.13333333,0,0,-0.13333333,0,884)" />
    <path
       id="path88"
       d="M 8137.62,4595.23 H 8063.2"
       style="fill:none;stroke:#262626;stroke-width:5.0025;stroke-linecap:square;stroke-linejoin:round;stroke-miterlimit:10;stroke-dasharray:none;stroke-opacity:1"
       transform="matrix(0.13333333,0,0,-0.13333333,0,884)" />
    <path
       id="path89"
       d="M 8137.62,5572.73 H 8063.2"
       style="fill:none;stroke:#262626;stroke-width:5.0025;stroke-linecap:square;stroke-linejoin:round;stroke-miterlimit:10;stroke-dasharray:none;stroke-opacity:1"
       transform="matrix(0.13333333,0,0,-0.13333333,0,884)" />
    <path
       id="path90"
       d="M 8137.62,6550.23 H 8063.2"
       style="fill:none;stroke:#262626;stroke-width:5.0025;stroke-linecap:square;stroke-linejoin:round;stroke-miterlimit:10;stroke-dasharray:none;stroke-opacity:1"
       transform="matrix(0.13333333,0,0,-0.13333333,0,884)" />
    <path
       id="path91"
       d="m 569.801,848.75 c -14.762,0 -28.352,-6.801 -36.563,-17.809 -10.539,-14.3 -15.699,-35.859 -15.699,-66.101 0,-54.84 18.051,-83.899 52.262,-83.899 33.75,0 52.269,29.059 52.269,82.5 0,31.641 -4.922,52.731 -15.699,67.5 -8.211,11.25 -21.57,17.809 -36.57,17.809 z m 0,-17.578 c 21.328,0 31.879,-21.801 31.879,-65.863 0,-46.399 -10.309,-67.969 -32.34,-67.969 -20.86,0 -31.41,22.5 -31.41,67.269 0,44.762 10.55,66.563 31.871,66.563 z"
       style="fill:#262626;fill-opacity:1;fill-rule:nonzero;stroke:none"
       transform="matrix(0.13333333,0,0,-0.13333333,0,884)" />
    <path
       id="path92"
       d="m 651.051,1595.27 h -83.903 c 1.872,13.36 9.141,22.03 28.832,33.75 l 22.5,12.66 c 22.258,12.42 33.75,29.06 33.75,49.22 0,13.36 -5.39,26.01 -15,34.69 -9.378,8.67 -21.101,12.65 -36.101,12.65 -20.391,0 -35.391,-7.26 -44.289,-21.09 -5.629,-8.67 -7.969,-18.75 -8.442,-35.16 h 19.692 c 0.699,11.02 2.109,17.58 4.922,22.97 5.148,9.84 15.468,15.94 27.418,15.94 18.05,0 31.41,-13.13 31.41,-30.47 0,-13.13 -7.5,-24.38 -21.57,-32.58 l -20.622,-11.95 c -33.277,-19.22 -43.128,-34.45 -44.769,-70.08 h 106.172 z"
       style="fill:#262626;fill-opacity:1;fill-rule:nonzero;stroke:none"
       transform="matrix(0.13333333,0,0,-0.13333333,0,884)" />
    <path
       id="path93"
       d="m 610.66,2592.5 v -39.38 h 19.692 v 39.38 h 23.668 v 17.81 h -23.668 v 105.47 H 615.82 l -72.422,-102.42 v -20.86 z m 0,17.81 h -49.922 l 49.922,71.72 z"
       style="fill:#262626;fill-opacity:1;fill-rule:nonzero;stroke:none"
       transform="matrix(0.13333333,0,0,-0.13333333,0,884)" />
    <path
       id="path94"
       d="m 648.828,3651.95 c -3.75,26.49 -20.859,42.19 -45.238,42.19 -17.57,0 -33.281,-8.44 -42.649,-23.2 -10.082,-15.94 -14.531,-35.63 -14.531,-65.16 0,-27.42 3.981,-44.76 13.59,-59.3 8.441,-13.12 22.5,-20.15 40.078,-20.15 30.231,0 52.031,22.73 52.031,54.37 0,30 -20.16,51.1 -48.75,51.1 -15.699,0 -28.129,-5.86 -36.558,-17.82 0.23,40.32 12.648,62.58 35.39,62.58 14.059,0 23.668,-8.9 26.95,-24.61 z m -47.808,-37.73 c 18.98,0 30.929,-13.36 30.929,-34.92 0,-20.63 -13.59,-35.39 -31.64,-35.39 -18.508,0 -32.579,15.46 -32.579,36.09 0,20.39 13.598,34.22 33.29,34.22 z"
       style="fill:#262626;fill-opacity:1;fill-rule:nonzero;stroke:none"
       transform="matrix(0.13333333,0,0,-0.13333333,0,884)" />
    <path
       id="path95"
       d="m 624.879,4594.77 c 16.641,10.07 21.801,18.28 21.801,33.51 0,25.55 -19.45,43.36 -47.809,43.36 -28.133,0 -47.82,-17.81 -47.82,-43.12 0,-15.47 5.16,-23.44 21.57,-33.75 -18.281,-9.38 -27.191,-22.5 -27.191,-40.55 0,-29.77 21.8,-50.39 53.441,-50.39 31.399,0 53.43,20.62 53.43,50.39 0,18.05 -8.903,31.17 -27.422,40.55 z m -26.008,59.29 c 16.867,0 27.649,-10.08 27.649,-26.25 0,-15.23 -11.008,-25.54 -27.649,-25.54 -16.883,0 -27.66,10.31 -27.66,26.01 0,15.7 10.777,25.78 27.66,25.78 z m 0,-68.44 c 19.68,0 33.277,-12.89 33.277,-31.87 0,-19.45 -13.359,-32.34 -33.75,-32.34 -19.218,0 -32.808,13.12 -32.808,32.11 0,19.45 13.359,32.1 33.281,32.1 z"
       style="fill:#262626;fill-opacity:1;fill-rule:nonzero;stroke:none"
       transform="matrix(0.13333333,0,0,-0.13333333,0,884)" />
    <path
       id="path96"
       d="m 489.77,5602.27 v -115.79 h 19.679 v 162.66 h -13.121 c -6.797,-24.84 -11.488,-28.36 -41.949,-32.34 v -14.53 z"
       style="fill:#262626;fill-opacity:1;fill-rule:nonzero;stroke:none"
       transform="matrix(0.13333333,0,0,-0.13333333,0,884)" />
    <path
       id="path97"
       d="m 618.359,5649.14 c -14.769,0 -28.359,-6.8 -36.558,-17.81 -10.551,-14.3 -15.711,-35.86 -15.711,-66.1 0,-54.84 18.051,-83.9 52.269,-83.9 33.75,0 52.27,29.06 52.27,82.5 0,31.64 -4.93,52.73 -15.707,67.5 -8.203,11.25 -21.563,17.81 -36.563,17.81 z m 0,-17.58 c 21.332,0 31.871,-21.79 31.871,-65.86 0,-46.4 -10.308,-67.97 -32.339,-67.97 -20.86,0 -31.411,22.5 -31.411,67.27 0,44.77 10.551,66.56 31.879,66.56 z"
       style="fill:#262626;fill-opacity:1;fill-rule:nonzero;stroke:none"
       transform="matrix(0.13333333,0,0,-0.13333333,0,884)" />
    <path
       id="path98"
       d="M 751.067,6547.84 V 6435.61"
       style="fill:none;stroke:#262626;stroke-width:5.0025;stroke-linecap:square;stroke-linejoin:round;stroke-miterlimit:10;stroke-dasharray:none;stroke-opacity:1"
       transform="matrix(0.13315013,0,0,-0.133516,0,884)" />
    <path
       id="path99"
       d="m 473.52,6582.81 v -116.56 h 19.761 V 6630 h -13.16 c -6.84,-25 -11.531,-28.55 -42.109,-32.58 v -14.61 z"
       style="fill:#262626;fill-opacity:1;fill-rule:nonzero;stroke:none"
       transform="matrix(0.13333333,0,0,-0.13333333,0,884)" />
    <path
       id="path100"
       d="M 654.879,6486.05 H 570.66 c 1.879,13.44 9.18,22.19 28.949,33.99 l 22.582,12.73 c 22.34,12.5 33.86,29.26 33.86,49.57 0,13.44 -5.391,26.18 -15.031,34.93 -9.418,8.71 -21.18,12.73 -36.25,12.73 -20.469,0 -35.551,-7.3 -44.461,-21.25 -5.661,-8.71 -8.008,-18.87 -8.469,-35.39 h 19.762 c 0.699,11.09 2.109,17.69 4.918,23.12 5.199,9.93 15.55,16.06 27.539,16.06 18.132,0 31.531,-13.2 31.531,-30.67 0,-13.24 -7.5,-24.57 -21.641,-32.81 l -20.711,-12.03 c -33.398,-19.33 -43.316,-34.69 -44.957,-70.55 h 106.598 z"
       style="fill:#262626;fill-opacity:1;fill-rule:nonzero;stroke:none"
       transform="matrix(0.13333333,0,0,-0.13333333,0,884)" />
    <path
       id="path101"
       d="M 71.25,3672.46 V 3629.8 H 0 v -40.78 h 71.25 v -35.15 h 33.281 v 35.15 h 196.41 c 26.719,0 40.778,17.82 40.778,49.69 0,11.25 -0.938,20.16 -3.278,33.75 H 303.75 c 1.41,-5.62 1.879,-11.25 1.879,-19.69 0,-17.81 -4.688,-22.97 -22.969,-22.97 H 104.531 v 42.66 z"
       style="fill:#262626;fill-opacity:1;fill-rule:nonzero;stroke:none"
       transform="matrix(0.13333333,0,0,-0.13333333,0,884)" />
    <path
       id="path102"
       d="m 1127.93,685.23 0.66,59.258 1.92,59.223 3.2,59.258 4.49,59.222 5.78,59.258 7.07,59.251 8.36,59.22 9.61,59.26 10.94,59.22 12.19,59.26 13.48,59.25 14.76,59.22 16.06,59.26 17.34,59.22 18.63,59.26 19.88,59.25 21.22,59.22 22.46,59.26 23.75,59.26 25.04,59.22 26.32,59.26 27.62,59.25 28.87,59.22 30.19,59.26 31.45,59.22 32.77,59.26 34.03,59.22 35.31,59.25 36.6,59.26 37.85,59.22 39.18,59.26 40.43,59.22 41.76,59.25 43.01,59.26 44.29,59.22 45.59,59.26 46.87,59.22 48.17,59.26 49.41,59.25 50.74,59.22 52,59.26 53.32,59.22 54.57,59.26 55.86,59.25 57.15,59.22 58.39,59.26 59.73,59.26 61.02,59.22 62.26,59.25 63.56,59.22 64.84,59.26 66.13,59.22 67.42,59.26 68.72,59.26 69.96,59.21 71.29,59.26 72.53,59.26 73.83,59.22 75.12,59.26 76.41,59.22 77.69,59.25 78.99,59.26 80.23,59.22 81.56,59.26 82.82,59.22 84.1,59.25 85.43,59.26 86.68,59.22 87.93,59.26 89.25,59.22 90.51,59.26 91.84,59.25 93.08,59.22 94.38,59.26 95.66,59.22 96.96,59.26 98.24,59.21 99.53,59.26 100.78,59.26 102.11,59.22 103.36,59.26 104.65,59.25 105.93,59.22 107.23,59.26 108.52,59.26 109.8,59.22 111.06,59.26 112.38,59.21 113.63,59.26 114.92,59.26 116.21,59.22 117.5,59.26 118.79,59.22 120.04,59.25 121.37,59.26 122.62,59.22 123.94,59.26 125.2,59.22 126.48,59.25"
       style="fill:none;stroke:#000000;stroke-width:20.0025;stroke-linecap:butt;stroke-linejoin:round;stroke-miterlimit:10;stroke-dasharray:none;stroke-opacity:1"
       transform="matrix(0.13333333,0,0,-0.13333333,0,884)" />
    <path
       id="path103"
       d="m 1127.93,685.23 0.47,49.379 1.33,49.371 2.15,49.34 3.04,49.379 3.83,49.371 4.65,49.379 5.43,49.371 6.25,49.38 6.95,49.37 7.74,49.34 8.47,49.37 9.14,49.38 9.85,49.37 10.54,49.38 11.18,49.37 11.83,49.34 12.46,49.37 13.09,49.38 13.63,49.37 14.26,49.38 14.8,49.37 15.36,49.34 15.85,49.37 16.37,49.38 16.88,49.37 17.34,49.38 17.81,49.37 18.28,49.34 18.68,49.37 19.14,49.38 19.45,49.37 19.88,49.38 20.24,49.33 20.58,49.42 20.9,49.33 21.21,49.38 21.53,49.37 21.79,49.38 22.07,49.37 22.31,49.38 22.54,49.34 22.73,49.37 22.93,49.38 23.13,49.37 23.28,49.38 23.43,49.37 23.56,49.34 23.67,49.37 23.75,49.38 23.87,49.37 23.9,49.38 23.99,49.37 23.98,49.34 23.99,49.37 24.02,49.38 23.99,49.37 23.94,49.38 23.87,49.37 23.83,49.34 23.75,49.37 23.63,49.38 23.51,49.37 23.4,49.38 23.25,49.37 23.04,49.34 22.89,49.37 22.7,49.38 22.46,49.37 22.23,49.38 21.95,49.34 21.72,49.41 21.4,49.34 21.14,49.37 20.82,49.38 20.47,49.37 20.11,49.38 19.77,49.37 19.37,49.34 18.95,49.37 18.55,49.38 18.13,49.37 17.65,49.38 17.23,49.37 16.72,49.34 16.21,49.37 15.7,49.38 15.2,49.37 14.61,49.38 14.06,49.37 13.48,49.34 12.89,49.37 12.26,49.38 11.61,49.37 10.97,49.38 10.35,49.37 9.61,49.34 8.95,49.41 8.2,49.34 7.5,49.37"
       style="fill:none;stroke:#000000;stroke-width:20.0025;stroke-linecap:butt;stroke-linejoin:bevel;stroke-miterlimit:10;stroke-dasharray:60.0075, 60.0075;stroke-dashoffset:0;stroke-opacity:1"
       transform="matrix(0.13333333,0,0,-0.13333333,0,884)" />
    <path
       id="path104"
       d="M 2877.34,1211.41 H 7589.8 v 779.531 H 2877.34 Z"
       style="fill:#ffffff;fill-opacity:1;fill-rule:nonzero;stroke:none"
       transform="matrix(0.13333333,0,0,-0.13333333,0,884)" />
    <path
       id="path105"
       d="m 2947.82,-1777.49 h 621.82"
       style="fill:none;stroke:#000000;stroke-width:20.0027;stroke-linecap:butt;stroke-linejoin:round;stroke-miterlimit:10;stroke-dasharray:none;stroke-opacity:1"
       transform="matrix(0.13295147,0,0,0.13371467,0,884)" />
    <path
       id="path106"
       d="m 2947.82,-1415.72 h 621.82"
       style="fill:none;stroke:#000000;stroke-width:20.0027;stroke-linecap:butt;stroke-linejoin:bevel;stroke-miterlimit:10;stroke-dasharray:60.0079, 60.0079;stroke-dashoffset:0;stroke-opacity:1"
       transform="matrix(0.13295147,0,0,0.13371467,0,884)" />
    <path
       id="path107"
       d="m 3804.41,1890.27 h 168.52 v -22.69 h -70.7 v -176.49 h -27.11 v 176.49 h -70.71 z"
       style="fill:#000000;fill-opacity:1;fill-rule:nonzero;stroke:none"
       transform="matrix(0.13333333,0,0,-0.13333333,0,884)" />
    <path
       id="path108"
       d="m 4122.07,1781.29 v -90.2 h -24.53 v 89.38 c 0,14.14 -2.77,24.73 -8.28,31.76 -5.51,7.03 -13.79,10.54 -24.81,10.54 -13.24,0 -23.71,-4.22 -31.36,-12.69 -7.66,-8.44 -11.45,-19.96 -11.45,-34.53 v -84.46 h -24.69 v 207.58 h 24.69 v -81.37 c 5.86,8.99 12.74,15.71 20.66,20.12 8.01,4.45 17.23,6.68 27.62,6.68 17.15,0 30.16,-5.31 38.95,-16.01 8.83,-10.59 13.2,-26.18 13.2,-46.8 z"
       style="fill:#000000;fill-opacity:1;fill-rule:nonzero;stroke:none"
       transform="matrix(0.13333333,0,0,-0.13333333,0,884)" />
    <path
       id="path109"
       d="m 4298.87,1771.91 v -11.99 h -112.89 c 1.09,-16.91 6.17,-29.8 15.23,-38.67 9.14,-8.83 21.88,-13.24 38.17,-13.24 9.41,0 18.51,1.17 27.34,3.47 8.87,2.31 17.69,5.79 26.41,10.43 v -23.24 c -8.79,-3.71 -17.82,-6.56 -27.08,-8.51 -9.25,-1.96 -18.63,-2.93 -28.16,-2.93 -23.83,0 -42.73,6.91 -56.72,20.78 -13.87,13.9 -20.78,32.65 -20.78,56.33 0,24.45 6.56,43.82 19.73,58.16 13.24,14.41 31.09,21.6 53.51,21.6 20.08,0 35.98,-6.48 47.62,-19.45 11.76,-12.93 17.62,-30.47 17.62,-52.74 z m -24.57,7.23 c -0.16,13.44 -3.95,24.14 -11.33,32.15 -7.31,8.01 -16.99,11.99 -29.06,11.99 -13.71,0 -24.69,-3.87 -32.97,-11.6 -8.21,-7.73 -12.89,-18.63 -14.14,-32.7 z"
       style="fill:#000000;fill-opacity:1;fill-rule:nonzero;stroke:none"
       transform="matrix(0.13333333,0,0,-0.13333333,0,884)" />
    <path
       id="path110"
       d="m 4397.07,1823.28 c -13.16,0 -23.59,-5.16 -31.25,-15.47 -7.62,-10.23 -11.44,-24.26 -11.44,-42.15 0,-17.89 3.78,-31.99 11.32,-42.3 7.66,-10.24 18.09,-15.35 31.37,-15.35 13.05,0 23.44,5.19 31.06,15.51 7.65,10.31 11.48,24.37 11.48,42.14 0,17.7 -3.83,31.72 -11.48,42.04 -7.62,10.39 -18.01,15.58 -31.06,15.58 z m 0,20.82 c 21.33,0 38.09,-6.91 50.27,-20.82 12.19,-13.87 18.29,-33.08 18.29,-57.62 0,-24.45 -6.1,-43.67 -18.29,-57.65 -12.18,-13.87 -28.94,-20.78 -50.27,-20.78 -21.44,0 -38.24,6.91 -50.43,20.78 -12.11,13.98 -18.16,33.2 -18.16,57.65 0,24.54 6.05,43.75 18.16,57.62 12.19,13.91 28.99,20.82 50.43,20.82 z"
       style="fill:#000000;fill-opacity:1;fill-rule:nonzero;stroke:none"
       transform="matrix(0.13333333,0,0,-0.13333333,0,884)" />
    <path
       id="path111"
       d="m 4592.93,1817.58 c -2.77,1.6 -5.78,2.73 -9.1,3.44 -3.2,0.82 -6.76,1.21 -10.67,1.21 -13.86,0 -24.53,-4.53 -32.03,-13.6 -7.38,-8.98 -11.05,-21.95 -11.05,-38.83 v -78.71 h -24.69 v 149.42 h 24.69 v -23.21 c 5.15,9.07 11.87,15.79 20.15,20.12 8.25,4.45 18.32,6.68 30.16,6.68 1.68,0 3.56,-0.12 5.59,-0.39 2.03,-0.19 4.29,-0.51 6.79,-0.94 z"
       style="fill:#000000;fill-opacity:1;fill-rule:nonzero;stroke:none"
       transform="matrix(0.13333333,0,0,-0.13333333,0,884)" />
    <path
       id="path112"
       d="m 4740.47,1771.91 v -11.99 h -112.85 c 1.05,-16.91 6.13,-29.8 15.19,-38.67 9.18,-8.83 21.88,-13.24 38.17,-13.24 9.41,0 18.55,1.17 27.34,3.47 8.91,2.31 17.7,5.79 26.41,10.43 v -23.24 c -8.79,-3.71 -17.82,-6.56 -27.07,-8.51 -9.26,-1.96 -18.64,-2.93 -28.17,-2.93 -23.83,0 -42.73,6.91 -56.68,20.78 -13.9,13.9 -20.82,32.65 -20.82,56.33 0,24.45 6.56,43.82 19.73,58.16 13.28,14.41 31.09,21.6 53.51,21.6 20.12,0 35.98,-6.48 47.62,-19.45 11.76,-12.93 17.62,-30.47 17.62,-52.74 z m -24.53,7.23 c -0.2,13.44 -3.99,24.14 -11.37,32.15 -7.27,8.01 -16.99,11.99 -29.06,11.99 -13.71,0 -24.69,-3.87 -32.97,-11.6 -8.16,-7.73 -12.89,-18.63 -14.14,-32.7 z"
       style="fill:#000000;fill-opacity:1;fill-rule:nonzero;stroke:none"
       transform="matrix(0.13333333,0,0,-0.13333333,0,884)" />
    <path
       id="path113"
       d="m 4805.04,1882.93 v -42.42 h 50.59 v -19.06 h -50.59 v -81.14 c 0,-12.19 1.64,-20 4.96,-23.47 3.36,-3.48 10.16,-5.2 20.39,-5.2 h 25.24 v -20.55 h -25.24 c -18.94,0 -32.03,3.52 -39.22,10.55 -7.19,7.11 -10.82,20 -10.82,38.67 v 81.14 h -18.01 v 19.06 h 18.01 v 42.42 z"
       style="fill:#000000;fill-opacity:1;fill-rule:nonzero;stroke:none"
       transform="matrix(0.13333333,0,0,-0.13333333,0,884)" />
    <path
       id="path114"
       d="m 4887.89,1840.51 h 24.5703 V 1691.088 H 4887.89 Z m 0,58.16 h 24.5703 v -31.0898 H 4887.89 Z"
       style="fill:#000000;fill-opacity:1;fill-rule:nonzero;stroke:none"
       transform="matrix(0.13333333,0,0,-0.13333333,0,884)" />
    <path
       id="path115"
       d="m 5071.37,1834.77 v -22.93 c -6.96,3.82 -13.95,6.64 -20.98,8.51 -6.91,1.95 -13.94,2.93 -21.05,2.93 -15.94,0 -28.29,-5.04 -37.11,-15.19 -8.79,-10.04 -13.21,-24.18 -13.21,-42.43 0,-18.24 4.42,-32.42 13.21,-42.57 8.82,-10.04 21.17,-15.08 37.11,-15.08 7.11,0 14.14,0.94 21.05,2.81 7.03,1.95 14.02,4.84 20.98,8.67 v -22.65 c -6.88,-3.21 -13.99,-5.63 -21.37,-7.23 -7.3,-1.6 -15.08,-2.38 -23.36,-2.38 -22.5,0 -40.35,7.07 -53.63,21.21 -13.24,14.14 -19.88,33.2 -19.88,57.22 0,24.38 6.67,43.56 20.03,57.5 13.44,13.99 31.8,20.94 55.08,20.94 7.58,0 14.96,-0.78 22.15,-2.38 7.23,-1.52 14.18,-3.83 20.98,-6.95 z"
       style="fill:#000000;fill-opacity:1;fill-rule:nonzero;stroke:none"
       transform="matrix(0.13333333,0,0,-0.13333333,0,884)" />
    <path
       id="path116"
       d="m 5181.95,1766.21 c -19.84,0 -33.59,-2.26 -41.21,-6.84 -7.65,-4.53 -11.48,-12.26 -11.48,-23.2 0,-8.71 2.85,-15.66 8.51,-20.82 5.78,-5.04 13.64,-7.58 23.52,-7.58 13.59,0 24.49,4.81 32.66,14.42 8.28,9.68 12.42,22.54 12.42,38.55 v 5.47 z m 48.95,10.12 v -85.24 h -24.53 v 22.66 c -5.59,-9.06 -12.58,-15.78 -20.94,-20.12 -8.36,-4.29 -18.59,-6.4 -30.7,-6.4 -15.28,0 -27.46,4.25 -36.57,12.81 -8.98,8.59 -13.47,20.12 -13.47,34.53 0,16.8 5.62,29.49 16.83,38.05 11.29,8.51 28.09,12.77 50.43,12.77 h 34.42 v 2.42 c 0,11.29 -3.75,20 -11.21,26.14 -7.39,6.25 -17.78,9.33 -31.21,9.33 -8.56,0 -16.88,-1.01 -24.97,-3.05 -8.08,-2.03 -15.85,-5.11 -23.35,-9.21 v 22.69 c 8.98,3.48 17.73,6.06 26.17,7.74 8.43,1.75 16.68,2.65 24.68,2.65 21.61,0 37.74,-5.58 48.44,-16.8 10.67,-11.21 15.98,-28.2 15.98,-50.97 z"
       style="fill:#000000;fill-opacity:1;fill-rule:nonzero;stroke:none"
       transform="matrix(0.13333333,0,0,-0.13333333,0,884)" />
    <path
       id="path117"
       d="m 5281.48,1691.09 h 24.5313 v 207.582 H 5281.48 Z"
       style="fill:#000000;fill-opacity:1;fill-rule:nonzero;stroke:none"
       transform="matrix(0.13333333,0,0,-0.13333333,0,884)" />
    <path
       id="path118"
       d="m 3820.7,1519.65 h 114.5 v -22.7 h -87.54 v -58.71 h 78.98 v -22.65 h -78.98 v -95.16 h -26.96 z"
       style="fill:#000000;fill-opacity:1;fill-rule:nonzero;stroke:none"
       transform="matrix(0.13333333,0,0,-0.13333333,0,884)" />
    <path
       id="path119"
       d="m 3977.89,1519.65 h 125.94 v -22.7 h -98.99 v -58.98 h 94.85 v -22.66 h -94.85 v -72.19 h 101.37 v -22.69 h -128.32 z"
       style="fill:#000000;fill-opacity:1;fill-rule:nonzero;stroke:none"
       transform="matrix(0.13333333,0,0,-0.13333333,0,884)" />
    <path
       id="path120"
       d="m 4150.51,1519.65 h 40.15 l 50.86,-135.55 51.1,135.55 h 40.15 v -199.22 h -26.29 v 174.92 l -51.36,-136.6 h -27.07 l -51.37,136.6 v -174.92 h -26.17 z"
       style="fill:#000000;fill-opacity:1;fill-rule:nonzero;stroke:none"
       transform="matrix(0.13333333,0,0,-0.13333333,0,884)" />
  </g>
</svg>
