<?xml version="1.0" encoding="UTF-8" standalone="no"?>
<!-- Created with Inkscape (http://www.inkscape.org/) -->

<svg
   version="1.1"
   id="svg1"
   width="542.66669"
   height="485.33334"
   viewBox="0 0 542.66669 485.33334"
   sodipodi:docname="femelement2.svg"
   inkscape:version="1.4.2 (ebf0e940d0, 2025-05-08)"
   xmlns:inkscape="http://www.inkscape.org/namespaces/inkscape"
   xmlns:sodipodi="http://sodipodi.sourceforge.net/DTD/sodipodi-0.dtd"
   xmlns="http://www.w3.org/2000/svg"
   xmlns:svg="http://www.w3.org/2000/svg">
  <defs
     id="defs1" />
  <sodipodi:namedview
     id="namedview1"
     pagecolor="#ffffff"
     bordercolor="#000000"
     borderopacity="0.25"
     inkscape:showpageshadow="2"
     inkscape:pageopacity="0.0"
     inkscape:pagecheckerboard="0"
     inkscape:deskcolor="#d1d1d1"
     inkscape:zoom="1.6594669"
     inkscape:cx="368.49183"
     inkscape:cy="237.12434"
     inkscape:window-width="3440"
     inkscape:window-height="1342"
     inkscape:window-x="0"
     inkscape:window-y="0"
     inkscape:window-maximized="1"
     inkscape:current-layer="g1">
    <inkscape:page
       x="0"
       y="0"
       inkscape:label="1"
       id="page1"
       width="542.66669"
       height="485.33334"
       margin="0"
       bleed="0" />
  </sodipodi:namedview>
  <g
     id="g1"
     inkscape:groupmode="layer"
     inkscape:label="1">
    <rect
       style="fill:#ffffff"
       id="rect9"
       width="542.66669"
       height="485.33334"
       x="0"
       y="0" />
    <path
       id="path1"
       d="M 3638.67,1820.66 C 3638.67,815.859 2824.14,1.33203 1819.34,1.33203 1336.84,1.33203 874.059,193.012 532.891,534.18 191.68,875.391 0,1338.12 0,1820.66 0,2825.47 814.531,3640 1819.34,3640 c 1004.8,0 1819.33,-814.53 1819.33,-1819.34 z"
       style="fill:#c3c3c3;fill-opacity:1;fill-rule:nonzero;stroke:none"
       transform="matrix(0.13333333,0,0,-0.13333333,0,485.33333)" />
    <path
       id="path2"
       d="m 2621.52,1820.66 c 0,-212.73 -84.53,-416.79 -234.96,-567.22 -150.43,-150.43 -354.49,-234.96 -567.22,-234.96 -212.74,0 -416.8,84.53 -567.23,234.96 -150.43,150.43 -234.92,354.49 -234.92,567.22 0,212.74 84.49,416.8 234.92,567.23 150.43,150.43 354.49,234.92 567.23,234.92 443.04,0 802.18,-359.14 802.18,-802.15 z"
       style="fill:#ffffff;fill-opacity:1;fill-rule:nonzero;stroke:none"
       transform="matrix(0.13333333,0,0,-0.13333333,0,485.33333)" />
    <path
       id="path3"
       d="m 2639.14,1820.66 h 999.53"
       style="fill:none;stroke:#000000;stroke-width:7.49999;stroke-linecap:butt;stroke-linejoin:miter;stroke-miterlimit:4;stroke-dasharray:none;stroke-opacity:1"
       transform="matrix(0.13333333,0,0,-0.13333333,0,485.33333)" />
    <path
       id="path4"
       d="m 2144.96,1466.21 c -1.56,-7.77 -4.65,-19.41 -4.65,-21.76 0,-8.51 6.99,-13.2 14.77,-13.2 6.21,0 14.72,3.91 18.63,13.98 0.78,1.57 17.07,69.14 19.42,78.48 3.9,16.33 13.2,50.51 15.54,64.49 2.35,6.21 16.33,29.5 27.97,40.39 3.87,3.09 18.63,16.33 39.61,16.33 13.2,0 20.2,-6.25 20.98,-6.25 -14.77,-2.3 -25.63,-13.98 -25.63,-27.19 0,-7.73 5.43,-17.07 18.63,-17.07 13.21,0 27.19,11.64 27.19,29.54 0,17.07 -15.54,31.83 -41.17,31.83 -31.84,0 -53.59,-24.1 -62.93,-38.08 -4.65,22.53 -22.54,38.08 -45.82,38.08 -22.54,0 -31.87,-19.41 -36.52,-27.97 -8.56,-17.11 -14.77,-46.6 -14.77,-48.16 0,-5.43 4.69,-5.43 5.43,-5.43 5.47,0 5.47,0.78 8.56,11.64 8.55,34.96 18.67,59.06 36.52,59.06 7.77,0 14.76,-3.9 14.76,-22.54 0,-10.9 -1.56,-16.33 -7.77,-41.95 z"
       style="fill:#000000;fill-opacity:1;fill-rule:nonzero;stroke:none"
       transform="matrix(0.13333333,0,0,-0.13333333,0,485.33333)" />
    <path
       id="path5"
       d="m 2429.57,1583.05 c 0,9.33 0,9.33 -10.12,9.33 -22.5,-21.76 -53.59,-21.76 -67.57,-21.76 v -12.42 c 7.77,0 31.09,0 49.72,9.3 v -176.33 c 0,-11.68 0,-16.33 -34.18,-16.33 h -13.2 v -12.42 c 6.21,0 48.94,1.56 61.37,1.56 10.86,0 54.37,-1.56 62.14,-1.56 v 12.42 h -13.2 c -34.96,0 -34.96,4.65 -34.96,16.33 z"
       style="fill:#000000;fill-opacity:1;fill-rule:nonzero;stroke:none"
       transform="matrix(0.13333333,0,0,-0.13333333,0,485.33333)" />
    <path
       id="path6"
       d="m 3718.2,1549.49 c -1.56,-7.77 -4.65,-19.41 -4.65,-21.76 0,-8.51 7,-13.2 14.77,-13.2 6.21,0 14.77,3.91 18.63,13.99 0.78,1.56 17.11,69.14 19.42,78.47 3.9,16.33 13.2,50.51 15.54,64.49 2.35,6.22 16.33,29.5 27.97,40.39 3.87,3.09 18.64,16.29 39.61,16.29 13.21,0 20.2,-6.21 20.98,-6.21 -14.77,-2.3 -25.63,-13.98 -25.63,-27.18 0,-7.78 5.43,-17.07 18.64,-17.07 13.2,0 27.18,11.64 27.18,29.49 0,17.11 -15.5,31.87 -41.17,31.87 -31.83,0 -53.59,-24.1 -62.93,-38.08 -4.65,22.54 -22.5,38.08 -45.82,38.08 -22.54,0 -31.87,-19.41 -36.52,-27.97 -8.56,-17.11 -14.77,-46.6 -14.77,-48.16 0,-5.43 4.69,-5.43 5.43,-5.43 5.47,0 5.47,0.74 8.56,11.64 8.55,34.96 18.67,59.02 36.52,59.02 7.77,0 14.77,-3.86 14.77,-22.5 0,-10.89 -1.57,-16.32 -7.78,-41.95 z"
       style="fill:#000000;fill-opacity:1;fill-rule:nonzero;stroke:none"
       transform="matrix(0.13333333,0,0,-0.13333333,0,485.33333)" />
    <path
       id="path7"
       d="m 4061.8,1508.63 h -11.64 c -0.78,-7.77 -4.65,-27.97 -9.34,-31.09 -2.3,-2.31 -28.75,-2.31 -34.18,-2.31 h -63.71 c 36.52,31.84 48.95,41.92 69.14,58.25 25.66,20.19 49.73,41.95 49.73,74.57 0,41.95 -36.49,67.61 -80.78,67.61 -42.74,0 -72.27,-30.31 -72.27,-62.14 0,-17.11 14.77,-19.46 18.67,-19.46 7.74,0 17.85,6.25 17.85,18.67 0,6.22 -2.34,18.64 -20.19,18.64 10.86,24.1 34.18,31.83 50.51,31.83 34.96,0 52.81,-27.18 52.81,-55.15 0,-30.28 -21.76,-53.6 -32.62,-66.02 l -83.12,-83.12 c -3.91,-3.13 -3.91,-3.91 -3.91,-13.21 h 142.97 z"
       style="fill:#000000;fill-opacity:1;fill-rule:nonzero;stroke:none"
       transform="matrix(0.13333333,0,0,-0.13333333,0,485.33333)" />
    <path
       id="path8"
       d="m 2661.21,1823.83 c 0,-24.42 -18.36,-44.14 -40.98,-44.14 -22.65,0 -40.97,19.72 -40.97,44.14 0,24.37 18.32,44.14 40.97,44.14 22.62,0 40.98,-19.77 40.98,-44.14 z"
       style="fill:#000000;fill-opacity:1;fill-rule:nonzero;stroke:none"
       transform="matrix(0.13333333,0,0,-0.13333333,0,485.33333)" />
    <path
       id="path9"
       d="m 3704.88,1830.12 c 0,-24.38 -18.32,-44.14 -40.97,-44.14 -22.66,0 -40.98,19.76 -40.98,44.14 0,24.37 18.32,44.14 40.98,44.14 22.65,0 40.97,-19.77 40.97,-44.14 z"
       style="fill:#000000;fill-opacity:1;fill-rule:nonzero;stroke:none"
       transform="matrix(0.13333333,0,0,-0.13333333,0,485.33333)" />
  </g>
</svg>
