<?xml version="1.0" encoding="UTF-8" standalone="no"?>
<!-- Created with Inkscape (http://www.inkscape.org/) -->

<svg
   version="1.1"
   id="svg1"
   width="757.33331"
   height="634.66669"
   viewBox="0 0 757.33331 634.66669"
   sodipodi:docname="p3_zoom_or.svg"
   inkscape:version="1.4.2 (ebf0e940d0, 2025-05-08)"
   xmlns:inkscape="http://www.inkscape.org/namespaces/inkscape"
   xmlns:sodipodi="http://sodipodi.sourceforge.net/DTD/sodipodi-0.dtd"
   xmlns="http://www.w3.org/2000/svg"
   xmlns:svg="http://www.w3.org/2000/svg">
  <defs
     id="defs1" />
  <sodipodi:namedview
     id="namedview1"
     pagecolor="#ffffff"
     bordercolor="#000000"
     borderopacity="0.25"
     inkscape:showpageshadow="2"
     inkscape:pageopacity="0.0"
     inkscape:pagecheckerboard="0"
     inkscape:deskcolor="#d1d1d1"
     inkscape:zoom="1.7946428"
     inkscape:cx="378.62688"
     inkscape:cy="317.33334"
     inkscape:window-width="3440"
     inkscape:window-height="1342"
     inkscape:window-x="0"
     inkscape:window-y="0"
     inkscape:window-maximized="1"
     inkscape:current-layer="g1">
    <inkscape:page
       x="0"
       y="0"
       inkscape:label="1"
       id="page1"
       width="757.33331"
       height="634.66669"
       margin="0"
       bleed="0" />
  </sodipodi:namedview>
  <g
     id="g1"
     inkscape:groupmode="layer"
     inkscape:label="1">
    <rect
       style="fill:#ffffff"
       id="rect147"
       width="757.33331"
       height="634.66669"
       x="0"
       y="0" />
    <path
       id="path1"
       d="m 482.07,649.801 h 5192.77 v 4093.48 H 482.07 Z"
       style="fill:#ffffff;fill-opacity:1;fill-rule:evenodd;stroke:none"
       transform="matrix(0.13333333,0,0,-0.13333333,0,634.66667)" />
    <path
       id="path2"
       d="M 482.07,649.801 H 5674.84"
       style="fill:none;stroke:#262626;stroke-width:3.59881;stroke-linecap:butt;stroke-linejoin:round;stroke-miterlimit:4;stroke-dasharray:none;stroke-opacity:1"
       transform="matrix(0.13333333,0,0,-0.13333333,0,634.66667)" />
    <path
       id="path3"
       d="M 482.07,4743.28 H 5674.84"
       style="fill:none;stroke:#262626;stroke-width:3.59881;stroke-linecap:butt;stroke-linejoin:round;stroke-miterlimit:4;stroke-dasharray:none;stroke-opacity:1"
       transform="matrix(0.13333333,0,0,-0.13333333,0,634.66667)" />
    <path
       id="path4"
       d="M 798.441,649.801 V 701.48"
       style="fill:none;stroke:#262626;stroke-width:3.59881;stroke-linecap:butt;stroke-linejoin:round;stroke-miterlimit:4;stroke-dasharray:none;stroke-opacity:1"
       transform="matrix(0.13333333,0,0,-0.13333333,0,634.66667)" />
    <path
       id="path5"
       d="M 1253.2,649.801 V 701.48"
       style="fill:none;stroke:#262626;stroke-width:3.59881;stroke-linecap:butt;stroke-linejoin:round;stroke-miterlimit:4;stroke-dasharray:none;stroke-opacity:1"
       transform="matrix(0.13333333,0,0,-0.13333333,0,634.66667)" />
    <path
       id="path6"
       d="M 1707.62,649.801 V 701.48"
       style="fill:none;stroke:#262626;stroke-width:3.59881;stroke-linecap:butt;stroke-linejoin:round;stroke-miterlimit:4;stroke-dasharray:none;stroke-opacity:1"
       transform="matrix(0.13333333,0,0,-0.13333333,0,634.66667)" />
    <path
       id="path7"
       d="M 2162.07,649.801 V 701.48"
       style="fill:none;stroke:#262626;stroke-width:3.59881;stroke-linecap:butt;stroke-linejoin:round;stroke-miterlimit:4;stroke-dasharray:none;stroke-opacity:1"
       transform="matrix(0.13333333,0,0,-0.13333333,0,634.66667)" />
    <path
       id="path8"
       d="M 2616.84,649.801 V 701.48"
       style="fill:none;stroke:#262626;stroke-width:3.59881;stroke-linecap:butt;stroke-linejoin:round;stroke-miterlimit:4;stroke-dasharray:none;stroke-opacity:1"
       transform="matrix(0.13333333,0,0,-0.13333333,0,634.66667)" />
    <path
       id="path9"
       d="M 3071.25,649.801 V 701.48"
       style="fill:none;stroke:#262626;stroke-width:3.59881;stroke-linecap:butt;stroke-linejoin:round;stroke-miterlimit:4;stroke-dasharray:none;stroke-opacity:1"
       transform="matrix(0.13333333,0,0,-0.13333333,0,634.66667)" />
    <path
       id="path10"
       d="M 3525.66,649.801 V 701.48"
       style="fill:none;stroke:#262626;stroke-width:3.59881;stroke-linecap:butt;stroke-linejoin:round;stroke-miterlimit:4;stroke-dasharray:none;stroke-opacity:1"
       transform="matrix(0.13333333,0,0,-0.13333333,0,634.66667)" />
    <path
       id="path11"
       d="M 3980.43,649.801 V 701.48"
       style="fill:none;stroke:#262626;stroke-width:3.59881;stroke-linecap:butt;stroke-linejoin:round;stroke-miterlimit:4;stroke-dasharray:none;stroke-opacity:1"
       transform="matrix(0.13333333,0,0,-0.13333333,0,634.66667)" />
    <path
       id="path12"
       d="M 4434.88,649.801 V 701.48"
       style="fill:none;stroke:#262626;stroke-width:3.59881;stroke-linecap:butt;stroke-linejoin:round;stroke-miterlimit:4;stroke-dasharray:none;stroke-opacity:1"
       transform="matrix(0.13333333,0,0,-0.13333333,0,634.66667)" />
    <path
       id="path13"
       d="M 4889.3,649.801 V 701.48"
       style="fill:none;stroke:#262626;stroke-width:3.59881;stroke-linecap:butt;stroke-linejoin:round;stroke-miterlimit:4;stroke-dasharray:none;stroke-opacity:1"
       transform="matrix(0.13333333,0,0,-0.13333333,0,634.66667)" />
    <path
       id="path14"
       d="M 5344.06,649.801 V 701.48"
       style="fill:none;stroke:#262626;stroke-width:3.59881;stroke-linecap:butt;stroke-linejoin:round;stroke-miterlimit:4;stroke-dasharray:none;stroke-opacity:1"
       transform="matrix(0.13333333,0,0,-0.13333333,0,634.66667)" />
    <path
       id="path15"
       d="m 798.441,4743.28 v -52.03"
       style="fill:none;stroke:#262626;stroke-width:3.59881;stroke-linecap:butt;stroke-linejoin:round;stroke-miterlimit:4;stroke-dasharray:none;stroke-opacity:1"
       transform="matrix(0.13333333,0,0,-0.13333333,0,634.66667)" />
    <path
       id="path16"
       d="m 1253.2,4743.28 v -52.03"
       style="fill:none;stroke:#262626;stroke-width:3.59881;stroke-linecap:butt;stroke-linejoin:round;stroke-miterlimit:4;stroke-dasharray:none;stroke-opacity:1"
       transform="matrix(0.13333333,0,0,-0.13333333,0,634.66667)" />
    <path
       id="path17"
       d="m 1707.62,4743.28 v -52.03"
       style="fill:none;stroke:#262626;stroke-width:3.59881;stroke-linecap:butt;stroke-linejoin:round;stroke-miterlimit:4;stroke-dasharray:none;stroke-opacity:1"
       transform="matrix(0.13333333,0,0,-0.13333333,0,634.66667)" />
    <path
       id="path18"
       d="m 2162.07,4743.28 v -52.03"
       style="fill:none;stroke:#262626;stroke-width:3.59881;stroke-linecap:butt;stroke-linejoin:round;stroke-miterlimit:4;stroke-dasharray:none;stroke-opacity:1"
       transform="matrix(0.13333333,0,0,-0.13333333,0,634.66667)" />
    <path
       id="path19"
       d="m 2616.84,4743.28 v -52.03"
       style="fill:none;stroke:#262626;stroke-width:3.59881;stroke-linecap:butt;stroke-linejoin:round;stroke-miterlimit:4;stroke-dasharray:none;stroke-opacity:1"
       transform="matrix(0.13333333,0,0,-0.13333333,0,634.66667)" />
    <path
       id="path20"
       d="m 3071.25,4743.28 v -52.03"
       style="fill:none;stroke:#262626;stroke-width:3.59881;stroke-linecap:butt;stroke-linejoin:round;stroke-miterlimit:4;stroke-dasharray:none;stroke-opacity:1"
       transform="matrix(0.13333333,0,0,-0.13333333,0,634.66667)" />
    <path
       id="path21"
       d="m 3525.66,4743.28 v -52.03"
       style="fill:none;stroke:#262626;stroke-width:3.59881;stroke-linecap:butt;stroke-linejoin:round;stroke-miterlimit:4;stroke-dasharray:none;stroke-opacity:1"
       transform="matrix(0.13333333,0,0,-0.13333333,0,634.66667)" />
    <path
       id="path22"
       d="m 3980.43,4743.28 v -52.03"
       style="fill:none;stroke:#262626;stroke-width:3.59881;stroke-linecap:butt;stroke-linejoin:round;stroke-miterlimit:4;stroke-dasharray:none;stroke-opacity:1"
       transform="matrix(0.13333333,0,0,-0.13333333,0,634.66667)" />
    <path
       id="path23"
       d="m 4434.88,4743.28 v -52.03"
       style="fill:none;stroke:#262626;stroke-width:3.59881;stroke-linecap:butt;stroke-linejoin:round;stroke-miterlimit:4;stroke-dasharray:none;stroke-opacity:1"
       transform="matrix(0.13333333,0,0,-0.13333333,0,634.66667)" />
    <path
       id="path24"
       d="m 4889.3,4743.28 v -52.03"
       style="fill:none;stroke:#262626;stroke-width:3.59881;stroke-linecap:butt;stroke-linejoin:round;stroke-miterlimit:4;stroke-dasharray:none;stroke-opacity:1"
       transform="matrix(0.13333333,0,0,-0.13333333,0,634.66667)" />
    <path
       id="path25"
       d="m 5344.06,4743.28 v -52.03"
       style="fill:none;stroke:#262626;stroke-width:3.59881;stroke-linecap:butt;stroke-linejoin:round;stroke-miterlimit:4;stroke-dasharray:none;stroke-opacity:1"
       transform="matrix(0.13333333,0,0,-0.13333333,0,634.66667)" />
    <path
       id="path26"
       d="m 621.41,518.43 h 42.3789 v 13.9102 H 621.41 Z"
       style="fill:#262626;fill-opacity:1;fill-rule:nonzero;stroke:none"
       transform="matrix(0.13333333,0,0,-0.13333333,0,634.66667)" />
    <path
       id="path27"
       d="m 675.16,540.121 c 0,13.32 1.36,23.981 4.102,32.027 2.769,8.122 6.789,14.332 12.148,18.75 5.469,4.411 12.18,6.641 20.391,6.641 6.051,0 11.328,-1.25 15.859,-3.707 4.57,-2.383 8.32,-5.941 11.25,-10.512 2.969,-4.57 5.309,-10.078 6.949,-16.679 1.719,-6.52 2.539,-15.391 2.539,-26.52 0,-13.211 -1.367,-23.789 -4.058,-31.961 -2.699,-8.039 -6.719,-14.289 -12.192,-18.75 -5.308,-4.41 -12.148,-6.558 -20.347,-6.558 -10.821,0 -19.34,3.867 -25.512,11.597 -7.418,9.383 -11.129,24.571 -11.129,45.672 z m 14.18,0 c 0,-18.402 2.18,-30.711 6.48,-36.801 4.34,-6.129 9.649,-9.179 15.981,-9.179 6.328,0 11.64,3.05 15.969,9.218 4.339,6.09 6.492,18.36 6.492,36.762 0,18.469 -2.153,30.777 -6.492,36.871 -4.329,6.059 -9.68,9.098 -16.129,9.098 -6.332,0 -11.371,-2.692 -15.121,-8.039 -4.758,-6.84 -7.18,-19.531 -7.18,-37.93 z"
       style="fill:#262626;fill-opacity:1;fill-rule:nonzero;stroke:none"
       transform="matrix(0.13333333,0,0,-0.13333333,0,634.66667)" />
    <path
       id="path28"
       d="m 770.199,484.73 h 15.6602 v 15.6992 H 770.199 Z"
       style="fill:#262626;fill-opacity:1;fill-rule:nonzero;stroke:none"
       transform="matrix(0.13333333,0,0,-0.13333333,0,634.66667)" />
    <path
       id="path29"
       d="m 806.02,540.121 c 0,13.32 1.359,23.981 4.058,32.027 2.774,8.122 6.871,14.332 12.192,18.75 5.39,4.411 12.179,6.641 20.429,6.641 5.973,0 11.281,-1.25 15.821,-3.707 4.57,-2.383 8.32,-5.941 11.25,-10.512 3,-4.57 5.269,-10.078 6.992,-16.679 1.679,-6.52 2.5,-15.391 2.5,-26.52 0,-13.211 -1.332,-23.789 -4.032,-31.961 -2.691,-8.039 -6.789,-14.289 -12.218,-18.75 -5.313,-4.41 -12.114,-6.558 -20.313,-6.558 -10.859,0 -19.379,3.867 -25.59,11.597 -7.379,9.383 -11.089,24.571 -11.089,45.672 z m 14.21,0 c 0,-18.402 2.11,-30.711 6.45,-36.801 4.34,-6.129 9.648,-9.179 16.019,-9.179 6.321,0 11.602,3.05 15.852,9.218 4.34,6.09 6.527,18.36 6.527,36.762 0,18.469 -2.187,30.777 -6.527,36.871 -4.25,6.059 -9.602,9.098 -16.051,9.098 -6.328,0 -11.371,-2.692 -15.199,-8.039 -4.723,-6.84 -7.071,-19.531 -7.071,-37.93 z"
       style="fill:#262626;fill-opacity:1;fill-rule:nonzero;stroke:none"
       transform="matrix(0.13333333,0,0,-0.13333333,0,634.66667)" />
    <path
       id="path30"
       d="m 893.398,514.371 13.793,1.84 c 1.559,-7.813 4.258,-13.441 8.008,-16.91 3.821,-3.442 8.512,-5.16 13.981,-5.16 6.449,0 11.949,2.23 16.332,6.757 4.527,4.532 6.758,10.082 6.758,16.723 0,6.328 -2.071,11.52 -6.18,15.578 -4.141,4.18 -9.41,6.211 -15.82,6.211 -2.571,0 -5.821,-0.461 -9.719,-1.519 l 1.558,12.148 c 0.903,-0.117 1.641,-0.199 2.192,-0.199 5.929,0 11.211,1.531 15.898,4.57 4.68,3.051 7.031,7.82 7.031,14.219 0,5.043 -1.718,9.18 -5.121,12.543 -3.437,3.32 -7.847,4.957 -13.238,4.957 -5.391,0 -9.851,-1.68 -13.441,-5.039 -3.551,-3.391 -5.86,-8.43 -6.91,-15.149 l -13.79,2.457 c 1.719,9.262 5.54,16.332 11.52,21.442 5.98,5.121 13.398,7.621 22.27,7.621 6.171,0 11.789,-1.289 16.949,-3.981 5.16,-2.582 9.062,-6.179 11.801,-10.671 2.73,-4.567 4.14,-9.368 4.14,-14.489 0,-4.84 -1.289,-9.34 -3.91,-13.238 -2.621,-3.992 -6.48,-7.152 -11.559,-9.492 6.598,-1.61 11.789,-4.77 15.469,-9.61 3.711,-4.808 5.5,-10.82 5.5,-18.089 0,-9.77 -3.551,-18.121 -10.699,-24.961 -7.191,-6.801 -16.211,-10.2 -27.152,-10.2 -9.879,0 -18.008,2.93 -24.571,8.79 -6.519,5.902 -10.226,13.48 -11.09,22.851 z"
       style="fill:#262626;fill-opacity:1;fill-rule:nonzero;stroke:none"
       transform="matrix(0.13333333,0,0,-0.13333333,0,634.66667)" />
    <path
       id="path31"
       d="m 1035.98,518.391 h 42.3008 v 13.9102 H 1035.98 Z"
       style="fill:#262626;fill-opacity:1;fill-rule:nonzero;stroke:none"
       transform="matrix(0.13333333,0,0,-0.13333333,0,634.66667)" />
    <path
       id="path32"
       d="m 1089.73,540.121 c 0,13.277 1.32,23.981 4.06,31.988 2.73,8.161 6.8,14.371 12.19,18.789 5.39,4.372 12.18,6.602 20.35,6.602 6.01,0 11.29,-1.211 15.86,-3.668 4.53,-2.422 8.28,-5.941 11.29,-10.512 2.93,-4.57 5.27,-10.078 6.95,-16.718 1.72,-6.481 2.54,-15.352 2.54,-26.481 0,-13.211 -1.37,-23.832 -4.06,-31.961 -2.7,-8.039 -6.8,-14.328 -12.19,-18.789 -5.35,-4.371 -12.15,-6.562 -20.39,-6.562 -10.82,0 -19.3,3.871 -25.51,11.601 -7.38,9.422 -11.09,24.57 -11.09,45.711 z m 14.18,0 c 0,-18.441 2.11,-30.75 6.4,-36.84 4.34,-6.09 9.65,-9.14 16.02,-9.14 6.33,0 11.64,3.05 15.94,9.218 4.33,6.09 6.48,18.321 6.48,36.762 0,18.43 -2.15,30.777 -6.48,36.871 -4.3,6.02 -9.61,9.059 -16.06,9.059 -6.37,0 -11.41,-2.692 -15.19,-8 -4.77,-6.879 -7.11,-19.531 -7.11,-37.93 z"
       style="fill:#262626;fill-opacity:1;fill-rule:nonzero;stroke:none"
       transform="matrix(0.13333333,0,0,-0.13333333,0,634.66667)" />
    <path
       id="path33"
       d="m 1184.73,484.691 h 15.6992 v 15.6992 H 1184.73 Z"
       style="fill:#262626;fill-opacity:1;fill-rule:nonzero;stroke:none"
       transform="matrix(0.13333333,0,0,-0.13333333,0,634.66667)" />
    <path
       id="path34"
       d="m 1220.59,540.121 c 0,13.277 1.36,23.981 4.06,31.988 2.73,8.161 6.8,14.371 12.19,18.789 5.39,4.372 12.18,6.602 20.35,6.602 6.01,0 11.33,-1.211 15.9,-3.668 4.49,-2.422 8.24,-5.941 11.25,-10.512 2.93,-4.57 5.27,-10.078 6.95,-16.718 1.64,-6.481 2.54,-15.352 2.54,-26.481 0,-13.211 -1.37,-23.832 -4.1,-31.961 -2.7,-8.039 -6.76,-14.328 -12.15,-18.789 -5.39,-4.371 -12.19,-6.562 -20.39,-6.562 -10.86,0 -19.38,3.871 -25.51,11.601 -7.38,9.422 -11.09,24.57 -11.09,45.711 z m 14.14,0 c 0,-18.441 2.15,-30.75 6.44,-36.84 4.34,-6.09 9.69,-9.14 16.02,-9.14 6.33,0 11.68,3.05 15.94,9.218 4.33,6.09 6.52,18.321 6.52,36.762 0,18.43 -2.19,30.777 -6.52,36.871 -4.26,6.02 -9.69,9.059 -16.06,9.059 -6.33,0 -11.44,-2.692 -15.19,-8 -4.77,-6.879 -7.15,-19.531 -7.15,-37.93 z"
       style="fill:#262626;fill-opacity:1;fill-rule:nonzero;stroke:none"
       transform="matrix(0.13333333,0,0,-0.13333333,0,634.66667)" />
    <path
       id="path35"
       d="m 1380.31,497.93 v -13.239 h -74.22 c -0.11,3.36 0.39,6.52 1.57,9.61 1.87,5.039 4.92,10.039 9.02,14.918 4.22,4.922 10.27,10.582 18.12,17.031 12.19,10 20.47,17.891 24.77,23.75 4.26,5.859 6.45,11.41 6.45,16.602 0,5.468 -2,10.078 -5.94,13.789 -3.87,3.789 -8.99,5.66 -15.24,5.66 -6.64,0 -11.95,-1.992 -15.93,-5.969 -4.03,-3.992 -6.02,-9.492 -6.06,-16.531 l -14.18,1.488 c 0.98,10.551 4.61,18.551 10.94,24.102 6.33,5.55 14.84,8.359 25.51,8.359 10.82,0 19.29,-2.969 25.62,-8.98 6.29,-5.981 9.38,-13.36 9.38,-22.188 0,-4.531 -0.86,-8.953 -2.74,-13.281 -1.83,-4.34 -4.88,-8.91 -9.22,-13.711 -4.21,-4.809 -11.25,-11.371 -21.17,-19.77 -8.32,-6.949 -13.59,-11.64 -15.94,-14.179 -2.34,-2.461 -4.25,-4.922 -5.85,-7.461 z"
       style="fill:#262626;fill-opacity:1;fill-rule:nonzero;stroke:none"
       transform="matrix(0.13333333,0,0,-0.13333333,0,634.66667)" />
    <path
       id="path36"
       d="m 1395.08,514.141 14.49,1.211 c 1.06,-7.032 3.56,-12.34 7.46,-15.942 3.91,-3.512 8.6,-5.269 14.18,-5.269 6.6,0 12.27,2.5 16.84,7.5 4.57,5 6.91,11.679 6.91,19.918 0,7.851 -2.23,14.101 -6.68,18.601 -4.41,4.57 -10.15,6.871 -17.3,6.871 -4.46,0 -8.52,-1.051 -12.07,-3.121 -3.52,-2 -6.37,-4.57 -8.4,-7.781 l -12.97,1.68 10.86,57.703 h 55.86 v -13.211 h -44.77 l -6.13,-30.192 c 6.76,4.692 13.87,7.032 21.25,7.032 9.84,0 18.12,-3.399 24.84,-10.121 6.76,-6.79 10.08,-15.54 10.08,-26.211 0,-10.188 -2.93,-18.938 -8.83,-26.399 -7.22,-9.07 -17.07,-13.601 -29.49,-13.601 -10.27,0 -18.59,2.812 -25.12,8.562 -6.36,5.738 -10.07,13.32 -11.01,22.77 z"
       style="fill:#262626;fill-opacity:1;fill-rule:nonzero;stroke:none"
       transform="matrix(0.13333333,0,0,-0.13333333,0,634.66667)" />
    <path
       id="path37"
       d="m 1532.42,518.391 h 42.3789 v 13.9102 H 1532.42 Z"
       style="fill:#262626;fill-opacity:1;fill-rule:nonzero;stroke:none"
       transform="matrix(0.13333333,0,0,-0.13333333,0,634.66667)" />
    <path
       id="path38"
       d="m 1586.17,540.121 c 0,13.277 1.41,23.981 4.1,31.988 2.78,8.161 6.8,14.371 12.15,18.789 5.43,4.372 12.23,6.602 20.39,6.602 6.06,0 11.33,-1.211 15.9,-3.668 4.49,-2.422 8.28,-5.941 11.25,-10.512 2.93,-4.57 5.27,-10.078 6.99,-16.718 1.64,-6.481 2.5,-15.352 2.5,-26.481 0,-13.211 -1.32,-23.832 -4.1,-31.961 -2.69,-8.039 -6.72,-14.328 -12.15,-18.789 -5.39,-4.371 -12.18,-6.562 -20.39,-6.562 -10.86,0 -19.33,3.871 -25.51,11.601 -7.38,9.422 -11.13,24.57 -11.13,45.711 z m 14.18,0 c 0,-18.441 2.19,-30.75 6.45,-36.84 4.33,-6.09 9.68,-9.14 16.01,-9.14 6.33,0 11.68,3.05 15.94,9.218 4.34,6.09 6.52,18.321 6.52,36.762 0,18.43 -2.18,30.777 -6.52,36.871 -4.26,6.02 -9.65,9.059 -16.09,9.059 -6.37,0 -11.41,-2.692 -15.16,-8 -4.73,-6.879 -7.15,-19.531 -7.15,-37.93 z"
       style="fill:#262626;fill-opacity:1;fill-rule:nonzero;stroke:none"
       transform="matrix(0.13333333,0,0,-0.13333333,0,634.66667)" />
    <path
       id="path39"
       d="m 1681.21,484.691 h 15.6992 v 15.6992 H 1681.21 Z"
       style="fill:#262626;fill-opacity:1;fill-rule:nonzero;stroke:none"
       transform="matrix(0.13333333,0,0,-0.13333333,0,634.66667)" />
    <path
       id="path40"
       d="m 1717.03,540.121 c 0,13.277 1.37,23.981 4.06,31.988 2.82,8.161 6.84,14.371 12.19,18.789 5.47,4.372 12.19,6.602 20.39,6.602 6.06,0 11.33,-1.211 15.86,-3.668 4.57,-2.422 8.32,-5.941 11.25,-10.512 2.97,-4.57 5.31,-10.078 6.95,-16.718 1.72,-6.481 2.54,-15.352 2.54,-26.481 0,-13.211 -1.36,-23.832 -4.06,-31.961 -2.69,-8.039 -6.72,-14.328 -12.19,-18.789 -5.31,-4.371 -12.14,-6.562 -20.35,-6.562 -10.82,0 -19.33,3.871 -25.51,11.601 -7.42,9.422 -11.13,24.57 -11.13,45.711 z m 14.18,0 c 0,-18.441 2.19,-30.75 6.49,-36.84 4.33,-6.09 9.64,-9.14 15.97,-9.14 6.33,0 11.64,3.05 15.98,9.218 4.33,6.09 6.48,18.321 6.48,36.762 0,18.43 -2.15,30.777 -6.48,36.871 -4.34,6.02 -9.69,9.059 -16.13,9.059 -6.33,0 -11.37,-2.692 -15.2,-8 -4.77,-6.879 -7.11,-19.531 -7.11,-37.93 z"
       style="fill:#262626;fill-opacity:1;fill-rule:nonzero;stroke:none"
       transform="matrix(0.13333333,0,0,-0.13333333,0,634.66667)" />
    <path
       id="path41"
       d="m 1876.8,497.93 v -13.239 h -74.26 c -0.08,3.36 0.47,6.52 1.64,9.61 1.87,5.039 4.84,10.039 9.02,14.918 4.14,4.922 10.2,10.582 18.05,17.031 12.27,10 20.47,17.891 24.77,23.75 4.33,5.859 6.44,11.41 6.44,16.602 0,5.468 -1.95,10.078 -5.86,13.789 -3.94,3.789 -8.98,5.66 -15.27,5.66 -6.68,0 -11.95,-1.992 -15.94,-5.969 -3.98,-3.992 -6.05,-9.492 -6.05,-16.531 l -14.18,1.488 c 0.93,10.551 4.64,18.551 10.97,24.063 6.33,5.589 14.85,8.398 25.51,8.398 10.78,0 19.3,-2.969 25.55,-8.98 6.29,-5.981 9.45,-13.36 9.45,-22.188 0,-4.531 -0.94,-8.953 -2.77,-13.281 -1.8,-4.34 -4.92,-8.91 -9.18,-13.711 -4.22,-4.809 -11.33,-11.371 -21.25,-19.77 -8.24,-6.949 -13.6,-11.64 -15.94,-14.179 -2.34,-2.461 -4.26,-4.922 -5.82,-7.461 z"
       style="fill:#262626;fill-opacity:1;fill-rule:nonzero;stroke:none"
       transform="matrix(0.13333333,0,0,-0.13333333,0,634.66667)" />
    <path
       id="path42"
       d="m 1946.8,518.391 h 42.3008 v 13.9102 H 1946.8 Z"
       style="fill:#262626;fill-opacity:1;fill-rule:nonzero;stroke:none"
       transform="matrix(0.13333333,0,0,-0.13333333,0,634.66667)" />
    <path
       id="path43"
       d="m 2000.55,540.121 c 0,13.277 1.33,23.981 4.06,31.988 2.73,8.161 6.84,14.371 12.19,18.789 5.39,4.372 12.18,6.602 20.39,6.602 5.97,0 11.33,-1.211 15.82,-3.668 4.57,-2.422 8.36,-5.941 11.29,-10.512 2.97,-4.57 5.27,-10.078 6.95,-16.718 1.72,-6.481 2.54,-15.352 2.54,-26.481 0,-13.211 -1.37,-23.832 -4.06,-31.961 -2.7,-8.039 -6.72,-14.328 -12.19,-18.789 -5.35,-4.371 -12.15,-6.562 -20.35,-6.562 -10.86,0 -19.34,3.871 -25.51,11.601 -7.42,9.422 -11.13,24.57 -11.13,45.711 z m 14.18,0 c 0,-18.441 2.11,-30.75 6.44,-36.84 4.34,-6.09 9.69,-9.14 16.02,-9.14 6.33,0 11.6,3.05 15.9,9.218 4.33,6.09 6.48,18.321 6.48,36.762 0,18.43 -2.15,30.777 -6.48,36.871 -4.3,6.02 -9.61,9.059 -16.06,9.059 -6.37,0 -11.4,-2.692 -15.19,-8 -4.77,-6.879 -7.11,-19.531 -7.11,-37.93 z"
       style="fill:#262626;fill-opacity:1;fill-rule:nonzero;stroke:none"
       transform="matrix(0.13333333,0,0,-0.13333333,0,634.66667)" />
    <path
       id="path44"
       d="m 2095.55,484.691 h 15.6992 v 15.6992 H 2095.55 Z"
       style="fill:#262626;fill-opacity:1;fill-rule:nonzero;stroke:none"
       transform="matrix(0.13333333,0,0,-0.13333333,0,634.66667)" />
    <path
       id="path45"
       d="m 2131.41,540.121 c 0,13.277 1.36,23.981 4.06,31.988 2.73,8.161 6.8,14.371 12.19,18.789 5.39,4.372 12.18,6.602 20.35,6.602 6.01,0 11.33,-1.211 15.9,-3.668 4.49,-2.422 8.24,-5.941 11.25,-10.512 2.93,-4.57 5.27,-10.078 6.95,-16.718 1.72,-6.481 2.54,-15.352 2.54,-26.481 0,-13.211 -1.37,-23.832 -4.06,-31.961 -2.7,-8.039 -6.8,-14.328 -12.19,-18.789 -5.39,-4.371 -12.15,-6.562 -20.39,-6.562 -10.78,0 -19.3,3.871 -25.51,11.601 -7.38,9.422 -11.09,24.57 -11.09,45.711 z m 14.18,0 c 0,-18.441 2.11,-30.75 6.4,-36.84 4.34,-6.09 9.69,-9.14 16.02,-9.14 6.33,0 11.68,3.05 15.94,9.218 4.33,6.09 6.52,18.321 6.52,36.762 0,18.43 -2.19,30.777 -6.52,36.871 -4.26,6.02 -9.61,9.059 -16.06,9.059 -6.33,0 -11.44,-2.692 -15.19,-8 -4.77,-6.879 -7.11,-19.531 -7.11,-37.93 z"
       style="fill:#262626;fill-opacity:1;fill-rule:nonzero;stroke:none"
       transform="matrix(0.13333333,0,0,-0.13333333,0,634.66667)" />
    <path
       id="path46"
       d="m 2270.63,484.691 h -13.79 v 87.891 c -3.36,-3.172 -7.7,-6.332 -13.13,-9.492 -5.35,-3.168 -10.16,-5.508 -14.49,-7.149 v 13.36 c 7.73,3.629 14.49,8.039 20.23,13.199 5.78,5.16 9.85,10.16 12.23,15 h 8.95 z"
       style="fill:#262626;fill-opacity:1;fill-rule:nonzero;stroke:none"
       transform="matrix(0.13333333,0,0,-0.13333333,0,634.66667)" />
    <path
       id="path47"
       d="m 2305.9,514.141 14.49,1.211 c 1.09,-7.032 3.56,-12.34 7.46,-15.942 3.91,-3.512 8.67,-5.269 14.18,-5.269 6.6,0 12.27,2.5 16.84,7.5 4.61,5 6.91,11.679 6.91,19.918 0,7.851 -2.23,14.101 -6.68,18.601 -4.41,4.57 -10.15,6.871 -17.3,6.871 -4.46,0 -8.44,-1.051 -12.03,-3.121 -3.56,-2 -6.41,-4.57 -8.44,-7.781 l -12.97,1.68 10.9,57.703 h 55.82 v -13.211 h -44.77 l -6.05,-30.192 c 6.76,4.692 13.79,7.032 21.21,7.032 9.8,0 18.08,-3.399 24.8,-10.121 6.76,-6.79 10.08,-15.54 10.08,-26.211 0,-10.188 -2.93,-18.938 -8.83,-26.399 -7.22,-9.07 -17.07,-13.601 -29.49,-13.601 -10.19,0 -18.59,2.812 -25.12,8.562 -6.36,5.738 -10.07,13.32 -11.01,22.77 z"
       style="fill:#262626;fill-opacity:1;fill-rule:nonzero;stroke:none"
       transform="matrix(0.13333333,0,0,-0.13333333,0,634.66667)" />
    <path
       id="path48"
       d="m 2446.64,518.391 h 42.3789 v 13.9102 H 2446.64 Z"
       style="fill:#262626;fill-opacity:1;fill-rule:nonzero;stroke:none"
       transform="matrix(0.13333333,0,0,-0.13333333,0,634.66667)" />
    <path
       id="path49"
       d="m 2500.47,540.121 c 0,13.277 1.37,23.981 4.06,31.988 2.74,8.161 6.8,14.371 12.19,18.789 5.39,4.372 12.19,6.602 20.35,6.602 6.02,0 11.29,-1.211 15.9,-3.668 4.49,-2.422 8.24,-5.941 11.25,-10.512 2.93,-4.57 5.27,-10.078 6.95,-16.718 1.64,-6.481 2.54,-15.352 2.54,-26.481 0,-13.211 -1.37,-23.832 -4.06,-31.961 -2.74,-8.039 -6.8,-14.328 -12.19,-18.789 -5.39,-4.371 -12.19,-6.562 -20.39,-6.562 -10.78,0 -19.3,3.871 -25.51,11.601 -7.38,9.422 -11.09,24.57 -11.09,45.711 z m 14.14,0 c 0,-18.441 2.15,-30.75 6.44,-36.84 4.34,-6.09 9.69,-9.14 16.02,-9.14 6.33,0 11.64,3.05 15.94,9.218 4.33,6.09 6.52,18.321 6.52,36.762 0,18.43 -2.19,30.777 -6.52,36.871 -4.3,6.02 -9.69,9.059 -16.06,9.059 -6.32,0 -11.44,-2.692 -15.19,-8 -4.77,-6.879 -7.15,-19.531 -7.15,-37.93 z"
       style="fill:#262626;fill-opacity:1;fill-rule:nonzero;stroke:none"
       transform="matrix(0.13333333,0,0,-0.13333333,0,634.66667)" />
    <path
       id="path50"
       d="m 2595.47,484.691 h 15.7031 v 15.6992 H 2595.47 Z"
       style="fill:#262626;fill-opacity:1;fill-rule:nonzero;stroke:none"
       transform="matrix(0.13333333,0,0,-0.13333333,0,634.66667)" />
    <path
       id="path51"
       d="m 2631.29,540.121 c 0,13.277 1.41,23.981 4.1,31.988 2.77,8.161 6.8,14.371 12.15,18.789 5.43,4.372 12.23,6.602 20.39,6.602 6.05,0 11.33,-1.211 15.82,-3.668 4.57,-2.422 8.32,-5.941 11.33,-10.512 2.93,-4.57 5.27,-10.078 6.91,-16.718 1.72,-6.481 2.58,-15.352 2.58,-26.481 0,-13.211 -1.41,-23.832 -4.1,-31.961 -2.7,-8.039 -6.76,-14.328 -12.15,-18.789 -5.39,-4.371 -12.19,-6.562 -20.39,-6.562 -10.86,0 -19.34,3.871 -25.51,11.601 -7.38,9.422 -11.13,24.57 -11.13,45.711 z m 14.18,0 c 0,-18.441 2.19,-30.75 6.44,-36.84 4.34,-6.09 9.69,-9.14 16.02,-9.14 6.33,0 11.68,3.05 15.94,9.218 4.33,6.09 6.52,18.321 6.52,36.762 0,18.43 -2.19,30.777 -6.52,36.871 -4.26,6.02 -9.65,9.059 -16.1,9.059 -6.36,0 -11.4,-2.692 -15.15,-8 -4.73,-6.879 -7.15,-19.531 -7.15,-37.93 z"
       style="fill:#262626;fill-opacity:1;fill-rule:nonzero;stroke:none"
       transform="matrix(0.13333333,0,0,-0.13333333,0,634.66667)" />
    <path
       id="path52"
       d="m 2770.55,484.691 h -13.83 v 87.891 c -3.32,-3.172 -7.7,-6.332 -13.09,-9.492 -5.35,-3.168 -10.19,-5.508 -14.49,-7.149 v 13.36 c 7.74,3.629 14.49,8.039 20.24,13.199 5.74,5.16 9.84,10.16 12.26,15 h 8.91 z"
       style="fill:#262626;fill-opacity:1;fill-rule:nonzero;stroke:none"
       transform="matrix(0.13333333,0,0,-0.13333333,0,634.66667)" />
    <path
       id="path53"
       d="m 2857.58,518.391 h 42.418 v 13.9102 h -42.418 z"
       style="fill:#262626;fill-opacity:1;fill-rule:nonzero;stroke:none"
       transform="matrix(0.13333333,0,0,-0.13333333,0,634.66667)" />
    <path
       id="path54"
       d="m 2911.37,540.121 c 0,13.277 1.33,23.981 4.02,31.988 2.81,8.161 6.88,14.371 12.19,18.789 5.47,4.372 12.22,6.602 20.43,6.602 6.01,0 11.33,-1.211 15.82,-3.668 4.57,-2.422 8.32,-5.941 11.25,-10.512 3.01,-4.57 5.35,-10.078 6.99,-16.718 1.68,-6.481 2.5,-15.352 2.5,-26.481 0,-13.211 -1.33,-23.832 -4.02,-31.961 -2.7,-8.039 -6.76,-14.328 -12.19,-18.789 -5.35,-4.371 -12.15,-6.562 -20.35,-6.562 -10.86,0 -19.34,3.871 -25.51,11.601 -7.46,9.422 -11.13,24.57 -11.13,45.711 z m 14.18,0 c 0,-18.441 2.15,-30.75 6.44,-36.84 4.34,-6.09 9.69,-9.14 16.02,-9.14 6.33,0 11.6,3.05 15.94,9.218 4.33,6.09 6.52,18.321 6.52,36.762 0,18.43 -2.19,30.777 -6.52,36.871 -4.34,6.02 -9.69,9.059 -16.14,9.059 -6.33,0 -11.36,-2.692 -15.11,-8 -4.81,-6.879 -7.15,-19.531 -7.15,-37.93 z"
       style="fill:#262626;fill-opacity:1;fill-rule:nonzero;stroke:none"
       transform="matrix(0.13333333,0,0,-0.13333333,0,634.66667)" />
    <path
       id="path55"
       d="m 3006.33,484.691 h 15.7383 v 15.6992 H 3006.33 Z"
       style="fill:#262626;fill-opacity:1;fill-rule:nonzero;stroke:none"
       transform="matrix(0.13333333,0,0,-0.13333333,0,634.66667)" />
    <path
       id="path56"
       d="m 3042.23,540.121 c 0,13.277 1.32,23.981 4.06,31.988 2.73,8.161 6.84,14.371 12.19,18.789 5.39,4.372 12.18,6.602 20.39,6.602 5.97,0 11.33,-1.211 15.82,-3.668 4.57,-2.422 8.32,-5.941 11.29,-10.512 2.97,-4.57 5.27,-10.078 6.95,-16.718 1.72,-6.481 2.54,-15.352 2.54,-26.481 0,-13.211 -1.37,-23.832 -4.06,-31.961 -2.7,-8.039 -6.8,-14.328 -12.19,-18.789 -5.35,-4.371 -12.15,-6.562 -20.35,-6.562 -10.86,0 -19.34,3.871 -25.55,11.601 -7.38,9.422 -11.09,24.57 -11.09,45.711 z m 14.18,0 c 0,-18.441 2.11,-30.75 6.4,-36.84 4.38,-6.09 9.73,-9.14 16.06,-9.14 6.33,0 11.6,3.05 15.9,9.218 4.33,6.09 6.48,18.321 6.48,36.762 0,18.43 -2.15,30.777 -6.48,36.871 -4.3,6.02 -9.61,9.059 -16.06,9.059 -6.37,0 -11.41,-2.692 -15.19,-8 -4.77,-6.879 -7.11,-19.531 -7.11,-37.93 z"
       style="fill:#262626;fill-opacity:1;fill-rule:nonzero;stroke:none"
       transform="matrix(0.13333333,0,0,-0.13333333,0,634.66667)" />
    <path
       id="path57"
       d="m 3129.45,540.121 c 0,13.277 1.37,23.981 4.07,31.988 2.81,8.161 6.87,14.371 12.18,18.789 5.47,4.372 12.19,6.602 20.43,6.602 6.02,0 11.29,-1.211 15.82,-3.668 4.57,-2.422 8.32,-5.941 11.25,-10.512 3.01,-4.57 5.35,-10.078 7,-16.718 1.68,-6.481 2.5,-15.352 2.5,-26.481 0,-13.211 -1.33,-23.832 -4.03,-31.961 -2.69,-8.039 -6.76,-14.328 -12.22,-18.789 -5.32,-4.371 -12.11,-6.562 -20.32,-6.562 -10.86,0 -19.37,3.871 -25.5,11.601 -7.47,9.422 -11.18,24.57 -11.18,45.711 z m 14.22,0 c 0,-18.441 2.15,-30.75 6.45,-36.84 4.33,-6.09 9.65,-9.14 16.01,-9.14 6.33,0 11.6,3.05 15.94,9.218 4.34,6.09 6.48,18.321 6.48,36.762 0,18.43 -2.14,30.777 -6.48,36.871 -4.34,6.02 -9.69,9.059 -16.13,9.059 -6.33,0 -11.37,-2.692 -15.12,-8 -4.77,-6.879 -7.15,-19.531 -7.15,-37.93 z"
       style="fill:#262626;fill-opacity:1;fill-rule:nonzero;stroke:none"
       transform="matrix(0.13333333,0,0,-0.13333333,0,634.66667)" />
    <path
       id="path58"
       d="m 3216.76,514.141 14.45,1.211 c 1.09,-7.032 3.56,-12.34 7.42,-15.942 3.95,-3.512 8.67,-5.269 14.22,-5.269 6.6,0 12.23,2.5 16.8,7.5 4.65,5 6.91,11.679 6.91,19.918 0,7.851 -2.22,14.101 -6.68,18.601 -4.37,4.57 -10.11,6.871 -17.26,6.871 -4.49,0 -8.48,-1.051 -12.03,-3.121 -3.6,-2 -6.41,-4.57 -8.44,-7.781 l -12.97,1.68 10.9,57.703 h 55.82 v -13.211 h -44.81 l -6.01,-30.192 c 6.72,4.692 13.75,7.032 21.21,7.032 9.8,0 18.05,-3.399 24.8,-10.121 6.76,-6.79 10.16,-15.54 10.16,-26.211 0,-10.188 -3.01,-18.938 -8.91,-26.399 -7.22,-9.07 -17.03,-13.601 -29.49,-13.601 -10.23,0 -18.59,2.812 -25.04,8.562 -6.44,5.738 -10.15,13.32 -11.05,22.77 z"
       style="fill:#262626;fill-opacity:1;fill-rule:nonzero;stroke:none"
       transform="matrix(0.13333333,0,0,-0.13333333,0,634.66667)" />
    <path
       id="path59"
       d="m 3484.1,540.121 c 0,13.277 1.37,23.981 4.06,31.988 2.74,8.161 6.8,14.371 12.19,18.789 5.39,4.372 12.19,6.602 20.35,6.602 6.02,0 11.29,-1.211 15.9,-3.668 4.49,-2.422 8.24,-5.941 11.25,-10.512 2.97,-4.57 5.28,-10.078 6.95,-16.718 1.72,-6.481 2.54,-15.352 2.54,-26.481 0,-13.211 -1.36,-23.832 -4.06,-31.961 -2.69,-8.039 -6.8,-14.328 -12.19,-18.789 -5.31,-4.371 -12.14,-6.562 -20.39,-6.562 -10.78,0 -19.29,3.871 -25.5,11.601 -7.39,9.422 -11.1,24.57 -11.1,45.711 z m 14.18,0 c 0,-18.441 2.11,-30.75 6.41,-36.84 4.33,-6.09 9.69,-9.14 16.01,-9.14 6.33,0 11.64,3.05 15.94,9.218 4.34,6.09 6.52,18.321 6.52,36.762 0,18.43 -2.18,30.777 -6.52,36.871 -4.3,6.02 -9.61,9.059 -16.05,9.059 -6.33,0 -11.37,-2.692 -15.2,-8 -4.76,-6.879 -7.11,-19.531 -7.11,-37.93 z"
       style="fill:#262626;fill-opacity:1;fill-rule:nonzero;stroke:none"
       transform="matrix(0.13333333,0,0,-0.13333333,0,634.66667)" />
    <path
       id="path60"
       d="m 3788.87,540.121 c 0,13.277 1.36,23.981 4.1,31.988 2.77,8.161 6.8,14.371 12.15,18.789 5.43,4.372 12.22,6.602 20.39,6.602 6.05,0 11.33,-1.211 15.82,-3.668 4.57,-2.422 8.36,-5.941 11.29,-10.512 2.97,-4.57 5.31,-10.078 6.95,-16.718 1.72,-6.481 2.54,-15.352 2.54,-26.481 0,-13.211 -1.37,-23.832 -4.06,-31.961 -2.7,-8.039 -6.72,-14.328 -12.19,-18.789 -5.35,-4.371 -12.15,-6.562 -20.35,-6.562 -10.86,0 -19.34,3.871 -25.51,11.601 -7.42,9.422 -11.13,24.57 -11.13,45.711 z m 14.18,0 c 0,-18.441 2.18,-30.75 6.44,-36.84 4.34,-6.09 9.69,-9.14 16.02,-9.14 6.33,0 11.68,3.05 15.94,9.218 4.33,6.09 6.52,18.321 6.52,36.762 0,18.43 -2.19,30.777 -6.52,36.871 -4.26,6.02 -9.65,9.059 -16.1,9.059 -6.33,0 -11.4,-2.692 -15.15,-8 -4.73,-6.879 -7.15,-19.531 -7.15,-37.93 z"
       style="fill:#262626;fill-opacity:1;fill-rule:nonzero;stroke:none"
       transform="matrix(0.13333333,0,0,-0.13333333,0,634.66667)" />
    <path
       id="path61"
       d="m 3883.91,484.691 h 15.6602 v 15.6992 H 3883.91 Z"
       style="fill:#262626;fill-opacity:1;fill-rule:nonzero;stroke:none"
       transform="matrix(0.13333333,0,0,-0.13333333,0,634.66667)" />
    <path
       id="path62"
       d="m 3919.73,540.121 c 0,13.277 1.36,23.981 4.06,31.988 2.73,8.161 6.84,14.371 12.19,18.789 5.39,4.372 12.18,6.602 20.39,6.602 5.97,0 11.33,-1.211 15.86,-3.668 4.57,-2.422 8.32,-5.941 11.25,-10.512 2.97,-4.57 5.27,-10.078 6.95,-16.718 1.72,-6.481 2.54,-15.352 2.54,-26.481 0,-13.211 -1.37,-23.832 -4.06,-31.961 -2.7,-8.039 -6.72,-14.328 -12.19,-18.789 -5.31,-4.371 -12.11,-6.562 -20.35,-6.562 -10.82,0 -19.34,3.871 -25.51,11.601 -7.42,9.422 -11.13,24.57 -11.13,45.711 z m 14.18,0 c 0,-18.441 2.14,-30.75 6.48,-36.84 4.34,-6.09 9.65,-9.14 15.98,-9.14 6.33,0 11.64,3.05 15.9,9.218 4.33,6.09 6.56,18.321 6.56,36.762 0,18.43 -2.23,30.777 -6.56,36.871 -4.26,6.02 -9.61,9.059 -16.06,9.059 -6.33,0 -11.37,-2.692 -15.19,-8 -4.73,-6.879 -7.11,-19.531 -7.11,-37.93 z"
       style="fill:#262626;fill-opacity:1;fill-rule:nonzero;stroke:none"
       transform="matrix(0.13333333,0,0,-0.13333333,0,634.66667)" />
    <path
       id="path63"
       d="m 4006.99,540.121 c 0,13.277 1.33,23.981 4.1,31.988 2.74,8.161 6.8,14.371 12.15,18.789 5.43,4.372 12.23,6.602 20.39,6.602 6.02,0 11.33,-1.211 15.82,-3.668 4.57,-2.422 8.32,-5.941 11.25,-10.512 3.01,-4.57 5.35,-10.078 7,-16.718 1.68,-6.481 2.5,-15.352 2.5,-26.481 0,-13.211 -1.33,-23.832 -4.03,-31.961 -2.69,-8.039 -6.76,-14.328 -12.19,-18.789 -5.35,-4.371 -12.14,-6.562 -20.35,-6.562 -10.86,0 -19.33,3.871 -25.5,11.601 -7.39,9.422 -11.14,24.57 -11.14,45.711 z m 14.18,0 c 0,-18.441 2.19,-30.75 6.45,-36.84 4.33,-6.09 9.68,-9.14 16.01,-9.14 6.33,0 11.68,3.05 15.94,9.218 4.34,6.09 6.52,18.321 6.52,36.762 0,18.43 -2.18,30.777 -6.52,36.871 -4.26,6.02 -9.69,9.059 -16.13,9.059 -6.33,0 -11.37,-2.692 -15.12,-8 -4.73,-6.879 -7.15,-19.531 -7.15,-37.93 z"
       style="fill:#262626;fill-opacity:1;fill-rule:nonzero;stroke:none"
       transform="matrix(0.13333333,0,0,-0.13333333,0,634.66667)" />
    <path
       id="path64"
       d="m 4094.3,514.141 14.45,1.211 c 1.05,-7.032 3.55,-12.34 7.42,-15.942 3.91,-3.512 8.67,-5.269 14.18,-5.269 6.6,0 12.27,2.5 16.88,7.5 4.57,5 6.87,11.679 6.87,19.918 0,7.851 -2.22,14.101 -6.68,18.601 -4.33,4.57 -10.15,6.871 -17.3,6.871 -4.46,0 -8.44,-1.051 -12.03,-3.121 -3.56,-2 -6.37,-4.57 -8.44,-7.781 l -12.97,1.68 10.9,57.703 h 55.9 v -13.211 h -44.85 l -6.05,-30.192 c 6.76,4.692 13.83,7.032 21.21,7.032 9.8,0 18.09,-3.399 24.8,-10.121 6.76,-6.79 10.16,-15.54 10.16,-26.211 0,-10.188 -3.01,-18.938 -8.91,-26.399 -7.22,-9.07 -16.99,-13.601 -29.49,-13.601 -10.19,0 -18.59,2.812 -25.04,8.562 -6.44,5.738 -10.15,13.32 -11.01,22.77 z"
       style="fill:#262626;fill-opacity:1;fill-rule:nonzero;stroke:none"
       transform="matrix(0.13333333,0,0,-0.13333333,0,634.66667)" />
    <path
       id="path65"
       d="m 4294.02,540.121 c 0,13.277 1.37,23.981 4.07,31.988 2.73,8.161 6.83,14.371 12.18,18.789 5.39,4.372 12.19,6.602 20.39,6.602 5.98,0 11.29,-1.211 15.86,-3.668 4.57,-2.422 8.32,-5.941 11.25,-10.512 2.97,-4.57 5.28,-10.078 6.96,-16.718 1.72,-6.481 2.54,-15.352 2.54,-26.481 0,-13.211 -1.37,-23.832 -4.07,-31.961 -2.69,-8.039 -6.79,-14.328 -12.18,-18.789 -5.32,-4.371 -12.15,-6.562 -20.36,-6.562 -10.82,0 -19.33,3.871 -25.54,11.601 -7.39,9.422 -11.1,24.57 -11.1,45.711 z m 14.18,0 c 0,-18.441 2.11,-30.75 6.41,-36.84 4.41,-6.09 9.73,-9.14 16.05,-9.14 6.33,0 11.64,3.05 15.9,9.218 4.34,6.09 6.53,18.321 6.53,36.762 0,18.43 -2.19,30.777 -6.53,36.871 -4.26,6.02 -9.61,9.059 -16.05,9.059 -6.33,0 -11.37,-2.692 -15.2,-8 -4.76,-6.879 -7.11,-19.531 -7.11,-37.93 z"
       style="fill:#262626;fill-opacity:1;fill-rule:nonzero;stroke:none"
       transform="matrix(0.13333333,0,0,-0.13333333,0,634.66667)" />
    <path
       id="path66"
       d="m 4389.02,484.691 h 15.6992 v 15.6992 H 4389.02 Z"
       style="fill:#262626;fill-opacity:1;fill-rule:nonzero;stroke:none"
       transform="matrix(0.13333333,0,0,-0.13333333,0,634.66667)" />
    <path
       id="path67"
       d="m 4424.88,540.121 c 0,13.277 1.37,23.981 4.07,31.988 2.77,8.161 6.79,14.371 12.18,18.789 5.39,4.372 12.19,6.602 20.35,6.602 6.06,0 11.33,-1.211 15.9,-3.668 4.5,-2.422 8.25,-5.941 11.25,-10.512 2.93,-4.57 5.28,-10.078 7,-16.718 1.64,-6.481 2.5,-15.352 2.5,-26.481 0,-13.211 -1.33,-23.832 -4.03,-31.961 -2.77,-8.039 -6.83,-14.328 -12.22,-18.789 -5.4,-4.371 -12.11,-6.562 -20.4,-6.562 -10.78,0 -19.29,3.871 -25.5,11.601 -7.39,9.422 -11.1,24.57 -11.1,45.711 z m 14.14,0 c 0,-18.441 2.19,-30.75 6.45,-36.84 4.33,-6.09 9.69,-9.14 16.01,-9.14 6.33,0 11.68,3.05 15.94,9.218 4.34,6.09 6.53,18.321 6.53,36.762 0,18.43 -2.19,30.777 -6.53,36.871 -4.26,6.02 -9.65,9.059 -16.05,9.059 -6.33,0 -11.45,-2.692 -15.2,-8 -4.72,-6.879 -7.15,-19.531 -7.15,-37.93 z"
       style="fill:#262626;fill-opacity:1;fill-rule:nonzero;stroke:none"
       transform="matrix(0.13333333,0,0,-0.13333333,0,634.66667)" />
    <path
       id="path68"
       d="m 4564.1,484.691 h -13.79 v 87.891 c -3.32,-3.172 -7.69,-6.332 -13.12,-9.492 -5.35,-3.168 -10.2,-5.508 -14.49,-7.149 v 13.36 c 7.73,3.629 14.49,8.039 20.23,13.199 5.82,5.16 9.84,10.16 12.27,15 h 8.9 z"
       style="fill:#262626;fill-opacity:1;fill-rule:nonzero;stroke:none"
       transform="matrix(0.13333333,0,0,-0.13333333,0,634.66667)" />
    <path
       id="path69"
       d="m 4699.73,540.121 c 0,13.277 1.36,23.981 4.06,31.988 2.73,8.161 6.8,14.371 12.19,18.789 5.39,4.372 12.18,6.602 20.35,6.602 6.01,0 11.33,-1.211 15.9,-3.668 4.49,-2.422 8.24,-5.941 11.25,-10.512 2.93,-4.57 5.27,-10.078 6.95,-16.718 1.64,-6.481 2.54,-15.352 2.54,-26.481 0,-13.211 -1.37,-23.832 -4.1,-31.961 -2.7,-8.039 -6.76,-14.328 -12.15,-18.789 -5.39,-4.371 -12.19,-6.562 -20.39,-6.562 -10.86,0 -19.34,3.871 -25.51,11.601 -7.38,9.422 -11.09,24.57 -11.09,45.711 z m 14.14,0 c 0,-18.441 2.18,-30.75 6.44,-36.84 4.34,-6.09 9.69,-9.14 16.02,-9.14 6.33,0 11.68,3.05 15.94,9.218 4.33,6.09 6.52,18.321 6.52,36.762 0,18.43 -2.19,30.777 -6.52,36.871 -4.26,6.02 -9.69,9.059 -16.06,9.059 -6.41,0 -11.44,-2.692 -15.19,-8 -4.73,-6.879 -7.15,-19.531 -7.15,-37.93 z"
       style="fill:#262626;fill-opacity:1;fill-rule:nonzero;stroke:none"
       transform="matrix(0.13333333,0,0,-0.13333333,0,634.66667)" />
    <path
       id="path70"
       d="m 4794.73,484.691 h 15.6992 v 15.6992 H 4794.73 Z"
       style="fill:#262626;fill-opacity:1;fill-rule:nonzero;stroke:none"
       transform="matrix(0.13333333,0,0,-0.13333333,0,634.66667)" />
    <path
       id="path71"
       d="m 4830.55,540.121 c 0,13.277 1.36,23.981 4.1,31.988 2.77,8.161 6.8,14.371 12.15,18.789 5.43,4.372 12.18,6.602 20.39,6.602 6.05,0 11.33,-1.211 15.82,-3.668 4.57,-2.422 8.36,-5.941 11.29,-10.512 2.97,-4.57 5.31,-10.078 6.95,-16.718 1.72,-6.481 2.54,-15.352 2.54,-26.481 0,-13.211 -1.37,-23.832 -4.06,-31.961 -2.7,-8.039 -6.72,-14.328 -12.19,-18.789 -5.35,-4.371 -12.15,-6.562 -20.35,-6.562 -10.86,0 -19.34,3.871 -25.51,11.601 -7.42,9.422 -11.13,24.57 -11.13,45.711 z m 14.18,0 c 0,-18.441 2.18,-30.75 6.44,-36.84 4.34,-6.09 9.69,-9.14 16.02,-9.14 6.33,0 11.6,3.05 15.94,9.218 4.33,6.09 6.52,18.321 6.52,36.762 0,18.43 -2.19,30.777 -6.52,36.871 -4.34,6.02 -9.65,9.059 -16.1,9.059 -6.33,0 -11.4,-2.692 -15.15,-8 -4.73,-6.879 -7.15,-19.531 -7.15,-37.93 z"
       style="fill:#262626;fill-opacity:1;fill-rule:nonzero;stroke:none"
       transform="matrix(0.13333333,0,0,-0.13333333,0,634.66667)" />
    <path
       id="path72"
       d="m 4969.73,484.691 h -13.75 v 87.891 c -3.28,-3.172 -7.7,-6.332 -13.09,-9.492 -5.39,-3.168 -10.19,-5.508 -14.49,-7.149 v 13.36 c 7.69,3.629 14.41,8.039 20.23,13.199 5.75,5.16 9.85,10.16 12.27,15 h 8.83 z"
       style="fill:#262626;fill-opacity:1;fill-rule:nonzero;stroke:none"
       transform="matrix(0.13333333,0,0,-0.13333333,0,634.66667)" />
    <path
       id="path73"
       d="m 5005.08,514.141 14.49,1.211 c 1.06,-7.032 3.52,-12.34 7.46,-15.942 3.91,-3.512 8.6,-5.269 14.14,-5.269 6.6,0 12.23,2.5 16.88,7.5 4.57,5 6.83,11.679 6.83,19.918 0,7.851 -2.22,14.101 -6.6,18.601 -4.41,4.57 -10.19,6.871 -17.34,6.871 -4.42,0 -8.48,-1.051 -12.03,-3.121 -3.6,-2 -6.41,-4.57 -8.44,-7.781 l -12.89,1.68 10.82,57.703 h 55.9 v -13.211 h -44.89 l -6.01,-30.192 c 6.72,4.692 13.83,7.032 21.21,7.032 9.8,0 18.05,-3.399 24.8,-10.121 6.76,-6.79 10.16,-15.54 10.16,-26.211 0,-10.188 -3.01,-18.938 -8.91,-26.399 -7.22,-9.07 -17.03,-13.601 -29.49,-13.601 -10.23,0 -18.55,2.812 -25.04,8.562 -6.44,5.738 -10.15,13.32 -11.05,22.77 z"
       style="fill:#262626;fill-opacity:1;fill-rule:nonzero;stroke:none"
       transform="matrix(0.13333333,0,0,-0.13333333,0,634.66667)" />
    <path
       id="path74"
       d="m 5201.45,540.121 c 0,13.277 1.32,23.981 4.02,31.988 2.77,8.161 6.87,14.371 12.19,18.789 5.47,4.372 12.22,6.602 20.43,6.602 6.01,0 11.29,-1.211 15.82,-3.668 4.57,-2.422 8.32,-5.941 11.25,-10.512 3,-4.57 5.27,-10.078 6.99,-16.718 1.68,-6.481 2.5,-15.352 2.5,-26.481 0,-13.211 -1.33,-23.832 -4.02,-31.961 -2.7,-8.039 -6.76,-14.328 -12.23,-18.789 -5.31,-4.371 -12.11,-6.562 -20.31,-6.562 -10.86,0 -19.38,3.871 -25.51,11.601 -7.46,9.422 -11.13,24.57 -11.13,45.711 z m 14.18,0 c 0,-18.441 2.14,-30.75 6.44,-36.84 4.34,-6.09 9.69,-9.14 16.02,-9.14 6.32,0 11.6,3.05 15.93,9.218 4.34,6.09 6.53,18.321 6.53,36.762 0,18.43 -2.19,30.777 -6.53,36.871 -4.33,6.02 -9.68,9.059 -16.13,9.059 -6.33,0 -11.37,-2.692 -15.19,-8 -4.73,-6.879 -7.07,-19.531 -7.07,-37.93 z"
       style="fill:#262626;fill-opacity:1;fill-rule:nonzero;stroke:none"
       transform="matrix(0.13333333,0,0,-0.13333333,0,634.66667)" />
    <path
       id="path75"
       d="m 5296.41,484.691 h 15.6992 v 15.6992 H 5296.41 Z"
       style="fill:#262626;fill-opacity:1;fill-rule:nonzero;stroke:none"
       transform="matrix(0.13333333,0,0,-0.13333333,0,634.66667)" />
    <path
       id="path76"
       d="m 5332.3,540.121 c 0,13.277 1.33,23.981 4.03,31.988 2.77,8.161 6.8,14.371 12.22,18.789 5.4,4.372 12.19,6.602 20.32,6.602 6.05,0 11.33,-1.211 15.9,-3.668 4.53,-2.422 8.32,-5.941 11.25,-10.512 3,-4.57 5.27,-10.078 6.99,-16.718 1.68,-6.481 2.54,-15.352 2.54,-26.481 0,-13.211 -1.37,-23.832 -4.07,-31.961 -2.69,-8.039 -6.79,-14.328 -12.18,-18.789 -5.35,-4.371 -12.15,-6.562 -20.43,-6.562 -10.78,0 -19.26,3.871 -25.51,11.601 -7.38,9.422 -11.06,24.57 -11.06,45.711 z m 14.18,0 c 0,-18.441 2.11,-30.75 6.41,-36.84 4.34,-6.09 9.73,-9.14 16.06,-9.14 6.32,0 11.6,3.05 15.89,9.218 4.34,6.09 6.49,18.321 6.49,36.762 0,18.43 -2.15,30.777 -6.49,36.871 -4.29,6.02 -9.64,9.059 -16.09,9.059 -6.33,0 -11.37,-2.692 -15.16,-8 -4.76,-6.879 -7.11,-19.531 -7.11,-37.93 z"
       style="fill:#262626;fill-opacity:1;fill-rule:nonzero;stroke:none"
       transform="matrix(0.13333333,0,0,-0.13333333,0,634.66667)" />
    <path
       id="path77"
       d="m 5491.99,497.93 v -13.239 h -74.22 c -0.11,3.36 0.43,6.52 1.64,9.61 1.88,5.039 4.89,10.039 9.03,14.918 4.18,4.922 10.23,10.582 18.08,17.031 12.19,10 20.47,17.891 24.73,23.75 4.3,5.859 6.45,11.41 6.45,16.602 0,5.468 -2,10.078 -5.9,13.789 -3.87,3.789 -8.99,5.66 -15.28,5.66 -6.6,0 -11.95,-1.992 -15.86,-5.969 -3.98,-3.992 -6.05,-9.492 -6.13,-16.531 l -14.1,1.488 c 0.94,10.551 4.57,18.551 10.9,24.063 6.33,5.589 14.84,8.398 25.55,8.398 10.74,0 19.29,-2.969 25.58,-8.98 6.25,-5.981 9.42,-13.36 9.42,-22.188 0,-4.531 -0.94,-8.953 -2.74,-13.281 -1.87,-4.34 -4.92,-8.91 -9.22,-13.711 -4.22,-4.809 -11.29,-11.371 -21.21,-19.77 -8.28,-6.949 -13.59,-11.64 -15.94,-14.179 -2.34,-2.461 -4.29,-4.922 -5.82,-7.461 z"
       style="fill:#262626;fill-opacity:1;fill-rule:nonzero;stroke:none"
       transform="matrix(0.13333333,0,0,-0.13333333,0,634.66667)" />
    <path
       id="path78"
       d="m 3008.75,393.121 c 0,4.93 1.99,8.91 4.92,12.777 2.93,3.981 7.85,4.922 12.78,4.922 4.92,0 8.78,-0.941 12.77,-4.922 2.93,-3.867 4.92,-7.847 4.92,-12.777 0,-4.801 -1.99,-8.781 -4.92,-12.652 -3.99,-3.047 -7.85,-4.918 -12.77,-4.918 -4.93,0 -9.85,1.871 -12.78,4.918 -2.93,3.871 -4.92,7.73 -4.92,12.652 z m 65.74,0 c 0,4.93 1.99,8.91 4.92,12.777 3.99,3.981 7.86,4.922 12.78,4.922 4.92,0 8.9,-0.941 12.77,-4.922 2.93,-3.867 4.92,-7.847 4.92,-12.777 0,-4.801 -1.99,-8.781 -4.92,-12.652 -3.87,-3.047 -7.85,-4.918 -12.77,-4.918 -4.92,0 -8.79,1.871 -12.78,4.918 -2.93,3.871 -4.92,7.73 -4.92,12.652 z"
       style="fill:#262626;fill-opacity:1;fill-rule:nonzero;stroke:none"
       transform="matrix(0.13333333,0,0,-0.13333333,0,634.66667)" />
    <path
       id="path79"
       d="m 2977.34,97.6992 c 0,2.9218 1.06,5.9728 3.99,8.9028 l 96.21,94.218 -33.4,95.16 c -2.93,6.911 -5.86,12.77 -8.91,17.692 -2.93,3.988 -6.79,5.859 -12.65,5.859 -3.05,0 -3.99,1.989 -3.99,4.918 0,0.942 0.94,2 2,2.93 0.93,1.062 1.99,1.062 2.93,1.062 24.49,0 38.32,-6.921 44.18,-21.679 l 68.67,-193.364 c 2.93,-9.726 5.86,-15.6988 8.79,-19.566 1.99,-1.0625 1.99,-2.9336 1.99,-2.9336 0,-1.9882 -0.94,-2.9296 -1.99,-2.9296 h -18.64 c -5.86,0.9414 -10.78,5.8632 -13.71,14.6522 l -31.4,87.418 -82.39,-97.2695 c -3.98,-3.8593 -7.85,-5.8593 -10.89,-5.8593 -2.93,0 -5.86,1.0586 -7.86,2.9296 -1.87,2 -2.93,4.9297 -2.93,7.8594 z"
       style="fill:#262626;fill-opacity:1;fill-rule:nonzero;stroke:none"
       transform="matrix(0.13333333,0,0,-0.13333333,0,634.66667)" />
    <path
       id="path80"
       d="m 3266.91,6.41016 c -12.77,9.83984 -23.55,21.67964 -32.34,34.44924 -9.84,12.6601 -16.76,27.4219 -22.62,42.1914 -5.86,14.6484 -10.78,29.4102 -13.71,46.0512 -2.93,15.699 -3.98,31.41 -3.98,48.168 0,15.699 1.05,32.339 3.98,48.039 2.93,15.711 7.85,31.41 13.71,46.171 5.86,14.649 13.71,28.481 22.62,41.25 9.73,13.719 20.63,24.5 32.34,34.34 0,0 0.94,0.942 2,0.942 h 2.93 c 0.93,0 0.93,-0.942 1.99,-0.942 0,-1.05 0.94,-1.988 0.94,-1.988 0,-0.941 0,-1.992 -0.94,-2.934 -10.78,-10.777 -20.63,-22.617 -27.54,-34.339 -7.85,-12.77 -13.71,-26.477 -17.7,-40.309 -4.8,-13.711 -7.85,-28.48 -9.72,-43.129 -1.99,-15.699 -2.93,-31.402 -2.93,-47.101 0,-72.661 18.63,-127.6216 57.89,-164.8911 0,-1.0469 0.94,-1.9883 0.94,-2.92968 0,-1.05078 -0.94,-1.98828 -0.94,-1.98828 -1.06,-0.94141 -1.06,-0.94141 -1.99,-0.94141 h -2.93 c -1.06,0 -2,0 -2,0 z"
       style="fill:#262626;fill-opacity:1;fill-rule:nonzero;stroke:none"
       transform="matrix(0.13333333,0,0,-0.13333333,0,634.66667)" />
    <path
       id="path81"
       d="m 3380.82,83.9805 c -27.54,0 -47.11,11.8398 -56.95,34.3395 -9.85,22.621 -14.77,50.039 -14.77,82.5 0,19.571 1.99,38.2 4.92,54.961 3.99,17.699 10.78,32.34 21.57,45.117 10.78,11.832 25.54,17.692 45.23,17.692 14.65,0 27.42,-2.93 37.27,-10.781 8.79,-6.911 16.64,-16.758 21.56,-28.469 4.92,-11.84 8.79,-23.559 9.84,-37.27 1.99,-12.769 2.93,-27.539 2.93,-41.25 0,-19.691 -1.99,-38.32 -4.92,-56.019 -3.87,-16.641 -10.78,-31.403 -21.56,-43.121 -10.78,-11.8402 -25.55,-17.6995 -45.12,-17.6995 z m 0,8.9101 c 12.66,0 22.5,5.8594 28.36,19.5704 5.98,12.769 9.84,27.539 11.84,43.238 0.93,15.711 1.99,32.352 1.99,50.043 0,17.578 -1.06,33.278 -1.99,47.11 -2,14.648 -5.86,27.418 -11.84,39.257 -5.86,11.723 -15.7,17.582 -28.36,17.582 -12.77,0 -22.62,-5.859 -28.48,-17.582 -5.97,-11.839 -9.84,-24.609 -11.83,-39.257 -0.94,-13.832 -1.99,-29.532 -1.99,-47.11 0,-12.773 0,-24.613 1.05,-35.39 0.94,-11.723 1.99,-23.551 4.92,-35.27 2.93,-11.84 6.8,-21.684 12.66,-30.473 5.98,-7.8473 13.83,-11.7184 23.67,-11.7184 z"
       style="fill:#262626;fill-opacity:1;fill-rule:nonzero;stroke:none"
       transform="matrix(0.13333333,0,0,-0.13333333,0,634.66667)" />
    <path
       id="path82"
       d="m 3490.74,6.41016 c -1.99,0 -2.93,1.05078 -2.93,3.03906 0,0.94138 0,0.94138 0,1.88278 39.26,38.3164 58.83,93.277 58.83,165.938 0,71.601 -19.57,126.562 -57.89,164.878 -0.94,0 -0.94,0.942 -0.94,2.934 0,0 0,0.938 0.94,1.988 0,0 0.94,0.942 1.99,0.942 h 2.93 c 0.94,0 0.94,-0.942 1.99,-0.942 15.71,-12.769 29.42,-28.48 40.2,-47.109 10.78,-18.629 19.57,-38.32 24.49,-58.941 4.92,-20.629 6.92,-42.188 6.92,-63.75 0,-16.758 -0.94,-32.469 -3.99,-48.168 -1.87,-15.704 -6.8,-31.4028 -12.65,-46.0512 -5.98,-14.7695 -13.83,-29.5313 -22.62,-42.1914 -8.79,-12.7696 -19.69,-24.6094 -32.46,-34.44924 -0.94,0 -0.94,0 -1.88,0 z"
       style="fill:#262626;fill-opacity:1;fill-rule:nonzero;stroke:none"
       transform="matrix(0.13333333,0,0,-0.13333333,0,634.66667)" />
    <path
       id="path83"
       d="M 482.07,649.801 V 4743.28"
       style="fill:none;stroke:#262626;stroke-width:3.59881;stroke-linecap:butt;stroke-linejoin:round;stroke-miterlimit:4;stroke-dasharray:none;stroke-opacity:1"
       transform="matrix(0.13333333,0,0,-0.13333333,0,634.66667)" />
    <path
       id="path84"
       d="M 5674.84,649.801 V 4743.28"
       style="fill:none;stroke:#262626;stroke-width:3.59881;stroke-linecap:butt;stroke-linejoin:round;stroke-miterlimit:4;stroke-dasharray:none;stroke-opacity:1"
       transform="matrix(0.13333333,0,0,-0.13333333,0,634.66667)" />
    <path
       id="path85"
       d="m 482.07,649.801 h 52.032"
       style="fill:none;stroke:#262626;stroke-width:3.59881;stroke-linecap:butt;stroke-linejoin:round;stroke-miterlimit:4;stroke-dasharray:none;stroke-opacity:1"
       transform="matrix(0.13333333,0,0,-0.13333333,0,634.66667)" />
    <path
       id="path86"
       d="m 482.07,1338.12 h 52.032"
       style="fill:none;stroke:#262626;stroke-width:3.59881;stroke-linecap:butt;stroke-linejoin:round;stroke-miterlimit:4;stroke-dasharray:none;stroke-opacity:1"
       transform="matrix(0.13333333,0,0,-0.13333333,0,634.66667)" />
    <path
       id="path87"
       d="m 482.07,2026.48 h 52.032"
       style="fill:none;stroke:#262626;stroke-width:3.59881;stroke-linecap:butt;stroke-linejoin:round;stroke-miterlimit:4;stroke-dasharray:none;stroke-opacity:1"
       transform="matrix(0.13333333,0,0,-0.13333333,0,634.66667)" />
    <path
       id="path88"
       d="m 482.07,2714.84 h 52.032"
       style="fill:none;stroke:#262626;stroke-width:3.59881;stroke-linecap:butt;stroke-linejoin:round;stroke-miterlimit:4;stroke-dasharray:none;stroke-opacity:1"
       transform="matrix(0.13333333,0,0,-0.13333333,0,634.66667)" />
    <path
       id="path89"
       d="m 482.07,3403.2 h 52.032"
       style="fill:none;stroke:#262626;stroke-width:3.59881;stroke-linecap:butt;stroke-linejoin:round;stroke-miterlimit:4;stroke-dasharray:none;stroke-opacity:1"
       transform="matrix(0.13333333,0,0,-0.13333333,0,634.66667)" />
    <path
       id="path90"
       d="m 482.07,4091.56 h 52.032"
       style="fill:none;stroke:#262626;stroke-width:3.59881;stroke-linecap:butt;stroke-linejoin:round;stroke-miterlimit:4;stroke-dasharray:none;stroke-opacity:1"
       transform="matrix(0.13333333,0,0,-0.13333333,0,634.66667)" />
    <path
       id="path91"
       d="m 5674.84,649.801 h -51.71"
       style="fill:none;stroke:#262626;stroke-width:3.59881;stroke-linecap:butt;stroke-linejoin:round;stroke-miterlimit:4;stroke-dasharray:none;stroke-opacity:1"
       transform="matrix(0.13333333,0,0,-0.13333333,0,634.66667)" />
    <path
       id="path92"
       d="m 5674.84,1338.12 h -51.71"
       style="fill:none;stroke:#262626;stroke-width:3.59881;stroke-linecap:butt;stroke-linejoin:round;stroke-miterlimit:4;stroke-dasharray:none;stroke-opacity:1"
       transform="matrix(0.13333333,0,0,-0.13333333,0,634.66667)" />
    <path
       id="path93"
       d="m 5674.84,2026.48 h -51.71"
       style="fill:none;stroke:#262626;stroke-width:3.59881;stroke-linecap:butt;stroke-linejoin:round;stroke-miterlimit:4;stroke-dasharray:none;stroke-opacity:1"
       transform="matrix(0.13333333,0,0,-0.13333333,0,634.66667)" />
    <path
       id="path94"
       d="m 5674.84,2714.84 h -51.71"
       style="fill:none;stroke:#262626;stroke-width:3.59881;stroke-linecap:butt;stroke-linejoin:round;stroke-miterlimit:4;stroke-dasharray:none;stroke-opacity:1"
       transform="matrix(0.13333333,0,0,-0.13333333,0,634.66667)" />
    <path
       id="path95"
       d="m 5674.84,3403.2 h -51.71"
       style="fill:none;stroke:#262626;stroke-width:3.59881;stroke-linecap:butt;stroke-linejoin:round;stroke-miterlimit:4;stroke-dasharray:none;stroke-opacity:1"
       transform="matrix(0.13333333,0,0,-0.13333333,0,634.66667)" />
    <path
       id="path96"
       d="m 5674.84,4091.56 h -51.71"
       style="fill:none;stroke:#262626;stroke-width:3.59881;stroke-linecap:butt;stroke-linejoin:round;stroke-miterlimit:4;stroke-dasharray:none;stroke-opacity:1"
       transform="matrix(0.13333333,0,0,-0.13333333,0,634.66667)" />
    <path
       id="path97"
       d="m 196.801,644.801 c 0,13.289 1.359,23.988 4.058,32 2.731,8.16 6.801,14.41 12.192,18.789 5.39,4.371 12.179,6.601 20.347,6.601 6.012,0 11.293,-1.211 15.864,-3.671 4.527,-2.43 8.277,-5.899 11.289,-10.508 2.929,-4.532 5.269,-10.082 6.949,-16.723 1.641,-6.488 2.539,-15.348 2.539,-26.488 0,-13.199 -1.367,-23.821 -4.098,-31.949 -2.703,-8.051 -6.761,-14.332 -12.152,-18.793 -5.391,-4.368 -12.187,-6.559 -20.391,-6.559 -10.859,0 -19.378,3.871 -25.507,11.602 -7.379,9.418 -11.09,24.57 -11.09,45.699 z m 14.14,0 c 0,-18.43 2.149,-30.742 6.438,-36.832 4.34,-6.098 9.691,-9.137 16.019,-9.137 6.332,0 11.641,3.039 15.942,9.219 4.332,6.129 6.519,18.398 6.519,36.75 0,18.519 -2.187,30.789 -6.519,36.879 -4.301,6.019 -9.692,9.058 -16.059,9.058 -6.332,0 -11.441,-2.687 -15.191,-8.008 -4.77,-6.871 -7.149,-19.488 -7.149,-37.929 z"
       style="fill:#262626;fill-opacity:1;fill-rule:nonzero;stroke:none"
       transform="matrix(0.13333333,0,0,-0.13333333,0,634.66667)" />
    <path
       id="path98"
       d="m 291.801,589.379 h 15.6992 v 15.7031 H 291.801 Z"
       style="fill:#262626;fill-opacity:1;fill-rule:nonzero;stroke:none"
       transform="matrix(0.13333333,0,0,-0.13333333,0,634.66667)" />
    <path
       id="path99"
       d="m 379.57,589.371 h -13.789 v 87.899 c -3.359,-3.168 -7.691,-6.329 -13.082,-9.5 -5.398,-3.161 -10.199,-5.5 -14.5,-7.11 v 13.32 c 7.699,3.641 14.461,8.051 20.242,13.211 5.739,5.149 9.84,10.149 12.258,15 h 8.871 z"
       style="fill:#262626;fill-opacity:1;fill-rule:nonzero;stroke:none"
       transform="matrix(0.13333333,0,0,-0.13333333,0,634.66667)" />
    <path
       id="path100"
       d="m 414.922,618.832 14.457,1.207 c 1.051,-7.027 3.551,-12.34 7.422,-15.937 3.898,-3.512 8.668,-5.27 14.179,-5.27 6.598,0 12.258,2.5 16.829,7.5 4.613,5.039 6.921,11.68 6.921,19.918 0,7.852 -2.23,14.102 -6.679,18.59 -4.422,4.57 -10.16,6.879 -17.313,6.879 -4.449,0 -8.437,-1.059 -12.027,-3.047 -3.551,-1.992 -6.371,-4.652 -8.441,-7.852 l -12.969,1.68 10.898,57.699 h 55.821 v -13.211 h -44.758 l -6.063,-30.187 c 6.762,4.679 13.789,7.109 21.211,7.109 9.809,0 18.09,-3.398 24.809,-10.199 6.761,-6.801 10.16,-15.551 10.16,-26.211 0,-10.16 -3.008,-18.949 -8.91,-26.41 -7.231,-9.059 -16.989,-13.59 -29.489,-13.59 -10.199,0 -18.601,2.891 -25.039,8.551 -6.453,5.75 -10.16,13.32 -11.019,22.781 z"
       style="fill:#262626;fill-opacity:1;fill-rule:nonzero;stroke:none"
       transform="matrix(0.13333333,0,0,-0.13333333,0,634.66667)" />
    <path
       id="path101"
       d="m 269.301,1335.78 c 0,13.28 1.328,23.99 4.019,31.99 2.77,8.17 6.801,14.38 12.192,18.79 5.386,4.38 12.218,6.6 20.347,6.6 6.051,0 11.332,-1.21 15.903,-3.67 4.488,-2.42 8.277,-5.94 11.25,-10.51 2.929,-4.53 5.269,-10.07 6.988,-16.71 1.641,-6.49 2.5,-15.36 2.5,-26.49 0,-13.2 -1.328,-23.83 -4.02,-31.95 -2.781,-8.05 -6.8,-14.34 -12.23,-18.79 -5.391,-4.38 -12.191,-6.56 -20.391,-6.56 -10.781,0 -19.3,3.86 -25.507,11.6 -7.383,9.41 -11.051,24.57 -11.051,45.7 z m 14.097,0 c 0,-18.44 2.192,-30.74 6.442,-36.83 4.34,-6.1 9.691,-9.15 16.019,-9.15 6.332,0 11.68,3.05 15.942,9.22 4.328,6.1 6.519,18.32 6.519,36.76 0,18.44 -2.191,30.78 -6.519,36.88 -4.262,6.01 -9.653,9.06 -16.063,9.06 -6.328,0 -11.437,-2.7 -15.187,-8.01 -4.731,-6.87 -7.153,-19.49 -7.153,-37.93 z"
       style="fill:#262626;fill-opacity:1;fill-rule:nonzero;stroke:none"
       transform="matrix(0.13333333,0,0,-0.13333333,0,634.66667)" />
    <path
       id="path102"
       d="m 364.262,1280.35 h 15.6992 v 15.6992 H 364.262 Z"
       style="fill:#262626;fill-opacity:1;fill-rule:nonzero;stroke:none"
       transform="matrix(0.13333333,0,0,-0.13333333,0,634.66667)" />
    <path
       id="path103"
       d="m 472.539,1293.59 v -13.24 H 398.32 c -0.039,3.36 0.469,6.52 1.641,9.61 1.879,5.04 4.879,10.04 9.019,14.96 4.18,4.88 10.239,10.55 18.09,16.99 12.231,10 20.469,17.89 24.731,23.75 4.328,5.86 6.437,11.41 6.437,16.61 0,5.46 -1.91,10.07 -5.859,13.78 -3.899,3.79 -8.981,5.67 -15.309,5.67 -6.601,0 -11.871,-1.99 -15.859,-5.98 -3.981,-3.98 -6.051,-9.49 -6.09,-16.52 l -14.141,1.48 c 0.93,10.55 4.61,18.56 10.93,24.1 6.371,5.55 14.852,8.36 25.512,8.36 10.816,0 19.297,-2.96 25.59,-8.94 6.25,-6.02 9.41,-13.4 9.41,-22.23 0,-4.53 -0.942,-8.94 -2.731,-13.28 -1.882,-4.34 -4.921,-8.91 -9.222,-13.71 -4.219,-4.8 -11.289,-11.37 -21.207,-19.77 -8.282,-6.95 -13.602,-11.64 -15.942,-14.18 -2.34,-2.46 -4.3,-4.92 -5.82,-7.46 z"
       style="fill:#262626;fill-opacity:1;fill-rule:nonzero;stroke:none"
       transform="matrix(0.13333333,0,0,-0.13333333,0,634.66667)" />
    <path
       id="path104"
       d="m 196.801,2021.52 c 0,13.25 1.359,23.99 4.058,32 2.731,8.16 6.801,14.37 12.192,18.78 5.39,4.38 12.179,6.61 20.347,6.61 6.012,0 11.293,-1.21 15.864,-3.68 4.527,-2.42 8.277,-5.93 11.289,-10.5 2.929,-4.57 5.269,-10.16 6.949,-16.72 1.641,-6.49 2.539,-15.35 2.539,-26.49 0,-13.2 -1.367,-23.82 -4.098,-31.95 -2.703,-8.05 -6.761,-14.34 -12.152,-18.79 -5.391,-4.37 -12.187,-6.56 -20.391,-6.56 -10.859,0 -19.378,3.87 -25.507,11.6 -7.379,9.41 -11.09,24.57 -11.09,45.7 z m 14.14,0 c 0,-18.43 2.149,-30.74 6.438,-36.87 4.34,-6.06 9.691,-9.1 16.019,-9.1 6.332,0 11.641,3.04 15.942,9.22 4.332,6.09 6.519,18.32 6.519,36.75 0,18.44 -2.187,30.78 -6.519,36.8 -4.301,6.09 -9.692,9.14 -16.059,9.14 -6.332,0 -11.441,-2.69 -15.191,-8.01 -4.77,-6.87 -7.149,-19.53 -7.149,-37.93 z"
       style="fill:#262626;fill-opacity:1;fill-rule:nonzero;stroke:none"
       transform="matrix(0.13333333,0,0,-0.13333333,0,634.66667)" />
    <path
       id="path105"
       d="m 291.801,1966.1 h 15.6992 v 15.6992 H 291.801 Z"
       style="fill:#262626;fill-opacity:1;fill-rule:nonzero;stroke:none"
       transform="matrix(0.13333333,0,0,-0.13333333,0,634.66667)" />
    <path
       id="path106"
       d="m 400.078,1979.34 v -13.25 h -74.219 c -0.078,3.36 0.469,6.53 1.641,9.61 1.879,5.04 4.84,10.04 9.02,14.92 4.14,4.93 10.199,10.59 18.05,17 12.192,10.04 20.469,17.93 24.77,23.79 4.25,5.86 6.441,11.4 6.441,16.6 0,5.47 -1.953,10.08 -5.941,13.79 -3.86,3.79 -8.899,5.66 -15.231,5.66 -6.64,0 -11.91,-1.99 -15.898,-5.98 -3.981,-3.98 -6.051,-9.49 -6.09,-16.52 l -14.141,1.49 c 0.93,10.54 4.649,18.55 10.969,24.1 6.332,5.54 14.852,8.36 25.512,8.36 10.738,0 19.301,-2.97 25.551,-8.95 6.289,-6.01 9.449,-13.4 9.449,-22.23 0,-4.53 -0.941,-8.94 -2.77,-13.28 -1.882,-4.33 -4.921,-8.9 -9.179,-13.71 -4.223,-4.8 -11.332,-11.37 -21.25,-19.76 -8.242,-6.96 -13.602,-11.64 -15.942,-14.18 -2.34,-2.46 -4.261,-4.93 -5.781,-7.46 z"
       style="fill:#262626;fill-opacity:1;fill-rule:nonzero;stroke:none"
       transform="matrix(0.13333333,0,0,-0.13333333,0,634.66667)" />
    <path
       id="path107"
       d="m 414.922,1995.55 14.457,1.21 c 1.051,-7.03 3.551,-12.35 7.422,-15.94 3.898,-3.52 8.668,-5.27 14.179,-5.27 6.598,0 12.258,2.5 16.829,7.5 4.613,5 6.921,11.68 6.921,19.92 0,7.85 -2.23,14.1 -6.679,18.59 -4.422,4.57 -10.16,6.88 -17.313,6.88 -4.449,0 -8.437,-1.06 -12.027,-3.13 -3.551,-1.99 -6.371,-4.57 -8.441,-7.77 l -12.969,1.68 10.898,57.69 h 55.821 v -13.2 h -44.758 l -6.063,-30.19 c 6.762,4.68 13.789,7.03 21.211,7.03 9.809,0 18.09,-3.4 24.809,-10.12 6.761,-6.8 10.16,-15.55 10.16,-26.21 0,-10.2 -3.008,-18.95 -8.91,-26.41 -7.231,-9.06 -16.989,-13.59 -29.489,-13.59 -10.199,0 -18.601,2.81 -25.039,8.55 -6.453,5.75 -10.16,13.32 -11.019,22.78 z"
       style="fill:#262626;fill-opacity:1;fill-rule:nonzero;stroke:none"
       transform="matrix(0.13333333,0,0,-0.13333333,0,634.66667)" />
    <path
       id="path108"
       d="m 269.102,2712.5 c 0,13.24 1.328,23.95 4.027,32.03 2.769,8.13 6.793,14.34 12.18,18.75 5.39,4.42 12.191,6.64 20.351,6.64 6.059,0 11.328,-1.25 15.899,-3.71 4.492,-2.38 8.281,-5.94 11.25,-10.51 2.929,-4.57 5.281,-10.11 6.992,-16.68 1.648,-6.52 2.5,-15.39 2.5,-26.52 0,-13.2 -1.321,-23.79 -4.02,-31.95 -2.769,-8.09 -6.801,-14.3 -12.23,-18.75 -5.391,-4.42 -12.18,-6.57 -20.391,-6.57 -10.781,0 -19.289,3.87 -25.5,11.61 -7.39,9.37 -11.058,24.57 -11.058,45.66 z m 14.097,0 c 0,-18.48 2.192,-30.7 6.449,-36.88 4.332,-6.05 9.692,-9.1 16.012,-9.1 6.328,0 11.68,3.05 15.942,9.22 4.339,6.1 6.527,18.36 6.527,36.76 0,18.48 -2.188,30.78 -6.527,36.84 -4.262,6.09 -9.653,9.14 -16.051,9.14 -6.332,0 -11.449,-2.7 -15.199,-8.05 -4.723,-6.84 -7.153,-19.53 -7.153,-37.93 z"
       style="fill:#262626;fill-opacity:1;fill-rule:nonzero;stroke:none"
       transform="matrix(0.13333333,0,0,-0.13333333,0,634.66667)" />
    <path
       id="path109"
       d="m 364.059,2657.11 h 15.7031 v 15.6992 H 364.059 Z"
       style="fill:#262626;fill-opacity:1;fill-rule:nonzero;stroke:none"
       transform="matrix(0.13333333,0,0,-0.13333333,0,634.66667)" />
    <path
       id="path110"
       d="m 400,2686.76 13.789,1.83 c 1.602,-7.81 4.301,-13.43 8.051,-16.95 3.789,-3.4 8.469,-5.12 13.941,-5.12 6.489,0 11.949,2.23 16.41,6.76 4.45,4.53 6.758,10.08 6.758,16.72 0,6.33 -2.109,11.52 -6.219,15.59 -4.179,4.18 -9.449,6.21 -15.851,6.21 -2.578,0 -5.789,-0.51 -9.649,-1.53 l 1.52,12.07 c 0.859,-0.04 1.641,-0.11 2.23,-0.11 5.86,0 11.129,1.52 15.821,4.57 4.679,3.04 7.027,7.81 7.027,14.22 0,5.03 -1.68,9.18 -5.078,12.53 -3.48,3.32 -7.891,4.97 -13.281,4.97 -5.391,0 -9.84,-1.68 -13.399,-5.04 -3.59,-3.4 -5.859,-8.44 -6.949,-15.16 l -13.75,2.46 c 1.68,9.18 5.508,16.33 11.481,21.45 5.976,5.11 13.437,7.61 22.269,7.61 6.168,0 11.789,-1.29 16.949,-3.98 5.16,-2.58 9.102,-6.17 11.801,-10.74 2.731,-4.5 4.141,-9.3 4.141,-14.46 0,-4.8 -1.293,-9.29 -3.91,-13.28 -2.582,-3.98 -6.442,-7.15 -11.563,-9.49 6.641,-1.52 11.801,-4.69 15.473,-9.53 3.707,-4.81 5.508,-10.86 5.508,-18.09 0,-9.84 -3.559,-18.16 -10.711,-24.96 -7.149,-6.79 -16.168,-10.19 -27.11,-10.19 -9.879,0 -18.039,2.93 -24.609,8.79 -6.442,5.86 -10.192,13.47 -11.09,22.85 z"
       style="fill:#262626;fill-opacity:1;fill-rule:nonzero;stroke:none"
       transform="matrix(0.13333333,0,0,-0.13333333,0,634.66667)" />
    <path
       id="path111"
       d="m 196.801,3398.24 c 0,13.28 1.359,23.95 4.058,32.03 2.731,8.09 6.801,14.38 12.192,18.75 5.39,4.42 12.179,6.57 20.347,6.57 6.012,0 11.293,-1.18 15.864,-3.64 4.527,-2.38 8.277,-5.9 11.289,-10.47 2.929,-4.57 5.269,-10.15 6.949,-16.71 1.641,-6.57 2.539,-15.36 2.539,-26.53 0,-13.16 -1.367,-23.83 -4.098,-31.95 -2.703,-8.09 -6.761,-14.3 -12.152,-18.75 -5.391,-4.42 -12.187,-6.64 -20.391,-6.64 -10.859,0 -19.378,3.94 -25.507,11.68 -7.379,9.33 -11.09,24.57 -11.09,45.66 z m 14.14,0 c 0,-18.44 2.149,-30.7 6.438,-36.87 4.34,-6.02 9.691,-9.07 16.019,-9.07 6.332,0 11.641,3.05 15.942,9.18 4.332,6.1 6.519,18.36 6.519,36.76 0,18.48 -2.187,30.78 -6.519,36.84 -4.301,6.09 -9.692,9.14 -16.059,9.14 -6.332,0 -11.441,-2.7 -15.191,-8.01 -4.77,-6.87 -7.149,-19.53 -7.149,-37.97 z"
       style="fill:#262626;fill-opacity:1;fill-rule:nonzero;stroke:none"
       transform="matrix(0.13333333,0,0,-0.13333333,0,634.66667)" />
    <path
       id="path112"
       d="m 291.801,3342.85 h 15.6992 v 15.6992 H 291.801 Z"
       style="fill:#262626;fill-opacity:1;fill-rule:nonzero;stroke:none"
       transform="matrix(0.13333333,0,0,-0.13333333,0,634.66667)" />
    <path
       id="path113"
       d="m 327.73,3372.5 13.75,1.84 c 1.61,-7.82 4.301,-13.44 8.051,-16.96 3.828,-3.4 8.52,-5.08 13.949,-5.08 6.442,0 11.989,2.23 16.36,6.72 4.539,4.46 6.762,10.04 6.762,16.72 0,6.33 -2.071,11.56 -6.172,15.59 -4.141,4.18 -9.45,6.21 -15.821,6.21 -2.578,0 -5.82,-0.51 -9.73,-1.52 l 1.57,12.1 c 0.891,-0.11 1.641,-0.19 2.223,-0.19 5.859,0 11.129,1.6 15.859,4.65 4.688,3.04 7.028,7.77 7.028,14.18 0,5.04 -1.719,9.22 -5.11,12.54 -3.437,3.36 -7.859,5 -13.25,5 -5.39,0 -9.84,-1.72 -13.429,-5.04 -3.559,-3.4 -5.86,-8.48 -6.918,-15.2 l -13.793,2.46 c 1.722,9.22 5.511,16.37 11.492,21.45 6.008,5.12 13.429,7.62 22.301,7.62 6.128,0 11.796,-1.29 16.949,-3.99 5.16,-2.58 9.07,-6.13 11.758,-10.7 2.781,-4.53 4.179,-9.42 4.179,-14.49 0,-4.81 -1.289,-9.26 -3.937,-13.25 -2.582,-3.98 -6.449,-7.14 -11.531,-9.49 6.609,-1.56 11.761,-4.72 15.468,-9.57 3.672,-4.8 5.512,-10.86 5.512,-18.05 0,-9.88 -3.59,-18.2 -10.738,-25 -7.153,-6.79 -16.172,-10.19 -27.071,-10.19 -9.921,0 -18.05,2.93 -24.652,8.79 -6.488,5.86 -10.199,13.47 -11.059,22.85 z"
       style="fill:#262626;fill-opacity:1;fill-rule:nonzero;stroke:none"
       transform="matrix(0.13333333,0,0,-0.13333333,0,634.66667)" />
    <path
       id="path114"
       d="m 414.922,3372.27 14.457,1.25 c 1.051,-7.04 3.551,-12.39 7.422,-15.94 3.898,-3.52 8.668,-5.28 14.179,-5.28 6.598,0 12.258,2.5 16.829,7.5 4.613,4.97 6.921,11.61 6.921,19.93 0,7.85 -2.23,14.06 -6.679,18.59 -4.422,4.57 -10.16,6.8 -17.313,6.8 -4.449,0 -8.437,-0.98 -12.027,-3.05 -3.551,-1.99 -6.371,-4.57 -8.441,-7.81 l -12.969,1.72 10.898,57.69 h 55.821 v -13.2 h -44.758 l -6.063,-30.2 c 6.762,4.69 13.789,7.03 21.211,7.03 9.809,0 18.09,-3.39 24.809,-10.19 6.761,-6.76 10.16,-15.47 10.16,-26.13 0,-10.24 -3.008,-19.03 -8.91,-26.41 -7.231,-9.06 -16.989,-13.67 -29.489,-13.67 -10.199,0 -18.601,2.89 -25.039,8.63 -6.453,5.7 -10.16,13.32 -11.019,22.74 z"
       style="fill:#262626;fill-opacity:1;fill-rule:nonzero;stroke:none"
       transform="matrix(0.13333333,0,0,-0.13333333,0,634.66667)" />
    <path
       id="path115"
       d="m 269.18,4089.22 c 0,13.24 1.332,23.94 4.019,32.03 2.781,8.09 6.801,14.34 12.192,18.75 5.39,4.41 12.187,6.56 20.347,6.56 6.063,0 11.332,-1.21 15.903,-3.63 4.488,-2.38 8.281,-5.94 11.25,-10.51 2.929,-4.57 5.269,-10.12 6.988,-16.68 1.641,-6.56 2.5,-15.39 2.5,-26.52 0,-13.2 -1.328,-23.87 -4.02,-31.95 -2.769,-8.09 -6.8,-14.3 -12.23,-18.75 -5.391,-4.42 -12.18,-6.65 -20.391,-6.65 -10.777,0 -19.289,3.95 -25.508,11.68 -7.378,9.34 -11.05,24.57 -11.05,45.67 z m 14.101,0 c 0,-18.48 2.188,-30.7 6.449,-36.88 4.329,-6.05 9.68,-9.1 16.008,-9.1 6.332,0 11.684,3.05 15.942,9.22 4.34,6.09 6.519,18.36 6.519,36.76 0,18.48 -2.179,30.78 -6.519,36.83 -4.258,6.1 -9.649,9.15 -16.051,9.15 -6.328,0 -11.449,-2.7 -15.199,-8.05 -4.731,-6.84 -7.149,-19.53 -7.149,-37.93 z"
       style="fill:#262626;fill-opacity:1;fill-rule:nonzero;stroke:none"
       transform="matrix(0.13333333,0,0,-0.13333333,0,634.66667)" />
    <path
       id="path116"
       d="m 364.141,4033.83 h 15.6992 v 15.7031 H 364.141 Z"
       style="fill:#262626;fill-opacity:1;fill-rule:nonzero;stroke:none"
       transform="matrix(0.13333333,0,0,-0.13333333,0,634.66667)" />
    <path
       id="path117"
       d="m 444.18,4033.83 v 26.91 h -48.711 v 12.58 l 51.25,72.85 h 11.293 v -72.85 h 15.117 v -12.58 h -15.117 v -26.91 z m 0,39.49 v 50.66 l -35.121,-50.66 z"
       style="fill:#262626;fill-opacity:1;fill-rule:nonzero;stroke:none"
       transform="matrix(0.13333333,0,0,-0.13333333,0,634.66667)" />
    <path
       id="path118"
       d="m 150.27,2671.52 c 0,-1.99 -0.93,-3.86 -3.86,-3.86 l -115.8983,29.45 c -3.9922,0.94 -6.9219,0.94 -9.8515,1.99 -2.961,0 -4.961,-7.89 -4.961,-22.65 0,-2 -1.9883,-3.99 -4.9179,-3.99 0,1.06 -1.99224,1.06 -2.92974,1.06 -1.99218,0.93 -2.92968,0.93 -2.92968,1.99 -0.94141,0 -1.99219,0.94 -1.99219,1.87 L 0,2723.59 c 0,2.93 0.941406,3.87 3.98047,3.87 L 138.551,2694.18 c -6.949,18.63 -15.742,35.27 -28.512,50.08 -12.8085,14.65 -28.5195,28.51 -45.1601,38.24 -17.7305,10.9 -35.4297,18.75 -54.0976,23.55 -3.87114,0 -5.85942,2 -7.85161,4.93 C 0.941406,2813.95 0,2816.99 0,2819.92 c 0,2.93 0.941406,5.86 1.98828,7.85 1.88281,1.88 4.92188,2.93 7.85156,2.93 2.92966,0 8.78906,-1.99 16.67966,-4.92 6.9219,-2.93 13.711,-5.86 19.6914,-8.79 17.6172,-8.94 34.3789,-20.66 49.0196,-36.37 9.8905,-8.9 17.7385,-18.67 25.5895,-29.57 6.91,-10.78 12.77,-22.53 17.731,-34.37 5.859,-10.78 9.847,-23.56 11.719,-36.37 z"
       style="fill:#262626;fill-opacity:1;fill-rule:nonzero;stroke:none"
       transform="matrix(0.13333333,0,0,-0.13333333,0,634.66667)" />
    <path
       id="path119"
       d="m 5675.47,4486.45 -7.85,50.7 -32.03,206.44"
       style="fill:none;stroke:#0000ff;stroke-width:3.59881;stroke-linecap:butt;stroke-linejoin:round;stroke-miterlimit:4;stroke-dasharray:none;stroke-opacity:1"
       transform="matrix(0.13333333,0,0,-0.13333333,0,634.66667)" />
    <path
       id="path120"
       d="m 3551.52,2768.87 c 29.3,0 54.03,-24.73 54.03,-54.03 0,-29.29 -24.73,-54.02 -54.03,-54.02 -29.29,0 -54.02,24.73 -54.02,54.02 0,29.3 24.73,54.03 54.02,54.03 z m 0,9.18 c -34.76,0 -63.2,-28.32 -63.2,-63.21 0,-34.76 28.44,-63.2 63.2,-63.2 34.77,0 63.21,28.44 63.21,63.2 0,34.89 -28.44,63.21 -63.21,63.21 z"
       style="fill:#000000;fill-opacity:1;fill-rule:nonzero;stroke:none"
       transform="matrix(0.13333333,0,0,-0.13333333,0,634.66667)" />
    <path
       id="path121"
       d="m 3542.11,2768.87 c 30.19,0 54.02,-24.73 54.02,-54.03 0,-29.29 -23.83,-54.02 -54.02,-54.02 -29.34,0 -53.16,24.73 -53.16,54.02 0,29.3 23.82,54.03 53.16,54.03 z m 0,9.18 c -34.88,0 -63.24,-28.32 -63.24,-63.21 0,-34.76 28.36,-63.2 63.24,-63.2 35.66,0 64.1,28.44 64.1,63.2 0,34.89 -28.44,63.21 -64.1,63.21 z"
       style="fill:#000000;fill-opacity:1;fill-rule:nonzero;stroke:none"
       transform="matrix(0.13333333,0,0,-0.13333333,0,634.66667)" />
    <path
       id="path122"
       d="m 3447.66,2767.77 c 30.19,0 54.02,-24.72 54.02,-54.02 0,-29.3 -23.83,-54.02 -54.02,-54.02 -29.34,0 -53.17,24.72 -53.17,54.02 0,29.3 23.83,54.02 53.17,54.02 z m 0,9.18 c -34.89,0 -63.25,-28.43 -63.25,-63.2 0,-34.88 28.36,-63.2 63.25,-63.2 35.66,0 64.1,28.32 64.1,63.2 0,34.77 -28.44,63.2 -64.1,63.2 z"
       style="fill:#000000;fill-opacity:1;fill-rule:nonzero;stroke:none"
       transform="matrix(0.13333333,0,0,-0.13333333,0,634.66667)" />
    <path
       id="path123"
       d="m 3522.7,2768.87 c 30.31,0 54.14,-24.73 54.14,-54.03 0,-29.29 -23.83,-54.02 -54.14,-54.02 -29.3,0 -53.05,24.73 -53.05,54.02 0,29.3 23.75,54.03 53.05,54.03 z m 0,9.18 c -34.77,0 -63.13,-28.32 -63.13,-63.21 0,-34.76 28.36,-63.2 63.13,-63.2 35.78,0 64.21,28.44 64.21,63.2 0,34.89 -28.43,63.21 -64.21,63.21 z"
       style="fill:#000000;fill-opacity:1;fill-rule:nonzero;stroke:none"
       transform="matrix(0.13333333,0,0,-0.13333333,0,634.66667)" />
    <path
       id="path124"
       d="m 3671.91,649.801 -14.72,142.308 -13.4,142.301 -11.8,142.66 -10.78,142.3 -9.8,142.31 -9.18,142.66 -8.17,142.3 -7.18,142.34 -6.88,142.62 -6.21,142.35 -5.59,142.3 -5.23,142.66 -4.88,142.3 -4.61,142.31 -3.91,142.65 -3.94,142.31 -3.25,142.34 -3.28,142.62 -3.28,142.34 -2.62,142.31 -2.61,142.65 -2.27,142.31 -2.3,142.3 -1.96,142.66 -1.99,142.3 -1.95,142.35 -1.64,142.61 -1.29,142.35 -1.33,105.97"
       style="fill:none;stroke:#ff00ff;stroke-width:3.59881;stroke-linecap:butt;stroke-linejoin:round;stroke-miterlimit:4;stroke-dasharray:none;stroke-opacity:1"
       transform="matrix(0.13333333,0,0,-0.13333333,0,634.66667)" />
    <path
       id="path125"
       d="m 3615,649.801 -10.47,142.308 -9.18,142.301 -7.5,142.66 -6.87,142.3 -5.9,142.31 -5.24,142.66 -4.57,142.3 -4.25,142.34 -3.6,142.62 -3.59,142.35 -2.97,142.3 -2.62,142.66 -2.61,142.3 -1.96,142.31 -2.26,142.65 -1.64,142.31 -2,142.34 -1.29,142.62 -1.64,142.34 -1.29,142.31 -1.32,142.65 -1.96,284.61 -0.97,142.66 -0.98,142.3 -0.66,142.35 -0.98,142.61 -0.66,142.35 -0.32,105.97"
       style="fill:none;stroke:#ff00ff;stroke-width:3.59881;stroke-linecap:butt;stroke-linejoin:round;stroke-miterlimit:4;stroke-dasharray:none;stroke-opacity:1"
       transform="matrix(0.13333333,0,0,-0.13333333,0,634.66667)" />
    <path
       id="path126"
       d="m 3469.8,652.93 -1.32,120.269 -0.98,142.313 -1.29,142.648 -1.33,142.31 -1.64,142.3 -1.95,142.66 -1.95,142.3 -2.62,142.31 -2.97,142.66 -3.59,142.3 -4.57,142.34 -5.55,142.62 1.05,142.34 -1.56,142.31 12.15,197.23 11.21,312.11 5.55,277.61 38.04,1326.92"
       style="fill:none;stroke:#ff00ff;stroke-width:3.59881;stroke-linecap:butt;stroke-linejoin:round;stroke-miterlimit:4;stroke-dasharray:none;stroke-opacity:1"
       transform="matrix(0.13333333,0,0,-0.13333333,0,634.66667)" />
    <path
       id="path127"
       d="m 3584.57,649.801 -14.06,142.308 -10.16,142.301 -7.85,142.66 -5.86,142.3 -4.92,142.31 -3.59,142.66 -3.29,142.3 -2.3,142.34 -2.27,142.62 -1.64,142.35 -1.64,142.3 -1.33,142.66 -1.95,284.61 -0.98,142.65 -0.66,142.31 -0.62,142.34 -0.67,142.62 -0.35,142.34 -0.63,142.31 -0.35,142.65 -0.62,284.61 v 142.66 l -0.35,142.3 -0.32,142.35 v 142.61 l -0.31,142.35 v 105.97"
       style="fill:none;stroke:#ff00ff;stroke-width:3.59881;stroke-linecap:butt;stroke-linejoin:round;stroke-miterlimit:4;stroke-dasharray:none;stroke-opacity:1"
       transform="matrix(0.13333333,0,0,-0.13333333,0,634.66667)" />
    <path
       id="path128"
       d="m 5077.23,2714.84 62.69,-83.28 62.7,83.28 -62.7,83.25 z"
       style="fill:none;stroke:#000000;stroke-width:15;stroke-linecap:butt;stroke-linejoin:miter;stroke-miterlimit:10;stroke-dasharray:none;stroke-opacity:1"
       transform="matrix(0.13333333,0,0,-0.13333333,0,634.66667)" />
    <path
       id="path129"
       d="m 4506.33,2714.84 62.69,-83.28 62.7,83.28 -62.7,83.25 z"
       style="fill:none;stroke:#000000;stroke-width:15;stroke-linecap:butt;stroke-linejoin:miter;stroke-miterlimit:10;stroke-dasharray:none;stroke-opacity:1"
       transform="matrix(0.13333333,0,0,-0.13333333,0,634.66667)" />
    <path
       id="path130"
       d="m 5471.33,649.801 -49.06,284.609 -23.91,142.66 -23.87,142.3 -23.55,142.31 -23.24,142.66 -23.21,142.3 -22.58,142.34 -22.57,142.62 -22.27,142.35 -21.91,142.3 -21.92,142.66 -21.6,142.3 -21.25,142.31 -20.94,142.65 -20.93,142.31 -20.94,142.34 -20.28,142.62 -20.31,142.34 -20.27,142.31 -19.96,142.65 -19.61,142.31 -19.65,142.3 -19.3,142.66 -19.29,142.3 -18.99,142.35 -18.98,142.61 -18.64,142.35 -13.75,105.97"
       style="fill:none;stroke:#ff0000;stroke-width:3.59881;stroke-linecap:butt;stroke-linejoin:round;stroke-miterlimit:10;stroke-dasharray:none;stroke-opacity:1"
       transform="matrix(0.13333333,0,0,-0.13333333,0,634.66667)" />
    <path
       id="path131"
       d="m 4799.65,649.801 -17.31,142.308 -17.03,142.301 -16.68,142.66 -33.36,284.61 -16.05,142.66 -16.02,142.3 -16.05,142.34 -15.35,142.62 -15.71,142.35 -15.07,142.3 -15.04,142.66 -15.04,142.3 -14.73,142.31 -14.73,142.65 -14.37,142.31 -14.1,142.34 -14.06,142.62 -14.07,142.34 -13.75,142.31 -13.71,142.65 -13.44,142.31 -13.39,142.3 -13.09,142.66 -13.09,142.3 -13.08,142.35 -12.78,142.61 -12.77,142.35 -9.45,105.97"
       style="fill:none;stroke:#ff0000;stroke-width:3.59881;stroke-linecap:butt;stroke-linejoin:round;stroke-miterlimit:10;stroke-dasharray:none;stroke-opacity:1"
       transform="matrix(0.13333333,0,0,-0.13333333,0,634.66667)" />
    <path
       id="path132"
       d="m 3194.26,2758.36 87.03,-87.03 m -87.03,0 87.03,87.03"
       style="fill:none;stroke:#000000;stroke-width:15;stroke-linecap:butt;stroke-linejoin:miter;stroke-miterlimit:10;stroke-dasharray:none;stroke-opacity:1"
       transform="matrix(0.13333333,0,0,-0.13333333,0,634.66667)" />
    <path
       id="path133"
       d="m 3157.03,2758.36 87.89,-87.07 m -87.89,0 87.89,87.07"
       style="fill:none;stroke:#000000;stroke-width:15;stroke-linecap:butt;stroke-linejoin:miter;stroke-miterlimit:10;stroke-dasharray:none;stroke-opacity:1"
       transform="matrix(0.13333333,0,0,-0.13333333,0,634.66667)" />
    <path
       id="path134"
       d="m 2853.09,2758.36 87.89,-87.07 m -87.89,0 87.89,87.07"
       style="fill:none;stroke:#000000;stroke-width:15;stroke-linecap:butt;stroke-linejoin:miter;stroke-miterlimit:10;stroke-dasharray:none;stroke-opacity:1"
       transform="matrix(0.13333333,0,0,-0.13333333,0,634.66667)" />
    <path
       id="path135"
       d="m 2546.48,2758.36 87.04,-87.03 m -87.04,0 87.04,87.03"
       style="fill:none;stroke:#000000;stroke-width:15;stroke-linecap:butt;stroke-linejoin:miter;stroke-miterlimit:10;stroke-dasharray:none;stroke-opacity:1"
       transform="matrix(0.13333333,0,0,-0.13333333,0,634.66667)" />
    <path
       id="path136"
       d="m 2212.19,2758.36 87.89,-87.07 m -87.89,0 87.89,87.07"
       style="fill:none;stroke:#000000;stroke-width:15;stroke-linecap:butt;stroke-linejoin:miter;stroke-miterlimit:10;stroke-dasharray:none;stroke-opacity:1"
       transform="matrix(0.13333333,0,0,-0.13333333,0,634.66667)" />
    <path
       id="path137"
       d="m 1842.46,2758.36 87.89,-87.07 m -87.89,0 87.89,87.07"
       style="fill:none;stroke:#000000;stroke-width:15;stroke-linecap:butt;stroke-linejoin:miter;stroke-miterlimit:10;stroke-dasharray:none;stroke-opacity:1"
       transform="matrix(0.13333333,0,0,-0.13333333,0,634.66667)" />
    <path
       id="path138"
       d="m 1429.53,2758.4 88.01,-87.11 m -88.01,0 88.01,87.11"
       style="fill:none;stroke:#000000;stroke-width:15;stroke-linecap:butt;stroke-linejoin:miter;stroke-miterlimit:10;stroke-dasharray:none;stroke-opacity:1"
       transform="matrix(0.13333333,0,0,-0.13333333,0,634.66667)" />
    <path
       id="path139"
       d="m 3320.55,649.801 -3.91,142.308 -4.26,142.301 -4.61,142.66 -4.57,142.3 -4.88,142.31 -4.92,142.66 -5.24,142.3 -5.54,142.34 -5.9,142.62 -6.21,142.35 -6.56,142.3 -7.19,142.66 -7.19,142.3 -7.85,142.31 -8.2,142.65 -8.52,142.31 -9.45,142.34 -9.85,142.62 -10.47,142.34 -11.44,142.31 -12.11,142.65 -13.09,142.31 -14.06,142.3 -15.39,142.66 -16.99,142.3 -18.32,142.35 -20.28,142.61 -22.57,142.35 -18.68,105.97"
       style="fill:none;stroke:#000000;stroke-width:3.59881;stroke-linecap:butt;stroke-linejoin:round;stroke-miterlimit:10;stroke-dasharray:none;stroke-opacity:1"
       transform="matrix(0.13333333,0,0,-0.13333333,0,634.66667)" />
    <path
       id="path140"
       d="m 3337.23,649.801 -15.71,284.609 -8.16,142.66 -8.52,142.3 -8.82,142.31 -8.83,142.66 -8.83,142.3 -9.49,142.34 -9.49,142.62 -10.16,142.35 -10.12,142.3 -10.47,142.66 -10.82,142.3 -11.13,142.31 -11.45,142.65 -12.1,142.31 -12.08,142.34 -13.12,142.62 -13.09,142.34 -13.71,142.31 -14.41,142.65 -15.04,142.31 -15.7,142.3 -16.02,142.66 -17.03,142.3 -17.66,142.35 -18.67,142.61 -19.3,142.35 -15.03,105.97"
       style="fill:none;stroke:#000000;stroke-width:3.59881;stroke-linecap:butt;stroke-linejoin:round;stroke-miterlimit:10;stroke-dasharray:none;stroke-opacity:1"
       transform="matrix(0.13333333,0,0,-0.13333333,0,634.66667)" />
    <path
       id="path141"
       d="m 3088.28,649.801 -10.82,142.308 -10.78,142.301 -11.13,142.66 -11.45,142.3 -12.11,142.31 -12.11,142.66 -12.77,142.3 -13.09,142.34 -13.71,142.62 -13.75,142.35 -14.72,142.3 -14.73,142.66 -15.7,142.3 -16.02,142.31 -16.68,142.65 -17.34,142.31 -18.01,142.34 -18.63,142.62 -19.65,142.34 -20.28,142.31 -21.28,142.65 -21.92,142.31 -22.89,142.3 -24.22,142.66 -24.84,142.3 -26.52,142.35 -27.47,142.61 -28.78,142.35 -22.58,105.97"
       style="fill:none;stroke:#000000;stroke-width:3.59881;stroke-linecap:butt;stroke-linejoin:round;stroke-miterlimit:10;stroke-dasharray:none;stroke-opacity:1"
       transform="matrix(0.13333333,0,0,-0.13333333,0,634.66667)" />
    <path
       id="path142"
       d="m 2846.17,649.801 -14.06,142.308 -14.73,142.301 -15.08,142.66 -15.35,142.3 -16.05,142.31 -16.33,142.66 -17.03,142.3 -17.66,142.34 -18,142.62 -18.99,142.35 -19.3,142.3 -19.96,142.66 -20.93,142.3 -21.57,142.31 -22.58,142.65 -23.24,142.31 -24.22,142.34 -25.19,142.62 -26.17,142.34 -27.15,142.31 -28.48,142.65 -29.41,142.31 -31.1,142.3 -32.07,142.66 -33.71,142.3 -35.31,142.35 -36.95,142.61 -38.64,142.35 -30.43,105.97"
       style="fill:none;stroke:#000000;stroke-width:3.59881;stroke-linecap:butt;stroke-linejoin:round;stroke-miterlimit:10;stroke-dasharray:none;stroke-opacity:1"
       transform="matrix(0.13333333,0,0,-0.13333333,0,634.66667)" />
    <path
       id="path143"
       d="m 2580.51,649.801 -17.66,142.308 -18.67,142.301 -18.98,142.66 -19.61,142.3 -19.96,142.31 -20.94,142.66 -21.6,142.3 -22.23,142.34 -22.93,142.62 -23.87,142.35 -24.53,142.3 -25.51,142.66 -26.52,142.3 -27.15,142.31 -28.47,142.65 -29.46,142.31 -30.74,142.34 -31.72,142.62 -33.4,142.34 -34.33,142.31 -35.98,142.65 -37.3,142.31 -39.26,142.3 -40.59,142.66 -42.85,142.3 -44.49,142.35 -46.8,142.61 -48.71,142.35 -38.28,105.97"
       style="fill:none;stroke:#000000;stroke-width:3.59881;stroke-linecap:butt;stroke-linejoin:round;stroke-miterlimit:10;stroke-dasharray:none;stroke-opacity:1"
       transform="matrix(0.13333333,0,0,-0.13333333,0,634.66667)" />
    <path
       id="path144"
       d="m 2282.77,649.801 -21.91,142.308 -22.23,142.301 -23.24,142.66 -23.91,142.3 -24.84,142.31 -25.19,142.66 -26.49,142.3 -27.19,142.34 -28.12,142.62 -29.1,142.35 -30.12,142.3 -31.05,142.66 -32.08,142.3 -33.71,142.31 -34.68,142.65 -35.98,142.31 -37.3,142.34 -38.91,142.62 -40.59,142.34 -42.18,142.31 -43.87,142.65 -45.78,142.31 -47.78,142.3 -49.72,142.66 -52.03,142.3 -54.3,142.35 -56.95,142.61 -59.85,142.35 -46.48,105.97"
       style="fill:none;stroke:#000000;stroke-width:3.59881;stroke-linecap:butt;stroke-linejoin:round;stroke-miterlimit:10;stroke-dasharray:none;stroke-opacity:1"
       transform="matrix(0.13333333,0,0,-0.13333333,0,634.66667)" />
    <path
       id="path145"
       d="m 1946.13,649.801 -25.86,142.308 -26.83,142.301 -27.46,142.66 -28.48,142.3 -29.45,142.31 -30.39,142.66 -31.41,142.3 -32.42,142.34 -33.67,142.62 -34.69,142.35 -35.67,142.3 -37.3,142.66 -38.59,142.3 -39.93,142.31 -41.21,142.65 -43.2,142.31 -44.49,142.34 -46.45,142.62 -48.43,142.34 -50.4,142.31 -52.34,142.65 -54.61,142.31 -56.95,142.3 -59.22,142.66 -62.149,142.3 -65.121,142.35 -67.691,142.61 -71.328,142.35 -55.313,105.97"
       style="fill:none;stroke:#000000;stroke-width:3.59881;stroke-linecap:butt;stroke-linejoin:round;stroke-miterlimit:10;stroke-dasharray:none;stroke-opacity:1"
       transform="matrix(0.13333333,0,0,-0.13333333,0,634.66667)" />
    <path
       id="path146"
       d="m 3386.45,650.078 h 327.191 v 4104.92 H 3386.45 Z"
       style="fill:none;stroke:#000000;stroke-width:10;stroke-linecap:round;stroke-linejoin:miter;stroke-miterlimit:4;stroke-dasharray:60, 60;stroke-dashoffset:0;stroke-opacity:1"
       transform="matrix(0.13333333,0,0,-0.13333333,0,634.66667)" />
    <path
       id="path147"
       d="M 688.359,2705.66 H 5534.22"
       style="fill:none;stroke:#000000;stroke-width:7.5;stroke-linecap:butt;stroke-linejoin:miter;stroke-miterlimit:4;stroke-dasharray:none;stroke-opacity:1"
       transform="matrix(0.13333333,0,0,-0.13333333,0,634.66667)" />
  </g>
</svg>
