<?xml version="1.0" encoding="UTF-8" standalone="no"?>
<!-- Created with Inkscape (http://www.inkscape.org/) -->

<svg
   version="1.1"
   id="svg1"
   width="1113.3333"
   height="880"
   viewBox="0 0 1113.3333 880"
   sodipodi:docname="p3_zoom.svg"
   inkscape:version="1.4.2 (ebf0e940d0, 2025-05-08)"
   xmlns:inkscape="http://www.inkscape.org/namespaces/inkscape"
   xmlns:sodipodi="http://sodipodi.sourceforge.net/DTD/sodipodi-0.dtd"
   xmlns="http://www.w3.org/2000/svg"
   xmlns:svg="http://www.w3.org/2000/svg">
  <defs
     id="defs1" />
  <sodipodi:namedview
     id="namedview1"
     pagecolor="#ffffff"
     bordercolor="#000000"
     borderopacity="0.25"
     inkscape:showpageshadow="2"
     inkscape:pageopacity="0.0"
     inkscape:pagecheckerboard="0"
     inkscape:deskcolor="#d1d1d1"
     inkscape:zoom="1.2943182"
     inkscape:cx="556.66374"
     inkscape:cy="440"
     inkscape:window-width="3440"
     inkscape:window-height="1342"
     inkscape:window-x="0"
     inkscape:window-y="0"
     inkscape:window-maximized="1"
     inkscape:current-layer="g1">
    <inkscape:page
       x="0"
       y="0"
       inkscape:label="1"
       id="page1"
       width="1113.3333"
       height="880"
       margin="0"
       bleed="0" />
  </sodipodi:namedview>
  <g
     id="g1"
     inkscape:groupmode="layer"
     inkscape:label="1">
    <rect
       style="fill:#ffffff"
       id="rect96"
       width="1113.3333"
       height="880"
       x="0"
       y="0" />
    <path
       id="path1"
       d="m 2043.95,1197.19 v 5400"
       style="fill:none;stroke:#adadad;stroke-width:10;stroke-linecap:butt;stroke-linejoin:round;stroke-miterlimit:10;stroke-dasharray:none;stroke-opacity:1"
       transform="matrix(0.13333333,0,0,-0.13333333,0,880)" />
    <path
       id="path2"
       d="m 2943.83,1197.19 v 5400"
       style="fill:none;stroke:#adadad;stroke-width:10;stroke-linecap:butt;stroke-linejoin:round;stroke-miterlimit:10;stroke-dasharray:none;stroke-opacity:1"
       transform="matrix(0.13333333,0,0,-0.13333333,0,880)" />
    <path
       id="path3"
       d="m 3843.71,1197.19 v 5400"
       style="fill:none;stroke:#adadad;stroke-width:10;stroke-linecap:butt;stroke-linejoin:round;stroke-miterlimit:10;stroke-dasharray:none;stroke-opacity:1"
       transform="matrix(0.13333333,0,0,-0.13333333,0,880)" />
    <path
       id="path4"
       d="m 4743.59,1197.19 v 5400"
       style="fill:none;stroke:#adadad;stroke-width:10;stroke-linecap:butt;stroke-linejoin:round;stroke-miterlimit:10;stroke-dasharray:none;stroke-opacity:1"
       transform="matrix(0.13333333,0,0,-0.13333333,0,880)" />
    <path
       id="path5"
       d="m 5643.48,1197.19 v 5400"
       style="fill:none;stroke:#adadad;stroke-width:10;stroke-linecap:butt;stroke-linejoin:round;stroke-miterlimit:10;stroke-dasharray:none;stroke-opacity:1"
       transform="matrix(0.13333333,0,0,-0.13333333,0,880)" />
    <path
       id="path6"
       d="m 6543.36,1197.19 v 5400"
       style="fill:none;stroke:#adadad;stroke-width:10;stroke-linecap:butt;stroke-linejoin:round;stroke-miterlimit:10;stroke-dasharray:none;stroke-opacity:1"
       transform="matrix(0.13333333,0,0,-0.13333333,0,880)" />
    <path
       id="path7"
       d="m 7443.28,1197.19 v 5400"
       style="fill:none;stroke:#adadad;stroke-width:10;stroke-linecap:butt;stroke-linejoin:round;stroke-miterlimit:10;stroke-dasharray:none;stroke-opacity:1"
       transform="matrix(0.13333333,0,0,-0.13333333,0,880)" />
    <path
       id="path8"
       d="M 8342.7,2103.48 H 1150.2"
       style="fill:none;stroke:#adadad;stroke-width:10;stroke-linecap:butt;stroke-linejoin:round;stroke-miterlimit:10;stroke-dasharray:none;stroke-opacity:1"
       transform="matrix(0.13333333,0,0,-0.13333333,0,880)" />
    <path
       id="path9"
       d="M 8342.7,3013.52 H 1150.2"
       style="fill:none;stroke:#adadad;stroke-width:10;stroke-linecap:butt;stroke-linejoin:round;stroke-miterlimit:10;stroke-dasharray:none;stroke-opacity:1"
       transform="matrix(0.13333333,0,0,-0.13333333,0,880)" />
    <path
       id="path10"
       d="M 8342.7,3923.59 H 1150.2"
       style="fill:none;stroke:#adadad;stroke-width:10;stroke-linecap:butt;stroke-linejoin:round;stroke-miterlimit:10;stroke-dasharray:none;stroke-opacity:1"
       transform="matrix(0.13333333,0,0,-0.13333333,0,880)" />
    <path
       id="path11"
       d="M 8342.7,4833.63 H 1150.2"
       style="fill:none;stroke:#adadad;stroke-width:10;stroke-linecap:butt;stroke-linejoin:round;stroke-miterlimit:10;stroke-dasharray:none;stroke-opacity:1"
       transform="matrix(0.13333333,0,0,-0.13333333,0,880)" />
    <path
       id="path12"
       d="M 8342.7,5743.67 H 1150.2"
       style="fill:none;stroke:#adadad;stroke-width:10;stroke-linecap:butt;stroke-linejoin:round;stroke-miterlimit:10;stroke-dasharray:none;stroke-opacity:1"
       transform="matrix(0.13333333,0,0,-0.13333333,0,880)" />
    <path
       id="path13"
       d="M 1150.2,1197.19 H 8342.7"
       style="fill:none;stroke:#262626;stroke-width:5.0025;stroke-linecap:square;stroke-linejoin:round;stroke-miterlimit:10;stroke-dasharray:none;stroke-opacity:1"
       transform="matrix(0.13333333,0,0,-0.13333333,0,880)" />
    <path
       id="path14"
       d="M 1150.2,6597.19 H 8342.7"
       style="fill:none;stroke:#262626;stroke-width:5.0025;stroke-linecap:square;stroke-linejoin:round;stroke-miterlimit:10;stroke-dasharray:none;stroke-opacity:1"
       transform="matrix(0.13333333,0,0,-0.13333333,0,880)" />
    <path
       id="path15"
       d="m 2043.95,1197.19 v 71.91"
       style="fill:none;stroke:#262626;stroke-width:5.0025;stroke-linecap:square;stroke-linejoin:round;stroke-miterlimit:10;stroke-dasharray:none;stroke-opacity:1"
       transform="matrix(0.13333333,0,0,-0.13333333,0,880)" />
    <path
       id="path16"
       d="m 2943.83,1197.19 v 71.91"
       style="fill:none;stroke:#262626;stroke-width:5.0025;stroke-linecap:square;stroke-linejoin:round;stroke-miterlimit:10;stroke-dasharray:none;stroke-opacity:1"
       transform="matrix(0.13333333,0,0,-0.13333333,0,880)" />
    <path
       id="path17"
       d="m 3843.71,1197.19 v 71.91"
       style="fill:none;stroke:#262626;stroke-width:5.0025;stroke-linecap:square;stroke-linejoin:round;stroke-miterlimit:10;stroke-dasharray:none;stroke-opacity:1"
       transform="matrix(0.13333333,0,0,-0.13333333,0,880)" />
    <path
       id="path18"
       d="m 4743.59,1197.19 v 71.91"
       style="fill:none;stroke:#262626;stroke-width:5.0025;stroke-linecap:square;stroke-linejoin:round;stroke-miterlimit:10;stroke-dasharray:none;stroke-opacity:1"
       transform="matrix(0.13333333,0,0,-0.13333333,0,880)" />
    <path
       id="path19"
       d="m 5643.48,1197.19 v 71.91"
       style="fill:none;stroke:#262626;stroke-width:5.0025;stroke-linecap:square;stroke-linejoin:round;stroke-miterlimit:10;stroke-dasharray:none;stroke-opacity:1"
       transform="matrix(0.13333333,0,0,-0.13333333,0,880)" />
    <path
       id="path20"
       d="m 6543.36,1197.19 v 71.91"
       style="fill:none;stroke:#262626;stroke-width:5.0025;stroke-linecap:square;stroke-linejoin:round;stroke-miterlimit:10;stroke-dasharray:none;stroke-opacity:1"
       transform="matrix(0.13333333,0,0,-0.13333333,0,880)" />
    <path
       id="path21"
       d="m 7443.28,1197.19 v 71.91"
       style="fill:none;stroke:#262626;stroke-width:5.0025;stroke-linecap:square;stroke-linejoin:round;stroke-miterlimit:10;stroke-dasharray:none;stroke-opacity:1"
       transform="matrix(0.13333333,0,0,-0.13333333,0,880)" />
    <path
       id="path22"
       d="m 2043.95,6597.19 v -71.92"
       style="fill:none;stroke:#262626;stroke-width:5.0025;stroke-linecap:square;stroke-linejoin:round;stroke-miterlimit:10;stroke-dasharray:none;stroke-opacity:1"
       transform="matrix(0.13333333,0,0,-0.13333333,0,880)" />
    <path
       id="path23"
       d="m 2943.83,6597.19 v -71.92"
       style="fill:none;stroke:#262626;stroke-width:5.0025;stroke-linecap:square;stroke-linejoin:round;stroke-miterlimit:10;stroke-dasharray:none;stroke-opacity:1"
       transform="matrix(0.13333333,0,0,-0.13333333,0,880)" />
    <path
       id="path24"
       d="m 3843.71,6597.19 v -71.92"
       style="fill:none;stroke:#262626;stroke-width:5.0025;stroke-linecap:square;stroke-linejoin:round;stroke-miterlimit:10;stroke-dasharray:none;stroke-opacity:1"
       transform="matrix(0.13333333,0,0,-0.13333333,0,880)" />
    <path
       id="path25"
       d="m 4743.59,6597.19 v -71.92"
       style="fill:none;stroke:#262626;stroke-width:5.0025;stroke-linecap:square;stroke-linejoin:round;stroke-miterlimit:10;stroke-dasharray:none;stroke-opacity:1"
       transform="matrix(0.13333333,0,0,-0.13333333,0,880)" />
    <path
       id="path26"
       d="m 5643.48,6597.19 v -71.92"
       style="fill:none;stroke:#262626;stroke-width:5.0025;stroke-linecap:square;stroke-linejoin:round;stroke-miterlimit:10;stroke-dasharray:none;stroke-opacity:1"
       transform="matrix(0.13333333,0,0,-0.13333333,0,880)" />
    <path
       id="path27"
       d="m 6543.36,6597.19 v -71.92"
       style="fill:none;stroke:#262626;stroke-width:5.0025;stroke-linecap:square;stroke-linejoin:round;stroke-miterlimit:10;stroke-dasharray:none;stroke-opacity:1"
       transform="matrix(0.13333333,0,0,-0.13333333,0,880)" />
    <path
       id="path28"
       d="m 7443.28,6597.19 v -71.92"
       style="fill:none;stroke:#262626;stroke-width:5.0025;stroke-linecap:square;stroke-linejoin:round;stroke-miterlimit:10;stroke-dasharray:none;stroke-opacity:1"
       transform="matrix(0.13333333,0,0,-0.13333333,0,880)" />
    <path
       id="path29"
       d="m 1781.13,867.578 h 76.25 v 22.9727 h -76.25 z"
       style="fill:#262626;fill-opacity:1;fill-rule:nonzero;stroke:none"
       transform="matrix(0.13333333,0,0,-0.13333333,0,880)" />
    <path
       id="path30"
       d="M 1955.82,955.551 V 790.699 h 28.28 v 231.411 h -18.59 c -10,-35.63 -16.41,-40.309 -59.85,-46.09 v -20.469 z"
       style="fill:#262626;fill-opacity:1;fill-rule:nonzero;stroke:none"
       transform="matrix(0.13333333,0,0,-0.13333333,0,880)" />
    <path
       id="path31"
       d="m 2078.71,790.699 h 33.2773 v 33.2813 H 2078.71 Z"
       style="fill:#262626;fill-opacity:1;fill-rule:nonzero;stroke:none"
       transform="matrix(0.13333333,0,0,-0.13333333,0,880)" />
    <path
       id="path32"
       d="m 2292.23,1017.58 h -117.19 l -16.88,-123.439 h 25.94 c 13.13,15.629 23.91,21.089 41.88,21.089 30.31,0 49.22,-20.781 49.22,-54.371 0,-32.66 -18.91,-52.5 -49.54,-52.5 -24.68,0 -39.68,12.5 -46.4,37.973 h -28.13 c 3.75,-18.441 7.03,-27.5 13.75,-35.781 12.82,-17.352 35.78,-27.192 61.41,-27.192 45.78,0 77.81,33.282 77.81,81.25 0,44.84 -29.84,75.473 -73.28,75.473 -16.09,0 -28.91,-4.062 -42.03,-13.75 l 9.06,63.438 h 94.38 z"
       style="fill:#262626;fill-opacity:1;fill-rule:nonzero;stroke:none"
       transform="matrix(0.13333333,0,0,-0.13333333,0,880)" />
    <path
       id="path33"
       d="m 2816.02,867.578 h 76.25 v 22.9727 h -76.25 z"
       style="fill:#262626;fill-opacity:1;fill-rule:nonzero;stroke:none"
       transform="matrix(0.13333333,0,0,-0.13333333,0,880)" />
    <path
       id="path34"
       d="M 2990.7,955.551 V 790.699 h 28.28 v 231.411 h -18.59 c -10,-35.63 -16.41,-40.309 -59.84,-46.09 v -20.469 z"
       style="fill:#262626;fill-opacity:1;fill-rule:nonzero;stroke:none"
       transform="matrix(0.13333333,0,0,-0.13333333,0,880)" />
    <path
       id="path35"
       d="m 3580.9,867.578 h 76.25 v 22.9727 h -76.25 z"
       style="fill:#262626;fill-opacity:1;fill-rule:nonzero;stroke:none"
       transform="matrix(0.13333333,0,0,-0.13333333,0,880)" />
    <path
       id="path36"
       d="m 3760.74,1022.11 c -21.09,0 -40.31,-9.69 -52.19,-25.309 -14.68,-20.469 -22.03,-51.25 -22.03,-94.071 0,-78.121 25.63,-119.371 74.22,-119.371 47.97,0 74.22,41.25 74.22,117.5 0,44.692 -7.03,74.84 -22.03,95.942 -11.88,15.929 -30.78,25.309 -52.19,25.309 z m 0,-25.001 c 30.47,0 45.47,-31.089 45.47,-93.75 0,-65.937 -14.69,-96.718 -46.09,-96.718 -29.69,0 -44.85,32.031 -44.85,95.781 0,63.598 15.16,94.687 45.47,94.687 z"
       style="fill:#262626;fill-opacity:1;fill-rule:nonzero;stroke:none"
       transform="matrix(0.13333333,0,0,-0.13333333,0,880)" />
    <path
       id="path37"
       d="m 3878.52,790.699 h 33.2813 v 33.2813 H 3878.52 Z"
       style="fill:#262626;fill-opacity:1;fill-rule:nonzero;stroke:none"
       transform="matrix(0.13333333,0,0,-0.13333333,0,880)" />
    <path
       id="path38"
       d="M 4091.99,1017.58 H 3974.8 l -16.87,-123.439 h 25.94 c 13.12,15.629 23.9,21.089 41.87,21.089 30.31,0 49.22,-20.781 49.22,-54.371 0,-32.66 -18.91,-52.5 -49.53,-52.5 -24.69,0 -39.69,12.5 -46.41,37.973 h -28.12 c 3.75,-18.441 7.03,-27.5 13.75,-35.781 12.81,-17.352 35.78,-27.192 61.4,-27.192 45.79,0 77.82,33.282 77.82,81.25 0,44.84 -29.85,75.473 -73.28,75.473 -16.1,0 -28.91,-4.062 -42.04,-13.75 l 9.07,63.438 h 94.37 z"
       style="fill:#262626;fill-opacity:1;fill-rule:nonzero;stroke:none"
       transform="matrix(0.13333333,0,0,-0.13333333,0,880)" />
    <path
       id="path39"
       d="m 4741.56,1022.11 c -21.09,0 -40.31,-9.69 -52.18,-25.309 -14.69,-20.469 -22.04,-51.25 -22.04,-94.071 0,-78.121 25.63,-119.371 74.22,-119.371 47.97,0 74.22,41.25 74.22,117.5 0,44.692 -7.03,74.84 -22.03,95.942 -11.87,15.929 -30.78,25.309 -52.19,25.309 z m 0,-25.001 c 30.47,0 45.47,-31.089 45.47,-93.75 0,-65.937 -14.69,-96.718 -46.09,-96.718 -29.69,0 -44.85,32.031 -44.85,95.781 0,63.598 15.16,94.687 45.47,94.687 z"
       style="fill:#262626;fill-opacity:1;fill-rule:nonzero;stroke:none"
       transform="matrix(0.13333333,0,0,-0.13333333,0,880)" />
    <path
       id="path40"
       d="m 5506.48,1022.11 c -21.09,0 -40.31,-9.69 -52.18,-25.309 -14.69,-20.469 -22.03,-51.25 -22.03,-94.071 0,-78.121 25.62,-119.371 74.21,-119.371 47.97,0 74.22,41.25 74.22,117.5 0,44.692 -7.03,74.84 -22.03,95.942 -11.87,15.929 -30.78,25.309 -52.19,25.309 z m 0,-25.001 c 30.47,0 45.47,-31.089 45.47,-93.75 0,-65.937 -14.68,-96.718 -46.09,-96.718 -29.69,0 -44.84,32.031 -44.84,95.781 0,63.598 15.15,94.687 45.46,94.687 z"
       style="fill:#262626;fill-opacity:1;fill-rule:nonzero;stroke:none"
       transform="matrix(0.13333333,0,0,-0.13333333,0,880)" />
    <path
       id="path41"
       d="m 5624.22,790.699 h 33.2813 v 33.2813 H 5624.22 Z"
       style="fill:#262626;fill-opacity:1;fill-rule:nonzero;stroke:none"
       transform="matrix(0.13333333,0,0,-0.13333333,0,880)" />
    <path
       id="path42"
       d="m 5837.73,1017.58 h -117.18 l -16.88,-123.439 h 25.94 c 13.12,15.629 23.91,21.089 41.87,21.089 30.32,0 49.22,-20.781 49.22,-54.371 0,-32.66 -18.9,-52.5 -49.53,-52.5 -24.69,0 -39.69,12.5 -46.4,37.973 h -28.13 c 3.75,-18.441 7.03,-27.5 13.75,-35.781 12.81,-17.352 35.78,-27.192 61.41,-27.192 45.78,0 77.81,33.282 77.81,81.25 0,44.84 -29.84,75.473 -73.28,75.473 -16.1,0 -28.91,-4.062 -42.03,-13.75 l 9.06,63.438 h 94.37 z"
       style="fill:#262626;fill-opacity:1;fill-rule:nonzero;stroke:none"
       transform="matrix(0.13333333,0,0,-0.13333333,0,880)" />
    <path
       id="path43"
       d="M 6536.21,955.551 V 790.699 h 28.28 v 231.411 h -18.59 c -10,-35.63 -16.41,-40.309 -59.85,-46.09 v -20.469 z"
       style="fill:#262626;fill-opacity:1;fill-rule:nonzero;stroke:none"
       transform="matrix(0.13333333,0,0,-0.13333333,0,880)" />
    <path
       id="path44"
       d="M 7301.09,955.551 V 790.699 h 28.29 v 231.411 h -18.6 c -10,-35.63 -16.4,-40.309 -59.84,-46.09 v -20.469 z"
       style="fill:#262626;fill-opacity:1;fill-rule:nonzero;stroke:none"
       transform="matrix(0.13333333,0,0,-0.13333333,0,880)" />
    <path
       id="path45"
       d="m 7424.02,790.699 h 33.2813 v 33.2813 H 7424.02 Z"
       style="fill:#262626;fill-opacity:1;fill-rule:nonzero;stroke:none"
       transform="matrix(0.13333333,0,0,-0.13333333,0,880)" />
    <path
       id="path46"
       d="m 7637.5,1017.58 h -117.19 l -16.87,-123.439 h 25.94 c 13.12,15.629 23.9,21.089 41.87,21.089 30.31,0 49.22,-20.781 49.22,-54.371 0,-32.66 -18.91,-52.5 -49.53,-52.5 -24.69,0 -39.69,12.5 -46.41,37.973 h -28.12 c 3.75,-18.441 7.03,-27.5 13.75,-35.781 12.81,-17.352 35.78,-27.192 61.4,-27.192 45.78,0 77.82,33.282 77.82,81.25 0,44.84 -29.85,75.473 -73.29,75.473 -16.09,0 -28.9,-4.062 -42.03,-13.75 l 9.07,63.438 h 94.37 z"
       style="fill:#262626;fill-opacity:1;fill-rule:nonzero;stroke:none"
       transform="matrix(0.13333333,0,0,-0.13333333,0,880)" />
    <path
       id="path47"
       d="m 4273.83,681.84 c 0,8.43 2.97,15.699 8.9,21.832 5.94,6.168 13.32,9.219 22.15,9.219 8.75,0 16.14,-3.012 22.19,-9.102 6.06,-6.059 9.1,-13.359 9.1,-21.949 0,-8.75 -3.04,-16.18 -9.1,-22.231 -6.05,-6.058 -13.44,-9.058 -22.19,-9.058 -8.83,0 -16.21,3.078 -22.15,9.219 -5.93,6.132 -8.9,13.468 -8.9,22.07 z m 115.66,0 c 0,8.43 2.97,15.699 8.95,21.832 5.97,6.168 13.47,9.219 22.46,9.219 8.59,0 15.9,-3.012 21.95,-9.102 6.06,-6.059 9.1,-13.359 9.1,-21.949 0,-8.75 -3.04,-16.18 -9.1,-22.231 -6.05,-6.058 -13.36,-9.058 -21.95,-9.058 -8.99,0 -16.49,3.078 -22.46,9.219 -5.98,6.132 -8.95,13.468 -8.95,22.07"
       style="fill:#262626;fill-opacity:1;fill-rule:nonzero;stroke:none"
       transform="matrix(0.13333333,0,0,-0.13333333,0,880)" />
    <path
       id="path48"
       d="m 4218.59,163.52 c 0,5.851 2.66,11.402 7.97,16.64 l 168.75,165.578 -59.53,166.992 c -4.69,12.661 -9.61,22.7 -14.76,30.122 -5.16,7.418 -12.62,11.128 -22.39,11.128 -4.53,0 -6.79,2.661 -6.79,7.969 0.39,2.352 1.36,4.18 2.93,5.551 1.56,1.371 3.63,2.07 6.21,2.07 41.95,0 67.34,-12.418 76.17,-37.269 L 4499.02,192.23 c 5.24,-17.031 10.59,-28.48 16.06,-34.339 1.95,-2.891 2.93,-4.84 2.93,-5.86 0,-3.75 -1.56,-5.621 -4.69,-5.621 h -32.46 c -10,2.961 -17.93,11.68 -23.79,26.129 l -54.73,153.512 -145.07,-170.5 c -7.19,-6.879 -13.64,-10.321 -19.34,-10.321 -5.08,0 -9.57,1.758 -13.48,5.321 -3.9,3.551 -5.86,7.89 -5.86,12.969"
       style="fill:#262626;fill-opacity:1;fill-rule:nonzero;stroke:none"
       transform="matrix(0.13333333,0,0,-0.13333333,0,880)" />
    <path
       id="path49"
       d="m 4724.22,4.37109 c -22.27,17.57811 -41.49,37.73831 -57.62,60.46871 -16.13,22.7422 -29.3,47.0002 -39.53,72.8202 -10.23,25.82 -17.89,52.809 -22.97,80.93 -5.08,28.129 -7.62,56.332 -7.62,84.609 0,28.75 2.54,57.192 7.62,85.321 5.08,28.121 12.81,55.152 23.24,81.132 10.43,25.969 23.75,50.309 39.96,72.969 16.22,22.649 35.2,42.461 56.92,59.41 0,0.778 0.98,1.168 2.93,1.168 h 5.51 c 1.17,0 2.22,-0.539 3.2,-1.597 0.98,-1.051 1.48,-2.262 1.48,-3.672 0,-1.719 -0.39,-2.969 -1.17,-3.75 -19.53,-19.141 -35.78,-39.649 -48.75,-61.52 -12.97,-21.879 -23.44,-45.199 -31.37,-69.93 -7.92,-24.718 -13.63,-50.308 -17.14,-76.75 -3.52,-26.449 -5.28,-54.031 -5.28,-82.781 0,-127.179 33.99,-223.7888 101.96,-289.7967 1.17,-1.1718 1.75,-2.8125 1.75,-4.92183 0,-1.01953 -0.54,-2.14844 -1.6,-3.39844 -1.05,-1.25 -2.07,-1.88281 -3.08,-1.88281 h -5.51 c -1.95,0 -2.93,0.39062 -2.93,1.17187"
       style="fill:#262626;fill-opacity:1;fill-rule:nonzero;stroke:none"
       transform="matrix(0.13333333,0,0,-0.13333333,0,880)" />
    <path
       id="path50"
       d="m 4921.45,139.961 c -48.99,0 -82.31,20.16 -100.04,60.508 -17.66,40.351 -26.53,88.402 -26.53,144.101 0,34.77 3.21,67.461 9.57,98.129 6.37,30.66 18.95,56.672 37.78,78.039 18.82,21.371 45.23,32.071 79.22,32.071 26.4,0 48,-6.438 64.8,-19.329 16.8,-12.89 29.57,-29.531 38.4,-49.929 8.79,-20.391 14.76,-42.262 17.97,-65.621 3.2,-23.36 4.8,-47.809 4.8,-73.36 0,-34.371 -3.16,-66.558 -9.49,-96.558 -6.33,-30 -18.75,-55.512 -37.34,-76.532 -18.52,-21.011 -44.93,-31.519 -79.14,-31.519 z m 0,15.59 c 22.26,0 38.86,11.398 49.8,34.25 10.94,22.859 17.66,48.168 20.23,75.898 2.54,27.742 3.79,57.231 3.79,88.481 0,30.082 -1.25,57.808 -3.79,83.199 -2.57,25.391 -9.25,48.402 -20.07,69.031 -10.82,20.621 -27.46,30.93 -49.96,30.93 -22.66,0 -39.46,-10.352 -50.4,-31.051 -10.93,-20.699 -17.65,-43.707 -20.23,-69.019 -2.5,-25.321 -3.79,-53.008 -3.79,-83.09 0,-22.27 0.55,-43.278 1.64,-63.008 1.1,-19.723 3.99,-40.082 8.67,-61.051 4.69,-20.98 12.27,-38.641 22.7,-53.012 10.43,-14.379 24.22,-21.558 41.41,-21.558"
       style="fill:#262626;fill-opacity:1;fill-rule:nonzero;stroke:none"
       transform="matrix(0.13333333,0,0,-0.13333333,0,880)" />
    <path
       id="path51"
       d="m 5110.47,3.19922 c -3.52,0 -5.27,1.76172 -5.27,5.28125 0,1.71873 0.39,2.96873 1.17,3.75003 68.36,66.789 102.54,163.7895 102.54,290.9685 0,127.192 -33.79,223.789 -101.37,289.813 -1.56,0.937 -2.34,2.578 -2.34,4.918 0,1.41 0.54,2.621 1.56,3.672 1.09,1.058 2.3,1.597 3.71,1.597 h 5.51 c 1.17,0 2.15,-0.39 2.93,-1.168 28.75,-22.66 52.69,-50.191 71.83,-82.621 19.14,-32.422 33.17,-66.988 42.03,-103.711 8.87,-36.719 13.28,-74.219 13.28,-112.5 0,-28.277 -2.38,-56.168 -7.14,-83.629 -4.77,-27.461 -12.39,-54.531 -22.86,-81.211 -10.46,-26.679 -23.71,-51.2887 -39.72,-73.8277 -16.02,-22.543 -35.16,-42.5821 -57.42,-60.16021 -0.78,-0.78125 -1.76,-1.17187 -2.93,-1.17187 h -5.51"
       style="fill:#262626;fill-opacity:1;fill-rule:nonzero;stroke:none"
       transform="matrix(0.13333333,0,0,-0.13333333,0,880)" />
    <path
       id="path52"
       d="m 7542.54,298.949 c 0,1.711 0.55,3.242 1.64,4.571 l 67.03,66.789 -67.03,67.031 c -1.09,1.101 -1.64,2.539 -1.64,4.34 0,1.558 0.66,3.05 1.91,4.41 1.33,1.371 2.85,2.031 4.65,2.031 1.41,0 3.01,-0.699 4.81,-2.101 l 66.79,-66.68 66.45,66.68 c 1.8,1.402 3.36,2.101 4.69,2.101 1.79,0 3.32,-0.621 4.57,-1.871 1.25,-1.25 1.87,-2.77 1.87,-4.57 0,-1.801 -0.51,-3.239 -1.52,-4.34 l -67.03,-67.031 67.03,-66.789 c 1.01,-1.329 1.52,-2.86 1.52,-4.571 0,-1.797 -0.62,-3.328 -1.87,-4.578 -1.25,-1.25 -2.78,-1.871 -4.57,-1.871 -1.57,0 -3.13,0.781 -4.69,2.34 l -66.45,66.449 -66.79,-66.449 c -1.57,-1.559 -3.17,-2.34 -4.81,-2.34 -1.8,0 -3.32,0.66 -4.65,2.031 -1.25,1.371 -1.91,2.848 -1.91,4.418"
       style="fill:#262626;fill-opacity:1;fill-rule:nonzero;stroke:none"
       transform="matrix(0.13333333,0,0,-0.13333333,0,880)" />
    <path
       id="path53"
       d="m 7833.01,454.531 v -164.84 h 28.28 V 521.09 h -18.59 c -10,-35.621 -16.41,-40.309 -59.85,-46.09 v -20.469 z"
       style="fill:#262626;fill-opacity:1;fill-rule:nonzero;stroke:none"
       transform="matrix(0.13333333,0,0,-0.13333333,0,880)" />
    <path
       id="path54"
       d="m 8016.09,521.09 c -21.09,0 -40.31,-9.68 -52.18,-25.309 -14.69,-20.472 -22.03,-51.25 -22.03,-94.062 0,-78.129 25.62,-119.379 74.21,-119.379 47.97,0 74.22,41.25 74.22,117.5 0,44.691 -7.03,74.851 -22.03,95.941 -11.87,15.938 -30.78,25.309 -52.19,25.309 z m 0,-25 c 30.47,0 45.47,-31.09 45.47,-93.75 0,-65.93 -14.68,-96.719 -46.09,-96.719 -29.69,0 -44.84,32.039 -44.84,95.789 0,63.59 15.15,94.68 45.46,94.68 z"
       style="fill:#262626;fill-opacity:1;fill-rule:nonzero;stroke:none"
       transform="matrix(0.13333333,0,0,-0.13333333,0,880)" />
    <path
       id="path55"
       d="m 8121.91,508.59 h 60.9414 v 18.4414 H 8121.91 Z"
       style="fill:#262626;fill-opacity:1;fill-rule:nonzero;stroke:none"
       transform="matrix(0.13333333,0,0,-0.13333333,0,880)" />
    <path
       id="path56"
       d="m 8251.99,532.34 h 12.35 c 24.53,0 37.5,-11.399 37.5,-33.75 0,-23.281 -14.07,-37.34 -37.35,-37.34 -24.84,0 -36.87,12.5 -38.28,39.691 h -22.66 c 1.1,-14.851 3.6,-24.531 7.97,-32.82 9.53,-17.812 27.19,-26.871 52.03,-26.871 37.35,0 61.41,22.5 61.41,57.66 0,23.59 -9.06,36.25 -30.78,44.059 16.87,6.871 25.31,19.691 25.31,38.281 0,31.719 -20.62,50.941 -55.15,50.941 -36.72,0 -56.1,-20.472 -56.88,-59.531 h 22.5 c 0.31,11.25 1.25,17.649 4.06,23.281 5.16,10.469 16.41,16.559 30.47,16.559 20,0 32.03,-12.031 32.03,-32.031 0,-12.969 -4.53,-20.938 -14.53,-25.309 -6.25,-2.5 -14.37,-3.601 -30,-3.75 z"
       style="fill:#262626;fill-opacity:1;fill-rule:nonzero;stroke:none"
       transform="matrix(0.13333333,0,0,-0.13333333,0,880)" />
    <path
       id="path57"
       d="m 1150.2,1197.19 v 5400"
       style="fill:none;stroke:#262626;stroke-width:5.0025;stroke-linecap:square;stroke-linejoin:round;stroke-miterlimit:10;stroke-dasharray:none;stroke-opacity:1"
       transform="matrix(0.13333333,0,0,-0.13333333,0,880)" />
    <path
       id="path58"
       d="m 8342.7,1197.19 v 5400"
       style="fill:none;stroke:#262626;stroke-width:5.0025;stroke-linecap:square;stroke-linejoin:round;stroke-miterlimit:10;stroke-dasharray:none;stroke-opacity:1"
       transform="matrix(0.13333333,0,0,-0.13333333,0,880)" />
    <path
       id="path59"
       d="m 1150.2,2103.48 h 71.91"
       style="fill:none;stroke:#262626;stroke-width:5.0025;stroke-linecap:square;stroke-linejoin:round;stroke-miterlimit:10;stroke-dasharray:none;stroke-opacity:1"
       transform="matrix(0.13333333,0,0,-0.13333333,0,880)" />
    <path
       id="path60"
       d="m 1150.2,3013.52 h 71.91"
       style="fill:none;stroke:#262626;stroke-width:5.0025;stroke-linecap:square;stroke-linejoin:round;stroke-miterlimit:10;stroke-dasharray:none;stroke-opacity:1"
       transform="matrix(0.13333333,0,0,-0.13333333,0,880)" />
    <path
       id="path61"
       d="m 1150.2,3923.59 h 71.91"
       style="fill:none;stroke:#262626;stroke-width:5.0025;stroke-linecap:square;stroke-linejoin:round;stroke-miterlimit:10;stroke-dasharray:none;stroke-opacity:1"
       transform="matrix(0.13333333,0,0,-0.13333333,0,880)" />
    <path
       id="path62"
       d="m 1150.2,4833.63 h 71.91"
       style="fill:none;stroke:#262626;stroke-width:5.0025;stroke-linecap:square;stroke-linejoin:round;stroke-miterlimit:10;stroke-dasharray:none;stroke-opacity:1"
       transform="matrix(0.13333333,0,0,-0.13333333,0,880)" />
    <path
       id="path63"
       d="m 1150.2,5743.67 h 71.91"
       style="fill:none;stroke:#262626;stroke-width:5.0025;stroke-linecap:square;stroke-linejoin:round;stroke-miterlimit:10;stroke-dasharray:none;stroke-opacity:1"
       transform="matrix(0.13333333,0,0,-0.13333333,0,880)" />
    <path
       id="path64"
       d="m 8342.7,2103.48 h -71.92"
       style="fill:none;stroke:#262626;stroke-width:5.0025;stroke-linecap:square;stroke-linejoin:round;stroke-miterlimit:10;stroke-dasharray:none;stroke-opacity:1"
       transform="matrix(0.13333333,0,0,-0.13333333,0,880)" />
    <path
       id="path65"
       d="m 8342.7,3013.52 h -71.92"
       style="fill:none;stroke:#262626;stroke-width:5.0025;stroke-linecap:square;stroke-linejoin:round;stroke-miterlimit:10;stroke-dasharray:none;stroke-opacity:1"
       transform="matrix(0.13333333,0,0,-0.13333333,0,880)" />
    <path
       id="path66"
       d="m 8342.7,3923.59 h -71.92"
       style="fill:none;stroke:#262626;stroke-width:5.0025;stroke-linecap:square;stroke-linejoin:round;stroke-miterlimit:10;stroke-dasharray:none;stroke-opacity:1"
       transform="matrix(0.13333333,0,0,-0.13333333,0,880)" />
    <path
       id="path67"
       d="m 8342.7,4833.63 h -71.92"
       style="fill:none;stroke:#262626;stroke-width:5.0025;stroke-linecap:square;stroke-linejoin:round;stroke-miterlimit:10;stroke-dasharray:none;stroke-opacity:1"
       transform="matrix(0.13333333,0,0,-0.13333333,0,880)" />
    <path
       id="path68"
       d="m 8342.7,5743.67 h -71.92"
       style="fill:none;stroke:#262626;stroke-width:5.0025;stroke-linecap:square;stroke-linejoin:round;stroke-miterlimit:10;stroke-dasharray:none;stroke-opacity:1"
       transform="matrix(0.13333333,0,0,-0.13333333,0,880)" />
    <path
       id="path69"
       d="m 704.18,2211.13 c -21.09,0 -40.309,-9.68 -52.192,-25.31 -14.687,-20.47 -22.027,-51.25 -22.027,-94.06 0,-78.13 25.629,-119.38 74.219,-119.38 47.968,0 74.218,41.25 74.218,117.5 0,44.69 -7.027,74.85 -22.027,95.94 -11.883,15.94 -30.781,25.31 -52.191,25.31 z m 0,-25 c 30.468,0 45.468,-31.09 45.468,-93.75 0,-65.93 -14.687,-96.72 -46.097,-96.72 -29.68,0 -44.84,32.04 -44.84,95.79 0,63.59 15.16,94.68 45.469,94.68 z"
       style="fill:#262626;fill-opacity:1;fill-rule:nonzero;stroke:none"
       transform="matrix(0.13333333,0,0,-0.13333333,0,880)" />
    <path
       id="path70"
       d="m 821.91,1979.73 h 33.2813 v 33.2813 H 821.91 Z"
       style="fill:#262626;fill-opacity:1;fill-rule:nonzero;stroke:none"
       transform="matrix(0.13333333,0,0,-0.13333333,0,880)" />
    <path
       id="path71"
       d="M 1044.96,2007.54 H 925.59 c 2.961,19.22 13.121,31.41 41.09,48.28 l 31.871,17.97 c 31.719,17.66 48.129,41.25 48.129,69.84 0,19.07 -7.81,37.03 -21.25,49.53 -13.44,12.19 -30,17.97 -51.41,17.97 -28.899,0 -50.309,-10.31 -62.809,-30.15 -7.973,-12.19 -11.563,-26.57 -12.191,-49.85 h 28.281 c 0.937,15.63 2.82,24.85 6.719,32.66 7.351,14.06 22.031,22.66 38.91,22.66 25.621,0 44.84,-18.6 44.84,-43.6 0,-18.44 -10.47,-34.53 -30.622,-45.94 l -29.527,-17.34 c -47.351,-27.19 -61.101,-48.91 -63.601,-99.53 h 150.94 z"
       style="fill:#262626;fill-opacity:1;fill-rule:nonzero;stroke:none"
       transform="matrix(0.13333333,0,0,-0.13333333,0,880)" />
    <path
       id="path72"
       d="m 524.18,3121.21 c -21.09,0 -40.309,-9.69 -52.192,-25.31 -14.687,-20.47 -22.027,-51.25 -22.027,-94.06 0,-78.13 25.629,-119.38 74.219,-119.38 47.968,0 74.218,41.25 74.218,117.5 0,44.69 -7.027,74.84 -22.027,95.94 -11.883,15.94 -30.781,25.31 -52.191,25.31 z m 0,-25 c 30.468,0 45.468,-31.09 45.468,-93.75 0,-65.94 -14.687,-96.72 -46.097,-96.72 -29.68,0 -44.84,32.03 -44.84,95.78 0,63.6 15.16,94.69 45.469,94.69 z"
       style="fill:#262626;fill-opacity:1;fill-rule:nonzero;stroke:none"
       transform="matrix(0.13333333,0,0,-0.13333333,0,880)" />
    <path
       id="path73"
       d="m 641.91,2889.81 h 33.2813 v 33.2813 H 641.91 Z"
       style="fill:#262626;fill-opacity:1;fill-rule:nonzero;stroke:none"
       transform="matrix(0.13333333,0,0,-0.13333333,0,880)" />
    <path
       id="path74"
       d="M 864.961,2917.62 H 745.59 c 2.961,19.22 13.121,31.4 41.09,48.28 l 31.871,17.97 c 31.719,17.65 48.129,41.25 48.129,69.84 0,19.06 -7.809,37.03 -21.25,49.53 -13.442,12.19 -30,17.97 -51.41,17.97 -28.899,0 -50.309,-10.31 -62.809,-30.16 -7.973,-12.18 -11.563,-26.56 -12.191,-49.84 h 28.281 c 0.937,15.63 2.82,24.84 6.719,32.66 7.351,14.06 22.031,22.65 38.91,22.65 25.621,0 44.84,-18.59 44.84,-43.59 0,-18.44 -10.469,-34.53 -30.622,-45.94 l -29.527,-17.34 c -47.351,-27.19 -61.101,-48.91 -63.601,-99.53 h 150.941 z"
       style="fill:#262626;fill-opacity:1;fill-rule:nonzero;stroke:none"
       transform="matrix(0.13333333,0,0,-0.13333333,0,880)" />
    <path
       id="path75"
       d="M 1033.36,3116.68 H 916.172 l -16.871,-123.44 h 25.929 c 13.129,15.63 23.911,21.1 41.879,21.1 30.313,0 49.221,-20.79 49.221,-54.38 0,-32.66 -18.908,-52.5 -49.529,-52.5 -24.692,0 -39.692,12.5 -46.41,37.97 H 892.27 c 3.75,-18.44 7.031,-27.5 13.75,-35.78 12.808,-17.35 35.781,-27.19 61.402,-27.19 45.778,0 77.808,33.28 77.808,81.25 0,44.84 -29.84,75.47 -73.281,75.47 -16.09,0 -28.898,-4.06 -42.027,-13.75 l 9.058,63.44 h 94.38 z"
       style="fill:#262626;fill-opacity:1;fill-rule:nonzero;stroke:none"
       transform="matrix(0.13333333,0,0,-0.13333333,0,880)" />
    <path
       id="path76"
       d="m 704.18,4031.25 c -21.09,0 -40.309,-9.69 -52.192,-25.31 -14.687,-20.47 -22.027,-51.25 -22.027,-94.07 0,-78.12 25.629,-119.37 74.219,-119.37 47.968,0 74.218,41.25 74.218,117.5 0,44.69 -7.027,74.84 -22.027,95.94 -11.883,15.93 -30.781,25.31 -52.191,25.31 z m 0,-25 c 30.468,0 45.468,-31.09 45.468,-93.75 0,-65.94 -14.687,-96.72 -46.097,-96.72 -29.68,0 -44.84,32.03 -44.84,95.78 0,63.6 15.16,94.69 45.469,94.69 z"
       style="fill:#262626;fill-opacity:1;fill-rule:nonzero;stroke:none"
       transform="matrix(0.13333333,0,0,-0.13333333,0,880)" />
    <path
       id="path77"
       d="m 821.91,3799.84 h 33.2813 v 33.2813 H 821.91 Z"
       style="fill:#262626;fill-opacity:1;fill-rule:nonzero;stroke:none"
       transform="matrix(0.13333333,0,0,-0.13333333,0,880)" />
    <path
       id="path78"
       d="m 953.871,3906.41 h 15.309 c 30.781,0 47.03,-14.38 47.03,-42.19 0,-29.22 -17.659,-46.72 -46.722,-46.72 -31.09,0 -46.09,15.62 -47.968,49.53 h -28.122 c 1.25,-18.59 4.372,-30.78 9.84,-40.94 11.883,-22.34 33.91,-33.59 65,-33.59 46.722,0 76.722,28.12 76.722,72.03 0,29.38 -11.09,45.47 -38.28,55 21.09,8.59 31.56,24.69 31.56,47.97 0,39.69 -25.94,63.75 -69.06,63.75 -45.782,0 -70.16,-25.63 -71.09,-74.53 h 28.121 c 0.469,14.06 1.719,22.03 5.16,29.06 6.399,13.13 20.469,20.78 38.117,20.78 25,0 40.002,-15 40.002,-40 0,-16.25 -5.78,-26.25 -18.279,-31.72 -7.66,-3.12 -17.813,-4.37 -37.34,-4.68 z"
       style="fill:#262626;fill-opacity:1;fill-rule:nonzero;stroke:none"
       transform="matrix(0.13333333,0,0,-0.13333333,0,880)" />
    <path
       id="path79"
       d="m 524.18,4941.29 c -21.09,0 -40.309,-9.69 -52.192,-25.31 -14.687,-20.47 -22.027,-51.25 -22.027,-94.07 0,-78.12 25.629,-119.37 74.219,-119.37 47.968,0 74.218,41.25 74.218,117.5 0,44.69 -7.027,74.84 -22.027,95.94 -11.883,15.93 -30.781,25.31 -52.191,25.31 z m 0,-25 c 30.468,0 45.468,-31.09 45.468,-93.75 0,-65.94 -14.687,-96.72 -46.097,-96.72 -29.68,0 -44.84,32.03 -44.84,95.78 0,63.6 15.16,94.69 45.469,94.69 z"
       style="fill:#262626;fill-opacity:1;fill-rule:nonzero;stroke:none"
       transform="matrix(0.13333333,0,0,-0.13333333,0,880)" />
    <path
       id="path80"
       d="m 641.91,4709.88 h 33.2813 v 33.2813 H 641.91 Z"
       style="fill:#262626;fill-opacity:1;fill-rule:nonzero;stroke:none"
       transform="matrix(0.13333333,0,0,-0.13333333,0,880)" />
    <path
       id="path81"
       d="m 773.871,4816.45 h 15.309 c 30.781,0 47.031,-14.38 47.031,-42.19 0,-29.22 -17.66,-46.72 -46.723,-46.72 -31.09,0 -46.09,15.62 -47.968,49.53 h -28.122 c 1.25,-18.59 4.372,-30.78 9.84,-40.94 11.883,-22.34 33.91,-33.59 65,-33.59 46.723,0 76.723,28.12 76.723,72.03 0,29.38 -11.09,45.47 -38.281,55 21.09,8.59 31.558,24.69 31.558,47.97 0,39.69 -25.937,63.75 -69.058,63.75 -45.782,0 -70.16,-25.63 -71.09,-74.53 h 28.121 c 0.469,14.06 1.719,22.03 5.16,29.06 6.399,13.13 20.469,20.78 38.117,20.78 25,0 40,-15 40,-40 0,-16.25 -5.777,-26.25 -18.277,-31.72 -7.66,-3.12 -17.813,-4.37 -37.34,-4.68 z"
       style="fill:#262626;fill-opacity:1;fill-rule:nonzero;stroke:none"
       transform="matrix(0.13333333,0,0,-0.13333333,0,880)" />
    <path
       id="path82"
       d="M 1033.36,4936.76 H 916.172 l -16.871,-123.44 h 25.929 c 13.129,15.63 23.911,21.09 41.879,21.09 30.313,0 49.221,-20.78 49.221,-54.37 0,-32.66 -18.908,-52.5 -49.529,-52.5 -24.692,0 -39.692,12.5 -46.41,37.97 H 892.27 c 3.75,-18.44 7.031,-27.5 13.75,-35.78 12.808,-17.35 35.781,-27.19 61.402,-27.19 45.778,0 77.808,33.28 77.808,81.25 0,44.84 -29.84,75.47 -73.281,75.47 -16.09,0 -28.898,-4.06 -42.027,-13.75 l 9.058,63.44 h 94.38 z"
       style="fill:#262626;fill-opacity:1;fill-rule:nonzero;stroke:none"
       transform="matrix(0.13333333,0,0,-0.13333333,0,880)" />
    <path
       id="path83"
       d="m 704.18,5851.33 c -21.09,0 -40.309,-9.69 -52.192,-25.31 -14.687,-20.47 -22.027,-51.25 -22.027,-94.07 0,-78.12 25.629,-119.37 74.219,-119.37 47.968,0 74.218,41.25 74.218,117.5 0,44.69 -7.027,74.84 -22.027,95.94 -11.883,15.93 -30.781,25.31 -52.191,25.31 z m 0,-25 c 30.468,0 45.468,-31.1 45.468,-93.75 0,-65.94 -14.687,-96.72 -46.097,-96.72 -29.68,0 -44.84,32.03 -44.84,95.78 0,63.59 15.16,94.69 45.469,94.69 z"
       style="fill:#262626;fill-opacity:1;fill-rule:nonzero;stroke:none"
       transform="matrix(0.13333333,0,0,-0.13333333,0,880)" />
    <path
       id="path84"
       d="m 821.91,5619.92 h 33.2813 v 33.2773 H 821.91 Z"
       style="fill:#262626;fill-opacity:1;fill-rule:nonzero;stroke:none"
       transform="matrix(0.13333333,0,0,-0.13333333,0,880)" />
    <path
       id="path85"
       d="m 987.77,5675.86 v -55.94 h 28.13 v 55.94 h 33.59 v 25.31 h -33.59 v 150.16 H 995.121 L 891.988,5705.7 v -29.84 z m 0,25.31 h -71.09 l 71.09,102.19 z"
       style="fill:#262626;fill-opacity:1;fill-rule:nonzero;stroke:none"
       transform="matrix(0.13333333,0,0,-0.13333333,0,880)" />
    <path
       id="path86"
       d="m 265.199,3785.04 c 0,-4.92 -2.66,-7.38 -7.969,-7.38 l -203.9097,51.32 c -6.8008,1.57 -12.1484,2.54 -16.0508,2.93 -6.4882,0 -9.7304,-13 -9.7304,-39.02 0,-4.06 -2.6172,-6.09 -7.8477,-6.09 -1.0195,0.15 -2.8125,0.58 -5.3125,1.29 -2.5781,0.7 -4.49999,1.56 -5.89843,2.65 -1.33203,1.06 -2.03125,2.54 -2.03125,4.49 L 0,3876.09 c 0,4.93 2.53906,7.39 7.62109,7.39 L 242.93,3824.53 c -10.551,31.64 -27.032,60.82 -49.489,87.5 -22.461,26.68 -48.953,49.22 -79.421,67.66 -30.4692,18.43 -62.1098,31.76 -94.9184,39.96 -5.7032,1.56 -10.31254,4.69 -13.83207,9.37 C 1.76172,4033.71 0,4038.98 0,4044.84 c 0,5.32 1.55859,9.65 4.69141,12.97 3.11718,3.32 7.33989,4.96 12.64839,4.96 6.4102,0 16.211,-2.61 29.4219,-7.93 13.1992,-5.27 24.9571,-10.43 35.2696,-15.5 31.4887,-15.86 60.3087,-36.88 86.4887,-63.05 16.402,-16.41 30.968,-34.02 43.671,-52.85 12.688,-18.83 23.438,-38.52 32.297,-58.99 8.91,-20.5 15.782,-42.22 20.711,-65.11 v -14.3"
       style="fill:#262626;fill-opacity:1;fill-rule:nonzero;stroke:none"
       transform="matrix(0.13333333,0,0,-0.13333333,0,880)" />
    <path
       id="path87"
       d="m 5253.16,4000.62 c 42.43,0 77,-34.53 77,-76.99 0,-42.54 -34.57,-77.11 -77,-77.11 -42.53,0 -76.99,34.57 -76.99,77.11 0,42.46 34.46,76.99 76.99,76.99 z m 0,13.91 c -50.31,0 -91.01,-40.7 -91.01,-90.9 0,-50.31 40.7,-90.97 91.01,-90.97 50.2,0 91.02,40.66 91.02,90.97 0,50.2 -40.82,90.9 -91.02,90.9"
       style="fill:#000000;fill-opacity:1;fill-rule:nonzero;stroke:none"
       transform="matrix(0.13333333,0,0,-0.13333333,0,880)" />
    <path
       id="path88"
       d="m 5074.69,4000.62 c 42.54,0 76.99,-34.53 76.99,-76.99 0,-42.54 -34.45,-77.11 -76.99,-77.11 -42.54,0 -76.99,34.57 -76.99,77.11 0,42.46 34.45,76.99 76.99,76.99 z m 0,13.91 c -50.2,0 -91.02,-40.7 -91.02,-90.9 0,-50.31 40.82,-90.97 91.02,-90.97 50.31,0 91.01,40.66 91.01,90.97 0,50.2 -40.7,90.9 -91.01,90.9"
       style="fill:#000000;fill-opacity:1;fill-rule:nonzero;stroke:none"
       transform="matrix(0.13333333,0,0,-0.13333333,0,880)" />
    <path
       id="path89"
       d="m 2918.16,4000.62 c 42.54,0 77,-34.53 77,-76.99 0,-42.54 -34.46,-77.11 -77,-77.11 -42.53,0 -76.99,34.57 -76.99,77.11 0,42.46 34.46,76.99 76.99,76.99 z m 0,13.91 c -50.31,0 -91.01,-40.7 -91.01,-90.9 0,-50.31 40.7,-90.97 91.01,-90.97 50.2,0 91.02,40.66 91.02,90.97 0,50.2 -40.82,90.9 -91.02,90.9"
       style="fill:#000000;fill-opacity:1;fill-rule:nonzero;stroke:none"
       transform="matrix(0.13333333,0,0,-0.13333333,0,880)" />
    <path
       id="path90"
       d="m 4691.88,4000.62 c 42.53,0 76.99,-34.53 76.99,-76.99 0,-42.54 -34.46,-77.11 -76.99,-77.11 -42.54,0 -77,34.57 -77,77.11 0,42.46 34.46,76.99 77,76.99 z m 0,13.91 c -50.32,0 -91.02,-40.7 -91.02,-90.9 0,-50.31 40.7,-90.97 91.02,-90.97 50.31,0 91.01,40.66 91.01,90.97 0,50.2 -40.7,90.9 -91.01,90.9"
       style="fill:#000000;fill-opacity:1;fill-rule:nonzero;stroke:none"
       transform="matrix(0.13333333,0,0,-0.13333333,0,880)" />
    <path
       id="path91"
       d="m 7633.59,1196.56 -288,185.16 -263.13,188.28 -237.23,188.28 -214.49,188.28 -194.45,188.28 -176.68,188.32 -160.94,188.29 -146.87,188.28 -134.3,188.28 -123.01,188.28 -112.85,188.28 -103.75,188.28 -95.43,188.28 -87.93,188.32 -81.13,188.25 -74.92,188.32 -69.26,188.28 -64.06,188.28 -59.34,188.28 -55.04,188.28 -51.01,188.28 -47.35,188.28 -43.98,188.28 -40.86,188.32 -37.97,188.29 -35.35,188.24 -32.89,188.32 -30.59,188.28 -20,132.38"
       style="fill:none;stroke:#ff00ff;stroke-width:15;stroke-linecap:butt;stroke-linejoin:round;stroke-miterlimit:10;stroke-dasharray:none;stroke-opacity:1"
       transform="matrix(0.13333333,0,0,-0.13333333,0,880)" />
    <path
       id="path92"
       d="m 6504.84,1196.56 -203.51,185.16 -177.46,188.28 -153.6,188.28 -133.86,188.28 -117.5,188.28 -103.71,188.32 -92.04,188.29 -82.03,188.28 -73.4,188.28 -65.97,188.28 -59.46,188.28 -53.78,188.28 -48.79,188.28 -44.38,188.32 -40.39,188.25 -36.95,188.32 -33.79,188.28 -31.02,188.28 -28.47,188.28 -26.18,188.28 -24.1,188.28 -22.26,188.28 -20.59,188.28 -19.02,188.32 -17.58,188.29 -16.33,188.24 -15.12,188.32 -14.06,188.28 -9.14,132.38"
       style="fill:none;stroke:#ff00ff;stroke-width:15;stroke-linecap:butt;stroke-linejoin:round;stroke-miterlimit:10;stroke-dasharray:none;stroke-opacity:1"
       transform="matrix(0.13333333,0,0,-0.13333333,0,880)" />
    <path
       id="path93"
       d="m 5902.97,1196.56 -274.77,185.16 -202.46,188.28 -152.34,188.28 -117.89,188.28 -93.24,188.28 -75.08,188.32 -61.29,188.29 -50.67,188.28 -42.26,188.28 -35.55,188.28 -30.19,188.28 -25.71,188.28 -22.07,188.28 -19.06,188.32 -16.44,188.25 -14.34,188.32 -12.5,188.28 -10.9,188.28 -9.61,188.28 -8.44,188.28 -7.42,188.28 -6.56,188.28 -5.86,188.28 -5.16,188.32 -4.61,188.29 -4.1,188.24 -3.71,188.32 -3.32,188.28 -2.11,132.38"
       style="fill:none;stroke:#ff00ff;stroke-width:15;stroke-linecap:butt;stroke-linejoin:round;stroke-miterlimit:10;stroke-dasharray:none;stroke-opacity:1"
       transform="matrix(0.13333333,0,0,-0.13333333,0,880)" />
    <path
       id="path94"
       d="m 4022.07,1196.56 -37.46,185.16 -20.35,188.28 -25.04,188.28 -27.85,188.28 -31.41,188.28 c 0,0 -40.62,126.1 -63.2,188.32 -23.01,63.36 -73.71,188.29 -73.71,188.29 l -129.92,188.28 -144.97,188.28 -172.77,188.28 -171.33,188.28 -147.61,188.28 -68.6,188.28 -12.85,188.32 48.28,188.25 131.25,188.71 143.91,188.28 121.05,188.28 111.92,188.28 88.67,188.28 90.58,188.28 84.18,188.28 75.04,188.28 75.75,188.33 65.5,188.28 49.81,188.24 51.56,188.32 57.58,188.28 32.73,132.38"
       style="fill:none;stroke:#ff00ff;stroke-width:15;stroke-linecap:butt;stroke-linejoin:round;stroke-miterlimit:10;stroke-dasharray:none;stroke-opacity:1"
       transform="matrix(0.13333333,0,0,-0.13333333,0,880)" />
    <path
       id="path95"
       d="M 4828.59,6232.46 4715.31,6108.44"
       style="fill:none;stroke:#000000;stroke-width:7.5;stroke-linecap:butt;stroke-linejoin:miter;stroke-miterlimit:4;stroke-dasharray:none;stroke-opacity:1"
       transform="matrix(0.13333333,0,0,-0.13333333,0,880)" />
    <path
       id="path96"
       d="m 4715.31,6232.46 113.28,-124.02"
       style="fill:none;stroke:#000000;stroke-width:7.5;stroke-linecap:butt;stroke-linejoin:miter;stroke-miterlimit:4;stroke-dasharray:none;stroke-opacity:1"
       transform="matrix(0.13333333,0,0,-0.13333333,0,880)" />
  </g>
</svg>
