<?xml version="1.0" encoding="UTF-8" standalone="no"?>
<!-- Created with Inkscape (http://www.inkscape.org/) -->

<svg
   version="1.1"
   id="svg1"
   width="289.33334"
   height="208"
   viewBox="0 0 289.33334 208"
   sodipodi:docname="platekinametic.svg"
   inkscape:version="1.4.2 (ebf0e940d0, 2025-05-08)"
   xmlns:inkscape="http://www.inkscape.org/namespaces/inkscape"
   xmlns:sodipodi="http://sodipodi.sourceforge.net/DTD/sodipodi-0.dtd"
   xmlns="http://www.w3.org/2000/svg"
   xmlns:svg="http://www.w3.org/2000/svg">
  <defs
     id="defs1" />
  <sodipodi:namedview
     id="namedview1"
     pagecolor="#ffffff"
     bordercolor="#000000"
     borderopacity="0.25"
     inkscape:showpageshadow="2"
     inkscape:pageopacity="0.0"
     inkscape:pagecheckerboard="0"
     inkscape:deskcolor="#d1d1d1"
     inkscape:zoom="2.7379808"
     inkscape:cx="-12.600527"
     inkscape:cy="121.80509"
     inkscape:window-width="3440"
     inkscape:window-height="1342"
     inkscape:window-x="0"
     inkscape:window-y="0"
     inkscape:window-maximized="1"
     inkscape:current-layer="g1">
    <inkscape:page
       x="0"
       y="0"
       inkscape:label="1"
       id="page1"
       width="289.33334"
       height="208"
       margin="0"
       bleed="0" />
  </sodipodi:namedview>
  <g
     id="g1"
     inkscape:groupmode="layer"
     inkscape:label="1">
    <path
       id="path1"
       d="m 2157.54,781.641 c 0,-230.27 -482.15,-416.95 -1076.91,-416.95 -594.732,0 -1076.88,186.68 -1076.88,416.95 0,230.269 482.148,416.909 1076.88,416.909 285.62,0 559.53,-43.9 761.48,-122.1 201.95,-78.212 315.43,-184.259 315.43,-294.809 z"
       style="fill:#c3c3c3;fill-opacity:1;fill-rule:nonzero;stroke:#000000;stroke-width:7.51181;stroke-linecap:round;stroke-linejoin:miter;stroke-miterlimit:4;stroke-dasharray:none;stroke-opacity:1"
       transform="matrix(0.13333333,0,0,-0.13333333,0,208)" />
    <path
       id="path2"
       d="m 118.91,594.059 c 15.469,323.32 376.828,343.242 650.469,447.701 273.591,104.49 366.521,378.08 681.441,477.58 314.92,99.49 557.54,-14.93 609.18,-189.03 51.6,-174.14 15.47,-422.849 -335.59,-601.951 C 1373.36,549.301 444.141,2.07031 216.988,7.03125 -10.1602,12.0313 118.91,594.059 118.91,594.059 Z"
       style="fill:none;stroke:#000000;stroke-width:7.49999;stroke-linecap:butt;stroke-linejoin:miter;stroke-miterlimit:4;stroke-dasharray:none;stroke-opacity:1"
       transform="matrix(0.13333333,0,0,-0.13333333,0,208)" />
    <path
       id="path3"
       d="m 1094.02,781.641 c 0,-7.379 -5.97,-13.403 -13.39,-13.403 -7.39,0 -13.36,6.024 -13.36,13.403 0,7.379 5.97,13.359 13.36,13.359 7.42,0 13.39,-5.98 13.39,-13.359 z"
       style="fill:none;stroke:#000000;stroke-width:21.685;stroke-linecap:round;stroke-linejoin:miter;stroke-miterlimit:4;stroke-dasharray:none;stroke-opacity:1"
       transform="matrix(0.13333333,0,0,-0.13333333,0,208)" />
    <path
       id="path4"
       d="m 1198.83,933.238 c 0,-6.168 -3.01,-11.129 -6.72,-11.129 -3.67,0 -6.68,4.961 -6.68,11.129 0,6.172 3.01,11.133 6.68,11.133 3.71,0 6.72,-4.961 6.72,-11.133 z"
       style="fill:none;stroke:#000000;stroke-width:21.685;stroke-linecap:round;stroke-linejoin:miter;stroke-miterlimit:4;stroke-dasharray:none;stroke-opacity:1"
       transform="matrix(0.13333333,0,0,-0.13333333,0,208)" />
    <path
       id="path5"
       d="m 1595.66,1475.04 c 0,-6.17 -2.96,-11.17 -6.68,-11.17 -3.67,0 -6.68,5 -6.68,11.17 0,6.13 3.01,11.13 6.68,11.13 3.72,0 6.68,-5 6.68,-11.13 z"
       style="fill:none;stroke:#000000;stroke-width:21.685;stroke-linecap:round;stroke-linejoin:miter;stroke-miterlimit:4;stroke-dasharray:none;stroke-opacity:1"
       transform="matrix(0.13333333,0,0,-0.13333333,0,208)" />
    <path
       id="path6"
       d="m 1082.89,779.41 102.54,147.149"
       style="fill:none;stroke:#000000;stroke-width:7.49999;stroke-linecap:butt;stroke-linejoin:miter;stroke-miterlimit:4;stroke-dasharray:none;stroke-opacity:1"
       transform="matrix(0.13333333,0,0,-0.13333333,0,208)" />
    <path
       id="path7"
       d="m 1189.73,932.699 5.58,-31.328 -8.55,-12.312 -5.63,31.332 -31.33,-5.59 8.6,12.308 z"
       style="fill:#000000;fill-opacity:1;fill-rule:evenodd;stroke:none"
       transform="matrix(0.13333333,0,0,-0.13333333,0,208)" />
    <path
       id="path8"
       d="m 1586.76,1108.55 v 356.76"
       style="fill:none;stroke:#000000;stroke-width:7.49999;stroke-linecap:butt;stroke-linejoin:miter;stroke-miterlimit:4;stroke-dasharray:none;stroke-opacity:1"
       transform="matrix(0.13333333,0,0,-0.13333333,0,208)" />
    <path
       id="path9"
       d="m 1586.76,1472.81 22.5,-22.5 v -15 l -22.5,22.5 -22.5,-22.5 v 15 z"
       style="fill:#000000;fill-opacity:1;fill-rule:evenodd;stroke:none"
       transform="matrix(0.13333333,0,0,-0.13333333,0,208)" />
    <path
       id="path10"
       d="m 1302.15,1090.47 280.94,22.3"
       style="fill:none;stroke:#000000;stroke-width:7.49999;stroke-linecap:butt;stroke-linejoin:miter;stroke-miterlimit:4;stroke-dasharray:none;stroke-opacity:1"
       transform="matrix(0.13333333,0,0,-0.13333333,0,208)" />
    <path
       id="path11"
       d="m 1590.55,1113.36 -20.63,-24.18 -14.96,-1.21 20.67,24.22 -24.22,20.66 14.96,1.17 z"
       style="fill:#000000;fill-opacity:1;fill-rule:evenodd;stroke:none"
       transform="matrix(0.13333333,0,0,-0.13333333,0,208)" />
    <path
       id="path12"
       d="m 1196.56,944.41 102.58,147.15"
       style="fill:none;stroke:#000000;stroke-width:7.49999;stroke-linecap:butt;stroke-linejoin:miter;stroke-miterlimit:4;stroke-dasharray:none;stroke-opacity:1"
       transform="matrix(0.13333333,0,0,-0.13333333,0,208)" />
    <path
       id="path13"
       d="m 1303.4,1097.73 5.62,-31.32 -8.59,-12.31 -5.59,31.33 -31.32,-5.59 8.59,12.31 z"
       style="fill:#000000;fill-opacity:1;fill-rule:evenodd;stroke:none"
       transform="matrix(0.13333333,0,0,-0.13333333,0,208)" />
    <path
       id="path14"
       d="m 1194.34,933.238 383.51,176.132"
       style="fill:none;stroke:#000000;stroke-width:7.49999;stroke-linecap:butt;stroke-linejoin:miter;stroke-miterlimit:4;stroke-dasharray:none;stroke-opacity:1"
       transform="matrix(0.13333333,0,0,-0.13333333,0,208)" />
    <path
       id="path15"
       d="m 1584.65,1112.5 -11.06,-29.84 -13.63,-6.25 11.06,29.84 -29.85,11.05 13.63,6.25 z"
       style="fill:#000000;fill-opacity:1;fill-rule:evenodd;stroke:none"
       transform="matrix(0.13333333,0,0,-0.13333333,0,208)" />
    <path
       id="path16"
       d="m 1020.35,806.762 c -47.85,70.66 60,165.898 60,165.898 l -13.94,37.69 26.95,-12.971 c 0,0 -17.34,-33.707 24.18,22.661 41.52,56.37 112.46,86.41 132.69,73.32"
       style="fill:none;stroke:#000000;stroke-width:7.49999;stroke-linecap:butt;stroke-linejoin:miter;stroke-miterlimit:4;stroke-dasharray:none;stroke-opacity:1"
       transform="matrix(0.13333333,0,0,-0.13333333,0,208)" />
    <path
       id="path17"
       d="m 1040.94,1032.89 c -3.6,-1.09 -5.31,-4.37 -5.31,-6.87 0,-2.19 1.56,-4.69 4.84,-4.69 3.59,0 7.19,2.97 7.19,7.81 0,5.31 -5.16,8.75 -11.25,8.75 -5.78,0 -9.38,-4.22 -10.78,-6.09 -2.5,4.22 -7.97,6.09 -13.75,6.09 -12.501,0 -19.22,-12.19 -19.22,-15.47 0,-1.4 1.399,-1.4 2.34,-1.4 1.25,0 1.879,0 2.34,1.25 2.82,9.06 10,12.03 14.07,12.03 3.75,0 5.62,-1.72 5.62,-4.85 0,-2.03 -1.4,-7.5 -2.34,-11.09 l -3.44,-13.59 c -1.41,-6.098 -5,-9.071 -8.44,-9.071 -0.47,0 -2.81,0 -4.681,1.41 3.591,1.09 5.311,4.531 5.311,6.871 0,2.19 -1.72,4.69 -4.999,4.69 -3.441,0 -7.191,-2.97 -7.191,-7.81 0,-5.309 5.309,-8.751 11.41,-8.751 5.62,0 9.37,4.219 10.62,6.09 2.5,-4.219 8.13,-6.09 13.75,-6.09 12.66,0 19.38,12.191 19.38,15.471 0,1.4 -1.57,1.4 -2.35,1.4 -1.25,0 -1.87,0 -2.34,-1.25 -2.81,-9.058 -10,-12.031 -14.22,-12.031 -3.75,0 -5.47,1.723 -5.47,5.001 0,2.03 1.25,7.35 2.19,11.1 0.62,2.5 2.97,11.87 3.44,13.43 1.56,6.1 5,9.07 8.43,9.07 0.63,0 2.82,0 4.85,-1.41 z"
       style="fill:#000000;fill-opacity:1;fill-rule:nonzero;stroke:none"
       transform="matrix(0.13333333,0,0,-0.13333333,0,208)" />
    <path
       id="path18"
       d="m 1223.71,861.371 c -4.84,-4.223 -10.16,-7.191 -15.16,-7.191 -4.06,0 -6.87,1.718 -10.46,3.75 -2.82,1.718 -5.94,3.441 -10,3.441 -2.5,0 -5,-0.781 -7.19,-1.883 -2.03,-0.937 -4.06,-2.027 -5.78,-3.437 l -5.32,-4.371 1.41,-1.719 c 4.84,4.059 10.16,7.027 15.31,7.027 3.91,0 6.88,-1.718 10.32,-3.59 2.81,-1.718 5.93,-3.437 10,-3.437 2.5,0 5,0.777 7.18,1.719 2.03,1.09 4.07,2.191 5.78,3.59 l 5.32,4.378 z"
       style="fill:#000000;fill-opacity:1;fill-rule:nonzero;stroke:none"
       transform="matrix(0.13333333,0,0,-0.13333333,0,208)" />
    <path
       id="path19"
       d="m 1218.09,827.93 c -3.6,-1.09 -5.32,-4.379 -5.32,-6.879 0,-2.18 1.57,-4.68 4.85,-4.68 3.59,0 7.18,2.969 7.18,7.809 0,5.308 -5.15,8.75 -11.25,8.75 -5.78,0 -9.37,-4.219 -10.78,-6.09 -2.5,4.211 -7.97,6.09 -13.75,6.09 -12.5,0 -19.22,-12.192 -19.22,-15.469 0,-1.41 1.41,-1.41 2.35,-1.41 1.25,0 1.87,0 2.34,1.25 2.81,9.07 10,12.039 14.06,12.039 3.75,0 5.63,-1.719 5.63,-4.852 0,-2.027 -1.41,-7.5 -2.34,-11.09 l -3.44,-13.597 c -1.41,-6.09 -5,-9.063 -8.44,-9.063 -0.47,0 -2.81,0 -4.69,1.41 3.6,1.09 5.32,4.532 5.32,6.872 0,2.191 -1.72,4.691 -5,4.691 -3.44,0 -7.19,-2.973 -7.19,-7.813 0,-5.308 5.31,-8.75 11.4,-8.75 5.63,0 9.38,4.223 10.63,6.09 2.5,-4.218 8.12,-6.09 13.75,-6.09 12.66,0 19.37,12.192 19.37,15.473 0,1.399 -1.56,1.399 -2.34,1.399 -1.25,0 -1.87,0 -2.34,-1.25 -2.82,-9.059 -10,-12.032 -14.22,-12.032 -3.75,0 -5.47,1.723 -5.47,5 0,2.032 1.25,7.352 2.19,11.102 0.62,2.5 2.97,11.871 3.43,13.43 1.57,6.101 5,9.07 8.44,9.07 0.63,0 2.81,0 4.85,-1.41 z"
       style="fill:#000000;fill-opacity:1;fill-rule:nonzero;stroke:none"
       transform="matrix(0.13333333,0,0,-0.13333333,0,208)" />
    <path
       id="path20"
       d="m 1404.18,1147.42 c 0.78,2.81 1.87,7.66 1.87,8.28 0,2.19 -1.56,4.38 -4.68,4.38 -1.57,0 -5.16,-0.78 -6.57,-5.31 -0.31,-1.25 -4.84,-19.38 -5.62,-22.66 -0.63,-2.34 -1.25,-5.16 -1.56,-7.03 -1.72,-2.35 -5.63,-6.41 -10.78,-6.41 -5.79,0 -5.94,5 -5.94,7.19 0,6.09 3.12,13.91 5.94,21.09 0.93,2.66 1.25,3.28 1.25,5 0,5.78 -5.79,8.91 -11.25,8.91 -10.63,0 -15.63,-13.44 -15.63,-15.47 0,-1.41 1.56,-1.41 2.5,-1.41 1.09,0 1.88,0 2.19,1.25 3.28,11.1 8.75,12.04 10.31,12.04 0.78,0 1.72,0 1.72,-2.04 0,-2.34 -1.25,-5.15 -1.56,-6.25 -4.22,-10.46 -6.1,-16.09 -6.1,-20.93 0,-11.41 10,-12.97 15.78,-12.97 2.97,0 7.35,0.31 12.66,5.47 3.28,-4.85 9.06,-5.47 11.41,-5.47 3.75,0 6.56,2.03 8.75,5.62 2.34,4.07 3.75,9.38 3.75,9.85 0,1.4 -1.57,1.4 -2.5,1.4 -1.1,0 -1.41,0 -1.88,-0.47 -0.31,-0.15 -0.31,-0.31 -0.78,-2.81 -2.03,-7.81 -4.22,-10 -6.87,-10 -1.41,0 -2.19,0.94 -2.19,3.6 0,1.71 0.31,3.43 1.25,7.34 0.78,2.81 1.72,6.72 2.34,8.91 z"
       style="fill:#000000;fill-opacity:1;fill-rule:nonzero;stroke:none"
       transform="matrix(0.13333333,0,0,-0.13333333,0,208)" />
    <path
       id="path21"
       d="m 1449.73,981.84 c -4.85,-4.219 -10.16,-7.192 -15.16,-7.192 -4.06,0 -6.87,1.723 -10.47,3.75 -2.81,1.723 -5.94,3.442 -10,3.442 -2.5,0 -5,-0.789 -7.19,-1.879 -2.03,-0.941 -4.06,-2.031 -5.78,-3.441 l -5.31,-4.372 1.41,-1.718 c 4.84,4.058 10.15,7.031 15.31,7.031 3.91,0 6.87,-1.723 10.31,-3.59 2.81,-1.723 5.94,-3.441 10,-3.441 2.5,0 5,0.781 7.19,1.718 2.03,1.09 4.06,2.192 5.78,3.59 l 5.31,4.383 z"
       style="fill:#000000;fill-opacity:1;fill-rule:nonzero;stroke:none"
       transform="matrix(0.13333333,0,0,-0.13333333,0,208)" />
    <path
       id="path22"
       d="m 1445.66,939.961 c 0.79,2.809 1.88,7.66 1.88,8.277 0,2.192 -1.56,4.383 -4.69,4.383 -1.56,0 -5.15,-0.781 -6.56,-5.32 -0.31,-1.25 -4.84,-19.371 -5.63,-22.653 -0.62,-2.347 -1.25,-5.16 -1.56,-7.027 -1.72,-2.351 -5.62,-6.41 -10.78,-6.41 -5.78,0 -5.94,5 -5.94,7.187 0,6.09 3.13,13.903 5.94,21.09 0.94,2.66 1.25,3.282 1.25,5 0,5.782 -5.78,8.91 -11.25,8.91 -10.62,0 -15.62,-13.437 -15.62,-15.468 0,-1.41 1.56,-1.41 2.5,-1.41 1.09,0 1.87,0 2.18,1.25 3.28,11.101 8.75,12.031 10.32,12.031 0.78,0 1.71,0 1.71,-2.031 0,-2.34 -1.25,-5.149 -1.56,-6.25 -4.22,-10.469 -6.09,-16.09 -6.09,-20.93 0,-11.41 10,-12.969 15.78,-12.969 2.97,0 7.34,0.309 12.66,5.469 3.28,-4.852 9.06,-5.469 11.4,-5.469 3.75,0 6.56,2.027 8.75,5.617 2.35,4.063 3.75,9.383 3.75,9.852 0,1.398 -1.56,1.398 -2.5,1.398 -1.09,0 -1.4,0 -1.87,-0.468 -0.32,-0.149 -0.32,-0.309 -0.78,-2.809 -2.04,-7.813 -4.22,-10 -6.88,-10 -1.41,0 -2.19,0.937 -2.19,3.59 0,1.719 0.32,3.437 1.25,7.347 0.78,2.813 1.72,6.723 2.35,8.903 z"
       style="fill:#000000;fill-opacity:1;fill-rule:nonzero;stroke:none"
       transform="matrix(0.13333333,0,0,-0.13333333,0,208)" />
    <path
       id="path23"
       d="m 1652.15,1297.81 c 0.47,2.19 1.4,5.94 1.4,6.56 0,1.72 -1.4,2.66 -2.81,2.66 -1.25,0 -2.97,-0.78 -3.75,-2.81 -0.31,-0.63 -5,-19.69 -5.62,-22.35 -0.78,-2.96 -0.94,-4.68 -0.94,-6.56 0,-1.09 0,-1.25 0.16,-1.72 -2.35,-5.31 -5.32,-8.43 -9.22,-8.43 -7.97,0 -7.97,7.34 -7.97,9.06 0,3.12 0.47,7.03 5.15,19.37 1.1,2.97 1.72,4.38 1.72,6.41 0,4.37 -3.28,8.12 -8.12,8.12 -9.53,0 -13.13,-14.53 -13.13,-15.31 0,-1.09 0.94,-1.09 1.1,-1.09 1.09,0 1.09,0.31 1.56,1.87 2.81,9.22 6.56,12.35 10.16,12.35 0.93,0 2.5,-0.16 2.5,-3.28 0,-2.5 -1.1,-5.32 -1.88,-7.04 -4.37,-11.71 -5.47,-16.25 -5.47,-20.15 0,-9.06 6.56,-12.5 14.06,-12.5 1.72,0 6.41,0 10.32,7.03 2.65,-6.41 9.53,-7.03 12.5,-7.03 7.5,0 11.87,6.25 14.53,12.19 3.28,7.81 6.56,21.25 6.56,25.93 0,5.47 -2.66,7.03 -4.37,7.03 -2.5,0 -5,-2.65 -5,-4.84 0,-1.25 0.62,-1.87 1.4,-2.66 1.1,-1.09 3.6,-3.59 3.6,-8.43 0,-3.44 -2.82,-13.13 -5.47,-18.28 -2.5,-5.32 -6.1,-8.75 -10.94,-8.75 -4.69,0 -7.34,2.96 -7.34,8.75 0,2.65 0.62,5.78 1.09,7.18 z"
       style="fill:#000000;fill-opacity:1;fill-rule:nonzero;stroke:none"
       transform="matrix(0.13333333,0,0,-0.13333333,0,208)" />
    <path
       id="path24"
       d="m 1773.2,1336.09 c -4.84,-4.22 -10.15,-7.18 -15.15,-7.18 -4.07,0 -6.88,1.71 -10.47,3.75 -2.81,1.71 -5.94,3.43 -10,3.43 -2.5,0 -5,-0.78 -7.19,-1.87 -2.03,-0.94 -4.06,-2.03 -5.78,-3.44 l -5.31,-4.37 1.4,-1.72 c 4.85,4.06 10.16,7.03 15.32,7.03 3.9,0 6.87,-1.72 10.31,-3.6 2.81,-1.71 5.94,-3.43 10,-3.43 2.5,0 5,0.78 7.19,1.72 2.03,1.09 4.06,2.18 5.78,3.59 l 5.31,4.37 z"
       style="fill:#000000;fill-opacity:1;fill-rule:nonzero;stroke:none"
       transform="matrix(0.13333333,0,0,-0.13333333,0,208)" />
    <path
       id="path25"
       d="m 1756.05,1297.81 c 0.47,2.19 1.41,5.94 1.41,6.56 0,1.72 -1.41,2.66 -2.81,2.66 -1.25,0 -2.97,-0.78 -3.75,-2.81 -0.31,-0.63 -5,-19.69 -5.63,-22.35 -0.78,-2.96 -0.93,-4.68 -0.93,-6.56 0,-1.09 0,-1.25 0.15,-1.72 -2.34,-5.31 -5.31,-8.43 -9.22,-8.43 -7.97,0 -7.97,7.34 -7.97,9.06 0,3.12 0.47,7.03 5.16,19.37 1.09,2.97 1.72,4.38 1.72,6.41 0,4.37 -3.28,8.12 -8.13,8.12 -9.53,0 -13.12,-14.53 -13.12,-15.31 0,-1.09 0.94,-1.09 1.09,-1.09 1.1,0 1.1,0.31 1.57,1.87 2.81,9.22 6.56,12.35 10.15,12.35 0.94,0 2.5,-0.16 2.5,-3.28 0,-2.5 -1.09,-5.32 -1.87,-7.04 -4.38,-11.71 -5.47,-16.25 -5.47,-20.15 0,-9.06 6.56,-12.5 14.06,-12.5 1.72,0 6.41,0 10.31,7.03 2.66,-6.41 9.53,-7.03 12.5,-7.03 7.5,0 11.88,6.25 14.53,12.19 3.29,7.81 6.57,21.25 6.57,25.93 0,5.47 -2.66,7.03 -4.38,7.03 -2.5,0 -5,-2.65 -5,-4.84 0,-1.25 0.63,-1.87 1.41,-2.66 1.09,-1.09 3.59,-3.59 3.59,-8.43 0,-3.44 -2.81,-13.13 -5.47,-18.28 -2.5,-5.32 -6.09,-8.75 -10.93,-8.75 -4.69,0 -7.35,2.96 -7.35,8.75 0,2.65 0.63,5.78 1.1,7.18 z"
       style="fill:#000000;fill-opacity:1;fill-rule:nonzero;stroke:none"
       transform="matrix(0.13333333,0,0,-0.13333333,0,208)" />
    <path
       id="path26"
       d="m 1691.13,1273.36 c -6.29,-16.56 -16.56,-22.85 -16.56,-22.85"
       style="fill:none;stroke:#000000;stroke-width:7.49999;stroke-linecap:butt;stroke-linejoin:miter;stroke-miterlimit:4;stroke-dasharray:none;stroke-opacity:1"
       transform="matrix(0.13333333,0,0,-0.13333333,0,208)" />
  </g>
</svg>
