<?xml version="1.0" encoding="UTF-8" standalone="no"?>
<!-- Created with Inkscape (http://www.inkscape.org/) -->

<svg
   version="1.1"
   id="svg1"
   width="240"
   height="172"
   viewBox="0 0 240 172"
   sodipodi:docname="rodkinematics.svg"
   inkscape:version="1.4.2 (ebf0e940d0, 2025-05-08)"
   xmlns:inkscape="http://www.inkscape.org/namespaces/inkscape"
   xmlns:sodipodi="http://sodipodi.sourceforge.net/DTD/sodipodi-0.dtd"
   xmlns="http://www.w3.org/2000/svg"
   xmlns:svg="http://www.w3.org/2000/svg">
  <defs
     id="defs1" />
  <sodipodi:namedview
     id="namedview1"
     pagecolor="#ffffff"
     bordercolor="#000000"
     borderopacity="0.25"
     inkscape:showpageshadow="2"
     inkscape:pageopacity="0.0"
     inkscape:pagecheckerboard="0"
     inkscape:deskcolor="#d1d1d1"
     inkscape:zoom="3.3110465"
     inkscape:cx="26.728709"
     inkscape:cy="71.729587"
     inkscape:window-width="3440"
     inkscape:window-height="1342"
     inkscape:window-x="0"
     inkscape:window-y="0"
     inkscape:window-maximized="1"
     inkscape:current-layer="g1">
    <inkscape:page
       x="0"
       y="0"
       inkscape:label="1"
       id="page1"
       width="240"
       height="172"
       margin="0"
       bleed="0" />
  </sodipodi:namedview>
  <g
     id="g1"
     inkscape:groupmode="layer"
     inkscape:label="1">
    <path
       id="path1"
       d="m 1071.41,558.051 c 90.58,-24.731 178.12,-60.43 260.19,-106.063 161.72,-89.879 301.6,-218.828 404.42,-372.6872"
       style="fill:none;stroke:#000000;stroke-width:7.49999;stroke-linecap:butt;stroke-linejoin:miter;stroke-miterlimit:4;stroke-dasharray:none;stroke-opacity:1"
       transform="matrix(0.13333333,0,0,-0.13333333,0,172)" />
    <path
       id="path2"
       d="M 1279.65,196.602 1417.42,397.93"
       style="fill:none;stroke:#000000;stroke-width:7.49999;stroke-linecap:butt;stroke-linejoin:miter;stroke-miterlimit:4;stroke-dasharray:none;stroke-opacity:1"
       transform="matrix(0.13333333,0,0,-0.13333333,0,172)" />
    <path
       id="path3"
       d="m 1424.34,368.207 -5.86,31.289 -31.29,-5.867"
       style="fill:none;stroke:#000000;stroke-width:7.49999;stroke-linecap:butt;stroke-linejoin:miter;stroke-miterlimit:4;stroke-dasharray:none;stroke-opacity:1"
       transform="matrix(0.13333333,0,0,-0.13333333,0,172)" />
    <path
       id="path4"
       d="M 1152.58,11.7617 1279.65,196.602"
       style="fill:none;stroke:#000000;stroke-width:7.49999;stroke-linecap:butt;stroke-linejoin:miter;stroke-miterlimit:4;stroke-dasharray:59.9998, 29.9999;stroke-dashoffset:0;stroke-opacity:1"
       transform="matrix(0.13333333,0,0,-0.13333333,0,172)" />
    <path
       id="path5"
       d="m 202.34,890.621 c 158.25,250.399 384.93,88.25 467.191,47.188 82.231,-41.047 249.77,65.711 249.77,65.711"
       style="fill:none;stroke:#000000;stroke-width:7.49999;stroke-linecap:butt;stroke-linejoin:miter;stroke-miterlimit:4;stroke-dasharray:none;stroke-opacity:1"
       transform="matrix(0.13333333,0,0,-0.13333333,0,172)" />
    <path
       id="path6"
       d="M 391.719,454.02 288.629,984.922"
       style="fill:none;stroke:#000000;stroke-width:7.49999;stroke-linecap:butt;stroke-linejoin:miter;stroke-miterlimit:4;stroke-dasharray:none;stroke-opacity:1"
       transform="matrix(0.13333333,0,0,-0.13333333,0,172)" />
    <path
       id="path7"
       d="m 314.645,968.949 -26.36,17.805 -17.773,-26.363"
       style="fill:none;stroke:#000000;stroke-width:7.49999;stroke-linecap:butt;stroke-linejoin:miter;stroke-miterlimit:4;stroke-dasharray:none;stroke-opacity:1"
       transform="matrix(0.13333333,0,0,-0.13333333,0,172)" />
    <path
       id="path8"
       d="M 444.961,169.02 390.59,450"
       style="fill:none;stroke:#000000;stroke-width:7.49999;stroke-linecap:butt;stroke-linejoin:miter;stroke-miterlimit:4;stroke-dasharray:59.9998, 29.9999;stroke-dashoffset:0;stroke-opacity:1"
       transform="matrix(0.13333333,0,0,-0.13333333,0,172)" />
    <path
       id="path9"
       d="M 1417.42,397.969 1223.44,538.441"
       style="fill:none;stroke:#ff0000;stroke-width:7.49999;stroke-linecap:butt;stroke-linejoin:miter;stroke-miterlimit:4;stroke-dasharray:none;stroke-opacity:1"
       transform="matrix(0.13333333,0,0,-0.13333333,0,172)" />
    <path
       id="path10"
       d="m 1253.36,544.57 -31.45,-5.047 5.05,-31.394"
       style="fill:none;stroke:#ff0000;stroke-width:7.49999;stroke-linecap:butt;stroke-linejoin:miter;stroke-miterlimit:4;stroke-dasharray:none;stroke-opacity:1"
       transform="matrix(0.13333333,0,0,-0.13333333,0,172)" />
    <path
       id="path11"
       d="m 1412.89,395.82 147.62,202.77"
       style="fill:none;stroke:#0000ff;stroke-width:7.49999;stroke-linecap:butt;stroke-linejoin:miter;stroke-miterlimit:4;stroke-dasharray:none;stroke-opacity:1"
       transform="matrix(0.13333333,0,0,-0.13333333,0,172)" />
    <path
       id="path12"
       d="m 1566.57,568.668 -4.97,31.445 -31.4,-4.949"
       style="fill:none;stroke:#0000ff;stroke-width:7.49999;stroke-linecap:butt;stroke-linejoin:miter;stroke-miterlimit:4;stroke-dasharray:none;stroke-opacity:1"
       transform="matrix(0.13333333,0,0,-0.13333333,0,172)" />
    <path
       id="path13"
       d="m 1428.55,395.738 c 0,-9.957 -5,-18.008 -11.13,-18.008 -6.17,0 -11.17,8.051 -11.17,18.008 0,9.961 5,18.051 11.17,18.051 6.13,0 11.13,-8.09 11.13,-18.051 z"
       style="fill:#00ff00;fill-opacity:1;fill-rule:nonzero;stroke:#00ff00;stroke-width:7.51178;stroke-linecap:round;stroke-linejoin:miter;stroke-miterlimit:4;stroke-dasharray:59.9998, 29.9999;stroke-dashoffset:0;stroke-opacity:1"
       transform="matrix(0.13333333,0,0,-0.13333333,0,172)" />
    <path
       id="path14"
       d="M 293.441,990.469 146.762,869.449"
       style="fill:none;stroke:#ff0000;stroke-width:7.49999;stroke-linecap:butt;stroke-linejoin:miter;stroke-miterlimit:4;stroke-dasharray:none;stroke-opacity:1"
       transform="matrix(0.13333333,0,0,-0.13333333,0,172)" />
    <path
       id="path15"
       d="m 148.316,899.93 -3.003,-31.684 31.644,-3.055"
       style="fill:none;stroke:#ff0000;stroke-width:7.49999;stroke-linecap:butt;stroke-linejoin:miter;stroke-miterlimit:4;stroke-dasharray:none;stroke-opacity:1"
       transform="matrix(0.13333333,0,0,-0.13333333,0,172)" />
    <path
       id="path16"
       d="M 288.199,987.539 117.93,1041.13"
       style="fill:none;stroke:#0000ff;stroke-width:7.49999;stroke-linecap:butt;stroke-linejoin:miter;stroke-miterlimit:4;stroke-dasharray:none;stroke-opacity:1"
       transform="matrix(0.13333333,0,0,-0.13333333,0,172)" />
    <path
       id="path17"
       d="m 144.371,1056.41 -28.199,-14.73 14.683,-28.2"
       style="fill:none;stroke:#0000ff;stroke-width:7.49999;stroke-linecap:butt;stroke-linejoin:miter;stroke-miterlimit:4;stroke-dasharray:none;stroke-opacity:1"
       transform="matrix(0.13333333,0,0,-0.13333333,0,172)" />
    <path
       id="path18"
       d="M 289.801,985.16 222.77,1127.85"
       style="fill:none;stroke:#00ff00;stroke-width:7.49999;stroke-linecap:butt;stroke-linejoin:miter;stroke-miterlimit:4;stroke-dasharray:none;stroke-opacity:1"
       transform="matrix(0.13333333,0,0,-0.13333333,0,172)" />
    <path
       id="path19"
       d="m 251.918,1118.75 -29.922,10.78 -10.824,-29.92"
       style="fill:none;stroke:#00ff00;stroke-width:7.49999;stroke-linecap:butt;stroke-linejoin:miter;stroke-miterlimit:4;stroke-dasharray:none;stroke-opacity:1"
       transform="matrix(0.13333333,0,0,-0.13333333,0,172)" />
    <path
       id="path20"
       d="m 1370.51,599.691 c -47.31,245.93 -59.88,595.929 -274.3,646.399 -214.409,50.43 -696.831,-145.04 -696.831,-145.04"
       style="fill:none;stroke:#000000;stroke-width:7.51181;stroke-linecap:butt;stroke-linejoin:miter;stroke-miterlimit:4;stroke-dasharray:none;stroke-opacity:1"
       transform="matrix(0.13333333,0,0,-0.13333333,0,172)" />
    <path
       id="path21"
       d="m 410.035,1129.69 -12.418,-29.37 29.332,-12.43"
       style="fill:none;stroke:#000000;stroke-width:7.51181;stroke-linecap:butt;stroke-linejoin:miter;stroke-miterlimit:4;stroke-dasharray:none;stroke-opacity:1"
       transform="matrix(0.13333333,0,0,-0.13333333,0,172)" />
    <path
       id="path22"
       d="m 1259.61,1257.5 v 27.81 h 11.72 c 16.09,0 16.25,-7.81 16.25,-13.9 0,-5.63 0,-13.91 -16.41,-13.91 z m 26.56,-2.03 c 11.56,2.97 16.56,9.53 16.56,16.09 0,10 -10.93,18.44 -29.68,18.44 h -37.82 v -4.69 h 10.79 v -59.06 h -10.79 v -4.69 c 3.6,0.31 13.29,0.31 17.5,0.31 4.22,0 13.91,0 17.5,-0.31 v 4.69 h -10.62 v 27.66 h 11.56 c 1.41,0 5.78,0 8.91,-3.29 3.12,-3.59 3.12,-5.46 3.12,-12.65 0,-6.56 0,-11.56 7.03,-14.85 4.38,-2.18 10.63,-2.65 14.69,-2.65 10.63,0 11.88,8.9 11.88,10.62 0,2.19 -1.41,2.19 -2.35,2.19 -2.03,0 -2.18,-1.09 -2.34,-2.34 -0.47,-4.69 -3.28,-6.88 -6.25,-6.88 -6.09,0 -6.88,7.03 -7.5,11.25 -0.16,1.1 -0.94,7.97 -1.09,8.44 -1.41,7.03 -6.88,10.16 -11.1,11.72 z"
       style="fill:#000000;fill-opacity:1;fill-rule:nonzero;stroke:none"
       transform="matrix(0.13333333,0,0,-0.13333333,0,172)" />
    <path
       id="path23"
       d="m 1390.78,211.559 c -3.59,-1.09 -5.31,-4.368 -5.31,-6.868 0,-2.191 1.56,-4.691 4.84,-4.691 3.6,0 7.19,2.969 7.19,7.809 0,5.312 -5.16,8.75 -11.25,8.75 -5.78,0 -9.37,-4.219 -10.78,-6.09 -2.5,4.222 -7.97,6.09 -13.75,6.09 -12.5,0 -19.22,-12.188 -19.22,-15.469 0,-1.399 1.41,-1.399 2.34,-1.399 1.25,0 1.88,0 2.35,1.25 2.81,9.059 10,12.028 14.06,12.028 3.75,0 5.63,-1.719 5.63,-4.848 0,-2.031 -1.41,-7.5 -2.35,-11.09 l -3.44,-13.59 c -1.4,-6.101 -5,-9.07 -8.43,-9.07 -0.47,0 -2.82,0 -4.69,1.41 3.59,1.09 5.31,4.528 5.31,6.879 0,2.18 -1.72,4.68 -5,4.68 -3.44,0 -7.19,-2.969 -7.19,-7.809 0,-5.312 5.32,-8.75 11.41,-8.75 5.63,0 9.38,4.219 10.63,6.09 2.5,-4.211 8.12,-6.09 13.75,-6.09 12.65,0 19.37,12.188 19.37,15.469 0,1.41 -1.56,1.41 -2.34,1.41 -1.25,0 -1.88,0 -2.35,-1.25 -2.81,-9.07 -10,-12.039 -14.22,-12.039 -3.75,0 -5.46,1.719 -5.46,5 0,2.039 1.25,7.348 2.18,11.098 0.63,2.5 2.97,11.871 3.44,13.441 1.56,6.09 5,9.059 8.44,9.059 0.62,0 2.81,0 4.84,-1.41 z"
       style="fill:#000000;fill-opacity:1;fill-rule:nonzero;stroke:none"
       transform="matrix(0.13333333,0,0,-0.13333333,0,172)" />
    <path
       id="path24"
       d="m 429.84,700.309 c -5.461,-1.09 -6.09,-5.938 -6.09,-6.868 0,-2.191 1.719,-4.691 5,-4.691 3.441,0 7.191,2.809 7.191,7.969 0,4.531 -3.601,8.59 -9.691,8.59 -5.621,0 -10.309,-2.649 -13.281,-5.938 -2.34,4.539 -8.129,5.938 -11.719,5.938 -3.59,0 -6.41,-2.028 -8.59,-5.618 -2.5,-3.91 -3.91,-9.222 -3.91,-9.851 0,-1.399 1.559,-1.399 2.5,-1.399 1.09,0 1.41,0 1.879,0.469 0.312,0.149 0.312,0.461 0.93,2.961 1.882,7.5 4.07,9.848 6.722,9.848 1.559,0 2.348,-0.938 2.348,-3.598 0,-1.711 -0.32,-2.812 -1.41,-7.5 -0.469,-1.711 -2.188,-8.281 -2.809,-10.781 -0.469,-1.871 -1.57,-6.399 -2.031,-8.121 -0.629,-2.66 -1.719,-7.188 -1.719,-7.809 0,-2.039 1.559,-4.379 4.68,-4.379 1.879,0 5.469,1.25 6.57,5.309 0,0.32 6.871,27.351 6.871,27.969 0.469,1.562 0.469,1.722 1.719,3.132 2.34,2.969 5.941,5.778 10.941,5.778 2.5,0 3.59,-1.098 3.899,-1.41 z"
       style="fill:#000000;fill-opacity:1;fill-rule:nonzero;stroke:none"
       transform="matrix(0.13333333,0,0,-0.13333333,0,172)" />
    <path
       id="path25"
       d="m 297.578,1224.06 c 0.313,1.41 0.313,1.72 0.313,1.72 0,1.41 -1.09,1.88 -2.192,1.88 -0.308,0 -0.469,0 -0.621,-0.16 l -12.808,-0.63 c -1.411,0 -3.29,-0.15 -3.29,-2.96 0,-1.72 1.879,-1.72 2.661,-1.72 1.089,0 2.808,0 4.218,-0.32 l -5.468,-22.03 c -1.563,1.41 -4.84,3.6 -10,3.6 -17.34,0 -28.121,-15.63 -28.121,-29.38 0,-12.19 9.058,-16.4 17.339,-16.4 7.192,0 12.34,3.9 13.911,5.31 3.75,-5.31 10.308,-5.31 11.402,-5.31 3.75,0 6.719,2.03 8.75,5.62 2.5,4.06 3.75,9.38 3.75,9.84 0,1.41 -1.402,1.41 -2.344,1.41 -1.098,0 -1.558,0 -2.027,-0.47 -0.16,-0.15 -0.16,-0.31 -0.781,-2.81 -2.04,-7.97 -4.219,-10 -6.719,-10 -1.102,0 -2.352,0.31 -2.352,3.59 0,1.57 0.16,2.97 0.629,4.38 z m -25,-56.4 c -2.969,-3.29 -7.656,-6.41 -12.348,-6.41 -6.25,0 -6.71,5.31 -6.71,7.5 0,5.31 3.281,17.5 5,21.41 2.96,7.18 7.96,9.68 12.031,9.68 5.929,0 8.277,-4.68 8.277,-5.78 l -0.156,-1.4 z"
       style="fill:#000000;fill-opacity:1;fill-rule:nonzero;stroke:none"
       transform="matrix(0.13333333,0,0,-0.13333333,0,172)" />
    <path
       id="path26"
       d="m 319.34,1187.89 c 0,1.88 0,1.88 -2.039,1.88 -4.531,-4.38 -10.781,-4.38 -13.59,-4.38 v -2.5 c 1.559,0 6.25,0 10,1.88 v -35.47 c 0,-2.35 0,-3.28 -6.871,-3.28 h -2.66 v -2.5 c 1.25,0 9.84,0.31 12.34,0.31 2.191,0 10.941,-0.31 12.5,-0.31 v 2.5 h -2.649 c -7.031,0 -7.031,0.93 -7.031,3.28 z"
       style="fill:#000000;fill-opacity:1;fill-rule:nonzero;stroke:none"
       transform="matrix(0.13333333,0,0,-0.13333333,0,172)" />
    <path
       id="path27"
       d="m 55.3086,1097.93 c 0.3203,1.41 0.3203,1.72 0.3203,1.72 0,1.4 -1.0976,1.87 -2.1875,1.87 -0.3125,0 -0.4726,0 -0.6328,-0.15 L 40,1100.74 c -1.4102,0 -3.2812,-0.15 -3.2812,-2.97 0,-1.72 1.871,-1.72 2.6601,-1.72 1.0899,0 2.8125,0 4.2109,-0.31 l -5.4609,-22.03 c -1.5703,1.41 -4.8476,3.59 -10,3.59 C 10.7813,1077.3 0,1061.68 0,1047.93 c 0,-12.19 9.05859,-16.41 17.3398,-16.41 7.1915,0 12.3516,3.91 13.9102,5.32 3.75,-5.32 10.3086,-5.32 11.4102,-5.32 3.75,0 6.7187,2.03 8.75,5.63 2.5,4.06 3.75,9.37 3.75,9.84 0,1.41 -1.4102,1.41 -2.3516,1.41 -1.0898,0 -1.5586,0 -2.0273,-0.47 -0.1524,-0.16 -0.1524,-0.31 -0.7813,-2.81 -2.0312,-7.97 -4.2187,-10 -6.7187,-10 -1.0899,0 -2.3399,0.31 -2.3399,3.59 0,1.56 0.1484,2.97 0.6172,4.38 z m -25,-56.41 c -2.9688,-3.28 -7.6484,-6.4 -12.3398,-6.4 -6.25,0 -6.7188,5.31 -6.7188,7.5 0,5.31 3.2813,17.5 5,21.4 2.9688,7.19 7.9688,9.69 12.0313,9.69 5.9375,0 8.2773,-4.69 8.2773,-5.78 l -0.1484,-1.41 z"
       style="fill:#000000;fill-opacity:1;fill-rule:nonzero;stroke:none"
       transform="matrix(0.13333333,0,0,-0.13333333,0,172)" />
    <path
       id="path28"
       d="m 88.9492,1030.04 h -2.3476 c -0.1524,-1.56 -0.9414,-5.63 -1.8711,-6.25 -0.4688,-0.47 -5.7813,-0.47 -6.8789,-0.47 H 65.0391 c 7.3398,6.41 9.8398,8.44 13.9101,11.72 5.1524,4.06 10,8.44 10,15 0,8.44 -7.3476,13.59 -16.25,13.59 -8.5976,0 -14.539,-6.09 -14.539,-12.5 0,-3.43 2.9687,-3.9 3.75,-3.9 1.5703,0 3.6015,1.25 3.6015,3.75 0,1.25 -0.4726,3.75 -4.0625,3.75 2.1797,4.84 6.8711,6.4 10.1524,6.4 7.0273,0 10.6289,-5.47 10.6289,-11.09 0,-6.09 -4.3789,-10.78 -6.5703,-13.28 l -16.711,-16.72 c -0.789,-0.63 -0.789,-0.78 -0.789,-2.66 h 28.75 z"
       style="fill:#000000;fill-opacity:1;fill-rule:nonzero;stroke:none"
       transform="matrix(0.13333333,0,0,-0.13333333,0,172)" />
    <path
       id="path29"
       d="m 84.2188,880.391 c 0.3125,1.41 0.3125,1.718 0.3125,1.718 0,1.411 -1.0899,1.871 -2.1915,1.871 -0.3085,0 -0.4609,0 -0.621,-0.152 l -12.8086,-0.629 c -1.4102,0 -3.2813,-0.148 -3.2813,-2.969 0,-1.71 1.8711,-1.71 2.6524,-1.71 1.0976,0 2.8085,0 4.2187,-0.321 l -5.4687,-22.027 c -1.5625,1.406 -4.8399,3.598 -10,3.598 -17.3399,0 -28.1211,-15.629 -28.1211,-29.379 0,-12.192 9.0586,-16.411 17.3398,-16.411 7.1914,0 12.3398,3.911 13.9102,5.321 3.75,-5.321 10.3086,-5.321 11.3984,-5.321 3.75,0 6.7227,2.04 8.75,5.629 2.5,4.063 3.75,9.371 3.75,9.84 0,1.41 -1.3984,1.41 -2.3398,1.41 -1.0899,0 -1.5586,0 -2.0274,-0.468 -0.1601,-0.161 -0.1601,-0.313 -0.7812,-2.813 -2.0313,-7.969 -4.2188,-10 -6.7188,-10 -1.1016,0 -2.3516,0.313 -2.3516,3.594 0,1.558 0.1602,2.969 0.629,4.379 z m -25,-56.411 c -2.9688,-3.281 -7.6602,-6.402 -12.3399,-6.402 -6.25,0 -6.7187,5.313 -6.7187,7.5 0,5.313 3.2812,17.5 5,21.402 2.9687,7.192 7.9687,9.692 12.0312,9.692 5.9375,0 8.2774,-4.692 8.2774,-5.781 l -0.1602,-1.411 z"
       style="fill:#000000;fill-opacity:1;fill-rule:nonzero;stroke:none"
       transform="matrix(0.13333333,0,0,-0.13333333,0,172)" />
    <path
       id="path30"
       d="m 101.762,823.09 c 5.468,0 9.367,-3.75 9.367,-11.25 0,-8.602 -5.149,-11.25 -9.059,-11.25 -2.8083,0 -9.0583,0.781 -11.8708,5 3.2813,0 4.0625,2.34 4.0625,3.898 0,2.192 -1.7226,3.75 -3.9101,3.75 -1.8711,0 -3.9024,-1.25 -3.9024,-4.058 0,-6.559 7.1797,-10.782 15.6208,-10.782 9.692,0 16.41,6.563 16.41,13.442 0,5.461 -4.378,10.93 -12.031,12.5 7.18,2.648 9.84,7.808 9.84,12.18 0,5.468 -6.25,9.531 -14.059,9.531 -7.6597,0 -13.6011,-3.75 -13.6011,-9.371 0,-2.34 1.5703,-3.59 3.6016,-3.59 2.1797,0 3.5898,1.558 3.5898,3.43 0,2.031 -1.4101,3.601 -3.5898,3.75 2.5,2.968 7.1797,3.75 9.8395,3.75 3.129,0 7.5,-1.559 7.5,-7.5 0,-2.969 -0.941,-6.25 -2.808,-8.282 -2.192,-2.648 -4.223,-2.808 -7.6604,-3.117 -1.7227,-0.16 -1.8711,-0.16 -2.1914,-0.16 -0.1485,0 -0.7813,-0.16 -0.7813,-0.941 0,-0.93 0.6328,-0.93 1.8828,-0.93 z"
       style="fill:#000000;fill-opacity:1;fill-rule:nonzero;stroke:none"
       transform="matrix(0.13333333,0,0,-0.13333333,0,172)" />
    <path
       id="path31"
       d="m 1527.27,432.578 c 0.31,1.402 0.31,1.723 0.31,1.723 0,1.398 -1.1,1.871 -2.19,1.871 -0.31,0 -0.47,0 -0.62,-0.152 l -12.82,-0.629 c -1.4,0 -3.28,-0.161 -3.28,-2.969 0,-1.723 1.88,-1.723 2.66,-1.723 1.09,0 2.81,0 4.22,-0.308 l -5.47,-22.032 c -1.56,1.411 -4.85,3.59 -10,3.59 -17.35,0 -28.13,-15.621 -28.13,-29.371 0,-12.187 9.07,-16.406 17.35,-16.406 7.18,0 12.34,3.906 13.9,5.308 3.75,-5.308 10.32,-5.308 11.41,-5.308 3.75,0 6.72,2.027 8.75,5.629 2.5,4.058 3.75,9.371 3.75,9.84 0,1.41 -1.41,1.41 -2.34,1.41 -1.1,0 -1.57,0 -2.04,-0.473 -0.15,-0.156 -0.15,-0.308 -0.78,-2.808 -2.03,-7.969 -4.22,-10 -6.72,-10 -1.09,0 -2.34,0.308 -2.34,3.589 0,1.563 0.16,2.969 0.63,4.371 z m -25,-56.406 c -2.97,-3.281 -7.66,-6.402 -12.35,-6.402 -6.25,0 -6.72,5.308 -6.72,7.5 0,5.308 3.28,17.5 5,21.402 2.97,7.187 7.97,9.687 12.03,9.687 5.94,0 8.29,-4.687 8.29,-5.781 l -0.16,-1.406 z"
       style="fill:#000000;fill-opacity:1;fill-rule:nonzero;stroke:none"
       transform="matrix(0.13333333,0,0,-0.13333333,0,172)" />
    <path
       id="path32"
       d="m 1544.8,443.91 c 1.1,0 1.72,-0.16 3.91,-0.629 2.19,-0.621 3.91,-1.09 5.16,-1.09 2.81,0 2.97,2.028 2.97,2.649 0,0.629 -0.16,2.82 -2.97,2.82 -1.25,0 -2.97,-0.469 -5.16,-1.101 -2.19,-0.618 -2.81,-0.618 -3.91,-0.778 0.16,2.5 0.63,5.309 0.94,7.5 0.31,1.41 0.94,5 0.94,7.34 0,2.188 -0.94,3.289 -2.66,3.289 -1.56,0 -2.81,-0.789 -2.81,-3.289 0,-2.18 0.63,-5.781 1.09,-8.121 0.16,-0.781 0.79,-4.059 0.79,-6.719 -0.94,0.16 -1.72,0.16 -3.75,0.778 -2.19,0.632 -3.91,1.101 -5.16,1.101 -2.81,0 -3.13,-2.191 -3.13,-2.82 0,-0.469 0.32,-2.649 3.13,-2.649 1.25,0 2.97,0.469 5.16,1.09 2.03,0.469 2.81,0.629 3.75,0.629 0,-1.719 -0.63,-3.91 -0.94,-5.32 -0.94,-4.371 -0.94,-4.84 -0.94,-8.43 0,-13.441 1.41,-27.82 1.56,-29.219 0.16,-0.632 0.32,-0.941 1.25,-0.941 1.1,0 1.1,0.309 1.25,1.25 0,0.16 0.47,6.25 0.78,10.469 0.32,6.09 0.63,12.191 0.63,18.441 0,3.59 0,4.059 -0.94,8.59 -0.15,0.621 -0.78,3.441 -0.94,5.16 z"
       style="fill:#000000;fill-opacity:1;fill-rule:nonzero;stroke:none"
       transform="matrix(0.13333333,0,0,-0.13333333,0,172)" />
    <path
       id="path33"
       d="m 1549.02,384.77 c 0,1.871 0,1.871 -2.03,1.871 -4.53,-4.371 -10.78,-4.371 -13.59,-4.371 v -2.5 c 1.56,0 6.25,0 10,1.871 v -35.469 c 0,-2.344 0,-3.281 -6.88,-3.281 h -2.65 v -2.5 c 1.25,0 9.84,0.308 12.34,0.308 2.19,0 10.94,-0.308 12.5,-0.308 v 2.5 h -2.66 c -7.03,0 -7.03,0.937 -7.03,3.281 z"
       style="fill:#000000;fill-opacity:1;fill-rule:nonzero;stroke:none"
       transform="matrix(0.13333333,0,0,-0.13333333,0,172)" />
    <path
       id="path34"
       d="m 1653.95,656.449 c 0.31,1.403 0.31,1.711 0.31,1.711 0,1.41 -1.1,1.879 -2.19,1.879 -0.31,0 -0.47,0 -0.62,-0.16 l -12.82,-0.617 c -1.4,0 -3.28,-0.16 -3.28,-2.973 0,-1.719 1.88,-1.719 2.66,-1.719 1.09,0 2.81,0 4.22,-0.308 l -5.47,-22.032 c -1.56,1.399 -4.85,3.59 -10,3.59 -17.35,0 -28.13,-15.621 -28.13,-29.371 0,-12.187 9.07,-16.41 17.35,-16.41 7.18,0 12.34,3.91 13.9,5.313 3.75,-5.313 10.32,-5.313 11.41,-5.313 3.75,0 6.72,2.031 8.75,5.621 2.5,4.07 3.75,9.379 3.75,9.852 0,1.398 -1.41,1.398 -2.34,1.398 -1.1,0 -1.57,0 -2.04,-0.461 -0.15,-0.16 -0.15,-0.32 -0.78,-2.82 -2.03,-7.969 -4.22,-10 -6.72,-10 -1.09,0 -2.34,0.32 -2.34,3.601 0,1.559 0.16,2.969 0.63,4.372 z m -25,-56.41 c -2.97,-3.277 -7.66,-6.41 -12.35,-6.41 -6.25,0 -6.72,5.32 -6.72,7.5 0,5.32 3.28,17.5 5,21.41 2.97,7.191 7.97,9.691 12.03,9.691 5.94,0 8.29,-4.691 8.29,-5.781 l -0.16,-1.41 z"
       style="fill:#000000;fill-opacity:1;fill-rule:nonzero;stroke:none"
       transform="matrix(0.13333333,0,0,-0.13333333,0,172)" />
    <path
       id="path35"
       d="m 1671.45,667.77 c 1.09,0 1.71,-0.149 3.9,-0.622 2.19,-0.628 3.91,-1.097 5.16,-1.097 2.81,0 2.97,2.039 2.97,2.66 0,0.629 -0.16,2.809 -2.97,2.809 -1.25,0 -2.97,-0.469 -5.16,-1.09 -2.19,-0.629 -2.81,-0.629 -3.9,-0.782 0.15,2.5 0.62,5.313 0.93,7.5 0.32,1.403 0.94,5 0.94,7.34 0,2.192 -0.94,3.282 -2.66,3.282 -1.56,0 -2.81,-0.782 -2.81,-3.282 0,-2.187 0.63,-5.777 1.1,-8.117 0.15,-0.781 0.78,-4.07 0.78,-6.723 -0.94,0.153 -1.72,0.153 -3.75,0.782 -2.19,0.621 -3.91,1.09 -5.16,1.09 -2.81,0 -3.12,-2.18 -3.12,-2.809 0,-0.473 0.31,-2.66 3.12,-2.66 1.25,0 2.97,0.469 5.16,1.097 2.03,0.473 2.81,0.622 3.75,0.622 0,-1.719 -0.63,-3.899 -0.94,-5.309 -0.94,-4.371 -0.94,-4.84 -0.94,-8.441 0,-13.43 1.41,-27.809 1.56,-29.219 0.16,-0.621 0.32,-0.93 1.25,-0.93 1.1,0 1.1,0.309 1.25,1.25 0,0.149 0.47,6.25 0.79,10.469 0.31,6.09 0.62,12.18 0.62,18.43 0,3.601 0,4.07 -0.94,8.601 -0.15,0.617 -0.78,3.43 -0.93,5.149 z"
       style="fill:#000000;fill-opacity:1;fill-rule:nonzero;stroke:none"
       transform="matrix(0.13333333,0,0,-0.13333333,0,172)" />
    <path
       id="path36"
       d="m 1687.58,576.91 h -2.35 c -0.15,-1.558 -0.93,-5.621 -1.87,-6.25 -0.47,-0.461 -5.78,-0.461 -6.88,-0.461 h -12.81 c 7.35,6.403 9.85,8.43 13.91,11.711 5.15,4.07 10,8.442 10,15 0,8.442 -7.35,13.602 -16.25,13.602 -8.6,0 -14.53,-6.102 -14.53,-12.5 0,-3.442 2.97,-3.91 3.75,-3.91 1.56,0 3.59,1.25 3.59,3.75 0,1.25 -0.47,3.75 -4.06,3.75 2.19,4.847 6.87,6.41 10.15,6.41 7.04,0 10.63,-5.473 10.63,-11.102 0,-6.09 -4.38,-10.781 -6.56,-13.281 l -16.72,-16.719 c -0.78,-0.621 -0.78,-0.781 -0.78,-2.648 h 28.75 z"
       style="fill:#000000;fill-opacity:1;fill-rule:nonzero;stroke:none"
       transform="matrix(0.13333333,0,0,-0.13333333,0,172)" />
    <path
       id="path37"
       d="m 1052.23,665.898 c 0.31,1.403 0.31,1.723 0.31,1.723 0,1.399 -1.09,1.867 -2.19,1.867 -0.31,0 -0.47,0 -0.62,-0.148 l -12.82,-0.629 c -1.4,0 -3.28,-0.16 -3.28,-2.973 0,-1.718 1.88,-1.718 2.66,-1.718 1.09,0 2.81,0 4.22,-0.309 l -5.47,-22.031 c -1.56,1.41 -4.84,3.59 -10,3.59 -17.34,0 -28.13,-15.622 -28.13,-29.372 0,-12.187 9.07,-16.41 17.35,-16.41 7.19,0 12.34,3.91 13.9,5.313 3.75,-5.313 10.32,-5.313 11.41,-5.313 3.75,0 6.72,2.032 8.75,5.633 2.5,4.059 3.75,9.367 3.75,9.84 0,1.41 -1.41,1.41 -2.34,1.41 -1.1,0 -1.57,0 -2.03,-0.473 -0.16,-0.16 -0.16,-0.308 -0.79,-2.808 -2.03,-7.969 -4.21,-10 -6.71,-10 -1.1,0 -2.35,0.308 -2.35,3.59 0,1.558 0.16,2.968 0.63,4.371 z m -25,-56.41 c -2.97,-3.277 -7.66,-6.398 -12.35,-6.398 -6.25,0 -6.72,5.308 -6.72,7.5 0,5.308 3.29,17.5 5,21.398 2.97,7.192 7.97,9.692 12.04,9.692 5.93,0 8.28,-4.692 8.28,-5.782 l -0.16,-1.41 z"
       style="fill:#000000;fill-opacity:1;fill-rule:nonzero;stroke:none"
       transform="matrix(0.13333333,0,0,-0.13333333,0,172)" />
    <path
       id="path38"
       d="m 1069.73,677.23 c 1.09,0 1.72,-0.16 3.9,-0.628 2.19,-0.622 3.91,-1.09 5.16,-1.09 2.81,0 2.97,2.027 2.97,2.648 0,0.629 -0.16,2.82 -2.97,2.82 -1.25,0 -2.97,-0.468 -5.16,-1.101 -2.18,-0.617 -2.81,-0.617 -3.9,-0.777 0.15,2.5 0.62,5.308 0.93,7.5 0.32,1.41 0.94,5 0.94,7.347 0,2.18 -0.94,3.281 -2.65,3.281 -1.57,0 -2.82,-0.781 -2.82,-3.281 0,-2.187 0.63,-5.789 1.1,-8.129 0.15,-0.781 0.78,-4.058 0.78,-6.718 -0.94,0.16 -1.72,0.16 -3.75,0.777 -2.19,0.633 -3.91,1.101 -5.16,1.101 -2.81,0 -3.12,-2.191 -3.12,-2.82 0,-0.461 0.31,-2.648 3.12,-2.648 1.25,0 2.97,0.468 5.16,1.09 2.03,0.468 2.81,0.628 3.75,0.628 0,-1.718 -0.63,-3.91 -0.94,-5.32 -0.94,-4.371 -0.94,-4.84 -0.94,-8.43 0,-13.441 1.41,-27.82 1.57,-29.218 0.15,-0.633 0.31,-0.942 1.25,-0.942 1.09,0 1.09,0.309 1.25,1.25 0,0.16 0.46,6.25 0.78,10.469 0.31,6.09 0.62,12.191 0.62,18.441 0,3.59 0,4.059 -0.94,8.59 -0.15,0.629 -0.78,3.442 -0.93,5.16 z"
       style="fill:#000000;fill-opacity:1;fill-rule:nonzero;stroke:none"
       transform="matrix(0.13333333,0,0,-0.13333333,0,172)" />
    <path
       id="path39"
       d="m 1069.77,596.988 c 5.46,0 9.37,-3.75 9.37,-11.25 0,-8.59 -5.16,-11.25 -9.06,-11.25 -2.81,0 -9.06,0.782 -11.88,5 3.28,0 4.07,2.352 4.07,3.91 0,2.192 -1.72,3.75 -3.91,3.75 -1.88,0 -3.91,-1.25 -3.91,-4.058 0,-6.57 7.19,-10.789 15.63,-10.789 9.69,0 16.4,6.57 16.4,13.437 0,5.473 -4.37,10.942 -12.03,12.5 7.19,2.66 9.85,7.813 9.85,12.192 0,5.468 -6.25,9.531 -14.07,9.531 -7.65,0 -13.59,-3.75 -13.59,-9.371 0,-2.352 1.56,-3.602 3.59,-3.602 2.19,0 3.6,1.563 3.6,3.442 0,2.031 -1.41,3.59 -3.6,3.75 2.5,2.968 7.19,3.75 9.85,3.75 3.12,0 7.5,-1.559 7.5,-7.5 0,-2.969 -0.94,-6.25 -2.81,-8.282 -2.19,-2.66 -4.22,-2.808 -7.66,-3.128 -1.72,-0.149 -1.88,-0.149 -2.19,-0.149 -0.15,0 -0.78,-0.16 -0.78,-0.941 0,-0.942 0.63,-0.942 1.88,-0.942 z"
       style="fill:#000000;fill-opacity:1;fill-rule:nonzero;stroke:none"
       transform="matrix(0.13333333,0,0,-0.13333333,0,172)" />
    <path
       id="path40"
       d="m 1735.12,635.781 c 2.97,0 10.31,0.309 15.31,2.34 7.03,2.969 7.5,8.91 7.5,10.32 0,4.368 -3.75,8.43 -10.63,8.43 -11.09,0 -26.25,-9.68 -26.25,-27.18 0,-10.16 5.94,-17.972 15.79,-17.972 14.21,0 22.5,10.621 22.5,11.722 0,0.618 -0.47,1.399 -1.1,1.399 -0.62,0 -0.78,-0.309 -1.4,-1.09 -7.82,-9.84 -18.75,-9.84 -19.85,-9.84 -7.81,0 -8.75,8.43 -8.75,11.559 0,1.25 0.16,4.222 1.56,10.312 z m -4.69,2.188 c 3.91,15.152 14.22,16.722 16.87,16.722 4.54,0 7.35,-2.972 7.35,-6.25 0,-10.472 -15.94,-10.472 -20.16,-10.472 z"
       style="fill:#000000;fill-opacity:1;fill-rule:nonzero;stroke:none"
       transform="matrix(0.13333333,0,0,-0.13333333,0,172)" />
    <path
       id="path41"
       d="m 1777.03,611.949 c 0,0.473 1.72,6.723 1.72,7.031 0.16,0.629 2.19,4.071 4.53,5.79 0.63,0.46 2.5,1.871 5.63,1.871 0.62,0 2.34,0 3.75,-0.942 -2.19,-0.621 -2.97,-2.648 -2.97,-3.898 0,-1.41 1.09,-2.5 2.65,-2.5 1.72,0 3.91,1.25 3.91,4.219 0,3.589 -3.75,5.152 -7.34,5.152 -3.6,0 -6.72,-1.563 -9.85,-5 -1.25,4.219 -5.47,5 -7.18,5 -2.5,0 -4.22,-1.723 -5.47,-3.594 -1.57,-2.656 -2.5,-6.719 -2.5,-7.187 0,-0.782 0.93,-0.782 1.25,-0.782 0.93,0 0.93,0.161 1.4,2.032 1.1,4.218 2.5,7.5 5.16,7.5 1.87,0 2.34,-1.563 2.34,-3.442 0,-1.25 -0.62,-3.898 -1.25,-5.777 -0.47,-1.871 -1.09,-4.692 -1.4,-6.25 l -2.35,-8.902 c -0.15,-0.942 -0.62,-2.661 -0.62,-2.821 0,-1.558 1.25,-2.179 2.34,-2.179 1.1,0 2.5,0.621 2.97,1.871 0.16,0.468 0.94,3.589 1.41,5.308 z"
       style="fill:#000000;fill-opacity:1;fill-rule:nonzero;stroke:none"
       transform="matrix(0.13333333,0,0,-0.13333333,0,172)" />
    <path
       id="path42"
       d="m 1162.93,645.27 c 2.97,0 10.31,0.32 15.31,2.351 7.03,2.969 7.5,8.899 7.5,10.309 0,4.371 -3.75,8.441 -10.62,8.441 -11.1,0 -26.25,-9.691 -26.25,-27.191 0,-10.16 5.93,-17.969 15.78,-17.969 14.22,0 22.5,10.629 22.5,11.719 0,0.621 -0.47,1.41 -1.1,1.41 -0.62,0 -0.78,-0.32 -1.4,-1.102 -7.81,-9.84 -18.75,-9.84 -19.85,-9.84 -7.81,0 -8.75,8.442 -8.75,11.563 0,1.25 0.16,4.219 1.57,10.309 z m -4.69,2.191 c 3.91,15.16 14.22,16.719 16.88,16.719 4.53,0 7.34,-2.969 7.34,-6.25 0,-10.469 -15.94,-10.469 -20.16,-10.469 z"
       style="fill:#000000;fill-opacity:1;fill-rule:nonzero;stroke:none"
       transform="matrix(0.13333333,0,0,-0.13333333,0,172)" />
    <path
       id="path43"
       d="m 1229.1,632.34 c 1.25,5.16 1.25,8.601 1.25,9.379 0,5.621 -1.87,14.691 -9.06,14.691 -5.78,0 -11.25,-6.25 -11.25,-12.66 0,-7.5 7.66,-10.469 13.12,-12.031 -1.25,-4.688 -2.65,-10.469 -5.15,-14.848 -3.13,-5.461 -5.63,-8.281 -8.91,-8.281 -5,0 -5.62,3.281 -5.62,5.469 0,1.882 0.31,3.132 1.87,9.382 0.16,0.618 0.63,2.809 1.1,4.059 0.31,1.25 0.78,3.121 0.78,4.059 0,3.91 -3.6,6.562 -7.5,6.562 -2.66,0 -4.38,-1.871 -5.47,-3.75 -1.41,-2.34 -2.5,-6.562 -2.5,-7.031 0,-0.781 0.94,-0.781 1.25,-0.781 0.94,0 0.94,0.16 1.4,2.031 1.1,4.07 2.5,7.5 5.16,7.5 1.88,0 2.34,-1.559 2.34,-3.43 0,-1.25 -0.15,-1.719 -0.62,-3.441 l -1.09,-4.059 c -0.16,-1.101 -1.1,-4.691 -1.25,-5.32 -0.32,-1.559 -0.79,-3.281 -0.79,-4.84 0,-6.559 5.47,-8.281 10.79,-8.281 9.21,0 17.03,13.121 19.68,23.75 1.25,-0.309 3.13,-0.629 3.6,-0.629 0.62,0 0.78,0.781 0.78,1.101 0,0.618 -0.47,0.778 -1.56,0.93 z m -5.47,1.41 c -3.12,0.781 -11.25,3.281 -11.25,10 0,5.16 4.38,10.621 8.75,10.621 3.44,0 4.22,-4.371 4.22,-8.75 0,-4.062 -0.78,-8.281 -1.72,-11.871 z"
       style="fill:#000000;fill-opacity:1;fill-rule:nonzero;stroke:none"
       transform="matrix(0.13333333,0,0,-0.13333333,0,172)" />
    <path
       id="path44"
       d="m 1599.26,399.301 c 2.97,0 10.31,0.308 15.31,2.34 7.03,2.968 7.5,8.91 7.5,10.308 0,4.379 -3.75,8.442 -10.62,8.442 -11.1,0 -26.25,-9.692 -26.25,-27.192 0,-10.148 5.93,-17.969 15.78,-17.969 14.22,0 22.5,10.629 22.5,11.719 0,0.629 -0.47,1.41 -1.1,1.41 -0.62,0 -0.78,-0.308 -1.4,-1.089 -7.82,-9.848 -18.75,-9.848 -19.85,-9.848 -7.81,0 -8.75,8.437 -8.75,11.558 0,1.25 0.16,4.219 1.57,10.321 z m -4.69,2.179 c 3.91,15.161 14.22,16.719 16.88,16.719 4.53,0 7.34,-2.969 7.34,-6.25 0,-10.469 -15.94,-10.469 -20.16,-10.469 z"
       style="fill:#000000;fill-opacity:1;fill-rule:nonzero;stroke:none"
       transform="matrix(0.13333333,0,0,-0.13333333,0,172)" />
    <path
       id="path45"
       d="m 1643.91,384.691 c 5.47,0 9.37,-3.75 9.37,-11.25 0,-8.601 -5.15,-11.25 -9.06,-11.25 -2.81,0 -9.06,0.778 -11.88,5 3.29,0 4.07,2.34 4.07,3.899 0,2.191 -1.72,3.75 -3.91,3.75 -1.87,0 -3.91,-1.25 -3.91,-4.059 0,-6.562 7.19,-10.781 15.63,-10.781 9.69,0 16.41,6.559 16.41,13.441 0,5.469 -4.38,10.93 -12.04,12.5 7.19,2.649 9.85,7.809 9.85,12.18 0,5.469 -6.25,9.539 -14.06,9.539 -7.66,0 -13.6,-3.75 -13.6,-9.379 0,-2.34 1.56,-3.59 3.6,-3.59 2.18,0 3.59,1.559 3.59,3.43 0,2.039 -1.41,3.598 -3.59,3.75 2.5,2.969 7.18,3.75 9.84,3.75 3.12,0 7.5,-1.562 7.5,-7.5 0,-2.961 -0.94,-6.25 -2.81,-8.281 -2.19,-2.649 -4.22,-2.809 -7.66,-3.121 -1.72,-0.16 -1.87,-0.16 -2.19,-0.16 -0.15,0 -0.78,-0.149 -0.78,-0.938 0,-0.93 0.63,-0.93 1.88,-0.93 z"
       style="fill:#000000;fill-opacity:1;fill-rule:nonzero;stroke:none"
       transform="matrix(0.13333333,0,0,-0.13333333,0,172)" />
    <path
       id="path46"
       d="m 1120.9,600.391 c 0,6.558 -2.5,10.468 -6.41,10.468 -3.28,0 -5.31,-2.5 -5.31,-5.308 0,-2.66 2.03,-5.321 5.31,-5.321 1.1,0 2.5,0.469 3.44,1.25 0.31,0.321 0.47,0.321 0.47,0.321 0.15,0 0.15,0 0.15,-1.41 0,-7.5 -3.43,-13.442 -6.71,-16.719 -1.1,-1.094 -1.1,-1.25 -1.1,-1.563 0,-0.781 0.47,-1.089 0.94,-1.089 1.09,0 9.22,7.652 9.22,19.371 z"
       style="fill:#000000;fill-opacity:1;fill-rule:nonzero;stroke:none"
       transform="matrix(0.13333333,0,0,-0.13333333,0,172)" />
    <path
       id="path47"
       d="m 1578.16,367.66 c 0,6.559 -2.5,10.461 -6.4,10.461 -3.28,0 -5.31,-2.5 -5.31,-5.312 0,-2.649 2.03,-5.309 5.31,-5.309 1.09,0 2.5,0.469 3.44,1.25 0.31,0.309 0.46,0.309 0.46,0.309 0.16,0 0.16,0 0.16,-1.399 0,-7.5 -3.44,-13.441 -6.72,-16.719 -1.09,-1.101 -1.09,-1.25 -1.09,-1.57 0,-0.781 0.47,-1.09 0.94,-1.09 1.09,0 9.21,7.66 9.21,19.379 z"
       style="fill:#000000;fill-opacity:1;fill-rule:nonzero;stroke:none"
       transform="matrix(0.13333333,0,0,-0.13333333,0,172)" />
    <path
       id="path48"
       d="m 1720.08,588.398 c 0,6.563 -2.5,10.473 -6.41,10.473 -3.28,0 -5.31,-2.5 -5.31,-5.32 0,-2.653 2.03,-5.313 5.31,-5.313 1.1,0 2.5,0.473 3.44,1.25 0.31,0.313 0.47,0.313 0.47,0.313 0.15,0 0.15,0 0.15,-1.403 0,-7.5 -3.43,-13.437 -6.71,-16.718 -1.1,-1.09 -1.1,-1.25 -1.1,-1.559 0,-0.781 0.47,-1.101 0.94,-1.101 1.09,0 9.22,7.66 9.22,19.378 z"
       style="fill:#000000;fill-opacity:1;fill-rule:nonzero;stroke:none"
       transform="matrix(0.13333333,0,0,-0.13333333,0,172)" />
  </g>
</svg>
